<svg xmlns="http://www.w3.org/2000/svg" xmlns:xlink="http://www.w3.org/1999/xlink" viewBox="0 0 829 331"><defs><style>.cls-1,.cls-13,.cls-4,.cls-64,.cls-66{fill:none;}.cls-2{clip-path:url(#clip-path);}.cls-3{fill:#7d7d7d;}.cls-4{stroke:#000;}.cls-5{clip-path:url(#clip-path-3);}.cls-6{clip-path:url(#clip-path-4);}.cls-7{clip-path:url(#clip-path-6);}.cls-8{clip-path:url(#clip-path-7);}.cls-9{fill:#d6d6d6;}.cls-10{clip-path:url(#clip-path-9);}.cls-11{clip-path:url(#clip-path-10);}.cls-12{fill:#fafafa;}.cls-13{stroke:#8a8a8a;}.cls-14{clip-path:url(#clip-path-13);}.cls-15{clip-path:url(#clip-path-14);}.cls-16{clip-path:url(#clip-path-15);}.cls-17{clip-path:url(#clip-path-16);}.cls-18{clip-path:url(#clip-path-17);}.cls-19{clip-path:url(#clip-path-19);}.cls-20{clip-path:url(#clip-path-20);}.cls-21{clip-path:url(#clip-path-22);}.cls-22{clip-path:url(#clip-path-23);}.cls-23{clip-path:url(#clip-path-26);}.cls-24{clip-path:url(#clip-path-27);}.cls-25{clip-path:url(#clip-path-28);}.cls-26{clip-path:url(#clip-path-29);}.cls-27{clip-path:url(#clip-path-30);}.cls-28{clip-path:url(#clip-path-38);}.cls-29{clip-path:url(#clip-path-39);}.cls-30{clip-path:url(#clip-path-41);}.cls-31{clip-path:url(#clip-path-42);}.cls-32{clip-path:url(#clip-path-45);}.cls-33{clip-path:url(#clip-path-46);}.cls-34{clip-path:url(#clip-path-47);}.cls-35{clip-path:url(#clip-path-48);}.cls-36{clip-path:url(#clip-path-49);}.cls-37{clip-path:url(#clip-path-50);}.cls-38{clip-path:url(#clip-path-51);}.cls-39{clip-path:url(#clip-path-52);}.cls-40{clip-path:url(#clip-path-53);}.cls-41{clip-path:url(#clip-path-54);}.cls-42{clip-path:url(#clip-path-55);}.cls-43{clip-path:url(#clip-path-56);}.cls-44{clip-path:url(#clip-path-57);}.cls-45{clip-path:url(#clip-path-58);}.cls-46{clip-path:url(#clip-path-59);}.cls-47{clip-path:url(#clip-path-60);}.cls-48{clip-path:url(#clip-path-61);}.cls-49{clip-path:url(#clip-path-66);}.cls-50{clip-path:url(#clip-path-67);}.cls-51{clip-path:url(#clip-path-69);}.cls-52{clip-path:url(#clip-path-70);}.cls-53{clip-path:url(#clip-path-73);}.cls-54{clip-path:url(#clip-path-74);}.cls-55{clip-path:url(#clip-path-75);}.cls-56{clip-path:url(#clip-path-76);}.cls-57{clip-path:url(#clip-path-77);}.cls-58{clip-path:url(#clip-path-78);}.cls-59{clip-path:url(#clip-path-79);}.cls-60{clip-path:url(#clip-path-80);}.cls-61{clip-path:url(#clip-path-81);}.cls-62{clip-path:url(#clip-path-82);}.cls-63{clip-path:url(#clip-path-83);}.cls-64,.cls-66{stroke:#212121;}.cls-64{stroke-dasharray:6 3;}.cls-65{fill:#212121;}.cls-67{clip-path:url(#clip-path-86);}.cls-68{clip-path:url(#clip-path-89);}.cls-69{clip-path:url(#clip-path-92);}</style><clipPath id="clip-path" transform="translate(-1.5 -1.5)"><rect class="cls-1" x="239" width="373" height="59"/></clipPath><clipPath id="clip-path-3" transform="translate(-1.5 -1.5)"><rect class="cls-1" x="271" y="16" width="309" height="27"/></clipPath><clipPath id="clip-path-4" transform="translate(-1.5 -1.5)"><path class="cls-1" d="M1,111H137v97H1Zm1,1v32H82V112Z"/></clipPath><clipPath id="clip-path-6" transform="translate(-1.5 -1.5)"><rect class="cls-1" y="110" width="138" height="99"/></clipPath><clipPath id="clip-path-7" transform="translate(-1.5 -1.5)"><rect class="cls-1" y="110" width="85" height="37"/></clipPath><clipPath id="clip-path-9" transform="translate(-1.5 -1.5)"><rect class="cls-1" x="13" y="118" width="59" height="21"/></clipPath><clipPath id="clip-path-10" transform="translate(-1.5 -1.5)"><rect class="cls-1" x="36" y="145" width="13" height="13"/></clipPath><clipPath id="clip-path-13" transform="translate(-1.5 -1.5)"><rect class="cls-1" x="49" y="164" width="72" height="23"/></clipPath><clipPath id="clip-path-14" transform="translate(-1.5 -1.5)"><rect class="cls-1" x="59" y="167" width="52" height="17"/></clipPath><clipPath id="clip-path-15" transform="translate(-1.5 -1.5)"><rect class="cls-1" x="49" y="186" width="89" height="23"/></clipPath><clipPath id="clip-path-16" transform="translate(-1.5 -1.5)"><rect class="cls-1" x="59" y="189" width="69" height="17"/></clipPath><clipPath id="clip-path-17" transform="translate(-1.5 -1.5)"><path class="cls-1" d="M715,111H832v97H715Zm1,1v32h65V112Z"/></clipPath><clipPath id="clip-path-19" transform="translate(-1.5 -1.5)"><rect class="cls-1" x="714" y="110" width="119" height="99"/></clipPath><clipPath id="clip-path-20" transform="translate(-1.5 -1.5)"><rect class="cls-1" x="714" y="110" width="70" height="37"/></clipPath><clipPath id="clip-path-22" transform="translate(-1.5 -1.5)"><rect class="cls-1" x="727" y="118" width="44" height="21"/></clipPath><clipPath id="clip-path-23" transform="translate(-1.5 -1.5)"><rect class="cls-1" x="743" y="145" width="13" height="13"/></clipPath><clipPath id="clip-path-26" transform="translate(-1.5 -1.5)"><rect class="cls-1" x="756" y="164" width="60" height="23"/></clipPath><clipPath id="clip-path-27" transform="translate(-1.5 -1.5)"><rect class="cls-1" x="766" y="167" width="40" height="17"/></clipPath><clipPath id="clip-path-28" transform="translate(-1.5 -1.5)"><rect class="cls-1" x="756" y="186" width="77" height="23"/></clipPath><clipPath id="clip-path-29" transform="translate(-1.5 -1.5)"><rect class="cls-1" x="766" y="189" width="57" height="17"/></clipPath><clipPath id="clip-path-30" transform="translate(-1.5 -1.5)"><path class="cls-1" d="M203,105H378V334H203Zm1,1v32H320V106Z"/></clipPath><clipPath id="clip-path-38" transform="translate(-1.5 -1.5)"><rect class="cls-1" x="202" y="104" width="177" height="231"/></clipPath><clipPath id="clip-path-39" transform="translate(-1.5 -1.5)"><rect class="cls-1" x="202" y="104" width="121" height="37"/></clipPath><clipPath id="clip-path-41" transform="translate(-1.5 -1.5)"><rect class="cls-1" x="215" y="112" width="95" height="21"/></clipPath><clipPath id="clip-path-42" transform="translate(-1.5 -1.5)"><rect class="cls-1" x="256" y="139" width="13" height="13"/></clipPath><clipPath id="clip-path-45" transform="translate(-1.5 -1.5)"><rect class="cls-1" x="269" y="158" width="66" height="23"/></clipPath><clipPath id="clip-path-46" transform="translate(-1.5 -1.5)"><rect class="cls-1" x="279" y="161" width="46" height="17"/></clipPath><clipPath id="clip-path-47" transform="translate(-1.5 -1.5)"><rect class="cls-1" x="269" y="180" width="72" height="23"/></clipPath><clipPath id="clip-path-48" transform="translate(-1.5 -1.5)"><rect class="cls-1" x="279" y="183" width="52" height="17"/></clipPath><clipPath id="clip-path-49" transform="translate(-1.5 -1.5)"><rect class="cls-1" x="269" y="202" width="83" height="23"/></clipPath><clipPath id="clip-path-50" transform="translate(-1.5 -1.5)"><rect class="cls-1" x="279" y="205" width="63" height="17"/></clipPath><clipPath id="clip-path-51" transform="translate(-1.5 -1.5)"><rect class="cls-1" x="269" y="224" width="110" height="23"/></clipPath><clipPath id="clip-path-52" transform="translate(-1.5 -1.5)"><rect class="cls-1" x="279" y="227" width="90" height="17"/></clipPath><clipPath id="clip-path-53" transform="translate(-1.5 -1.5)"><rect class="cls-1" x="269" y="246" width="70" height="23"/></clipPath><clipPath id="clip-path-54" transform="translate(-1.5 -1.5)"><rect class="cls-1" x="279" y="249" width="50" height="17"/></clipPath><clipPath id="clip-path-55" transform="translate(-1.5 -1.5)"><rect class="cls-1" x="269" y="268" width="47" height="23"/></clipPath><clipPath id="clip-path-56" transform="translate(-1.5 -1.5)"><rect class="cls-1" x="279" y="271" width="27" height="17"/></clipPath><clipPath id="clip-path-57" transform="translate(-1.5 -1.5)"><rect class="cls-1" x="269" y="290" width="80" height="23"/></clipPath><clipPath id="clip-path-58" transform="translate(-1.5 -1.5)"><rect class="cls-1" x="279" y="293" width="60" height="17"/></clipPath><clipPath id="clip-path-59" transform="translate(-1.5 -1.5)"><rect class="cls-1" x="269" y="312" width="96" height="23"/></clipPath><clipPath id="clip-path-60" transform="translate(-1.5 -1.5)"><rect class="cls-1" x="279" y="315" width="76" height="17"/></clipPath><clipPath id="clip-path-61" transform="translate(-1.5 -1.5)"><path class="cls-1" d="M476,108H653V271H476Zm1,1v32H616V109Z"/></clipPath><clipPath id="clip-path-66" transform="translate(-1.5 -1.5)"><rect class="cls-1" x="475" y="107" width="179" height="165"/></clipPath><clipPath id="clip-path-67" transform="translate(-1.5 -1.5)"><rect class="cls-1" x="475" y="107" width="144" height="37"/></clipPath><clipPath id="clip-path-69" transform="translate(-1.5 -1.5)"><rect class="cls-1" x="488" y="115" width="118" height="21"/></clipPath><clipPath id="clip-path-70" transform="translate(-1.5 -1.5)"><rect class="cls-1" x="541" y="142" width="13" height="13"/></clipPath><clipPath id="clip-path-73" transform="translate(-1.5 -1.5)"><rect class="cls-1" x="554" y="161" width="56" height="23"/></clipPath><clipPath id="clip-path-74" transform="translate(-1.5 -1.5)"><rect class="cls-1" x="564" y="164" width="36" height="17"/></clipPath><clipPath id="clip-path-75" transform="translate(-1.5 -1.5)"><rect class="cls-1" x="554" y="183" width="60" height="23"/></clipPath><clipPath id="clip-path-76" transform="translate(-1.5 -1.5)"><rect class="cls-1" x="564" y="186" width="40" height="17"/></clipPath><clipPath id="clip-path-77" transform="translate(-1.5 -1.5)"><rect class="cls-1" x="554" y="205" width="66" height="23"/></clipPath><clipPath id="clip-path-78" transform="translate(-1.5 -1.5)"><rect class="cls-1" x="564" y="208" width="46" height="17"/></clipPath><clipPath id="clip-path-79" transform="translate(-1.5 -1.5)"><rect class="cls-1" x="554" y="227" width="100" height="23"/></clipPath><clipPath id="clip-path-80" transform="translate(-1.5 -1.5)"><rect class="cls-1" x="564" y="230" width="80" height="17"/></clipPath><clipPath id="clip-path-81" transform="translate(-1.5 -1.5)"><rect class="cls-1" x="554" y="249" width="93" height="23"/></clipPath><clipPath id="clip-path-82" transform="translate(-1.5 -1.5)"><rect class="cls-1" x="564" y="252" width="73" height="17"/></clipPath><clipPath id="clip-path-83" transform="translate(-1.5 -1.5)"><rect class="cls-1" x="116" y="172" width="157" height="21"/></clipPath><clipPath id="clip-path-86" transform="translate(-1.5 -1.5)"><rect class="cls-1" x="609" y="174" width="151" height="21"/></clipPath><clipPath id="clip-path-89" transform="translate(-1.5 -1.5)"><rect class="cls-1" x="330" y="172" width="228" height="43"/></clipPath><clipPath id="clip-path-92" transform="translate(-1.5 -1.5)"><rect class="cls-1" x="330" y="164" width="169" height="109"/></clipPath></defs><title>201703MySQL_BW</title><g id="Layer_2" data-name="Layer 2"><g id="Layer_1-2" data-name="Layer 1"><g class="cls-2"><path class="cls-3" d="M249,2a8,8,0,0,0-8,8V48a8,8,0,0,0,8,8H601a8,8,0,0,0,8-8V10a8,8,0,0,0-8-8Z" transform="translate(-1.5 -1.5)"/></g><g class="cls-2"><path class="cls-4" d="M249,2a8,8,0,0,0-8,8V48a8,8,0,0,0,8,8H601a8,8,0,0,0,8-8V10a8,8,0,0,0-8-8Z" transform="translate(-1.5 -1.5)"/></g><g class="cls-5"><path d="M286.46,27.95a6.73,6.73,0,0,1-.78,3.23,5.81,5.81,0,0,1-2.07,2.25,6.44,6.44,0,0,1-2,.8,13.82,13.82,0,0,1-2.9.25h-3.3V21.39h3.27a13.31,13.31,0,0,1,3,.28,6.63,6.63,0,0,1,1.91.76,5.84,5.84,0,0,1,2.08,2.22A6.86,6.86,0,0,1,286.46,27.95Zm-1.82,0a5.68,5.68,0,0,0-.54-2.59,3.94,3.94,0,0,0-1.6-1.66,5.43,5.43,0,0,0-1.64-.61,10.94,10.94,0,0,0-2.08-.17h-1.63V33h1.63A11.46,11.46,0,0,0,281,32.8a4.92,4.92,0,0,0,1.72-.69,3.94,3.94,0,0,0,1.46-1.64A5.89,5.89,0,0,0,284.64,27.92Zm12.72,1.82h-7.23a4.18,4.18,0,0,0,.27,1.58,2.92,2.92,0,0,0,1.83,1.74,4.33,4.33,0,0,0,1.38.21,5.47,5.47,0,0,0,2-.4,5,5,0,0,0,1.45-.79h.09v1.8a13.63,13.63,0,0,1-1.71.59,6.92,6.92,0,0,1-1.83.24,5.27,5.27,0,0,1-3.81-1.32,5,5,0,0,1-1.37-3.76,5.4,5.4,0,0,1,1.31-3.82,4.5,4.5,0,0,1,3.46-1.42,4,4,0,0,1,3.06,1.16,4.67,4.67,0,0,1,1.08,3.3Zm-1.61-1.27a2.92,2.92,0,0,0-.65-2,2.52,2.52,0,0,0-2-.71,2.87,2.87,0,0,0-2.11.78,3,3,0,0,0-.89,1.94Zm11.37,5.39a10.66,10.66,0,0,1-1.57.62,5.53,5.53,0,0,1-1.58.22,5.85,5.85,0,0,1-2-.31,4,4,0,0,1-1.52-.94,4.24,4.24,0,0,1-1-1.6,6.6,6.6,0,0,1-.35-2.26,5.22,5.22,0,0,1,1.32-3.78A4.63,4.63,0,0,1,304,24.43a5.88,5.88,0,0,1,1.66.24,8.66,8.66,0,0,1,1.49.58v1.84H307a6.29,6.29,0,0,0-1.56-.91,4.27,4.27,0,0,0-1.57-.32,2.77,2.77,0,0,0-2.22.94,4.14,4.14,0,0,0-.81,2.77,4.15,4.15,0,0,0,.8,2.73,2.75,2.75,0,0,0,2.24,1,4.13,4.13,0,0,0,1-.13,4.46,4.46,0,0,0,.93-.34,7.45,7.45,0,0,0,.68-.39q.32-.21.5-.36h.09ZM311,23h-1.86V21.3H311Zm-.11,11.46h-1.65V24.66h1.65Zm10.28-2.83a2.67,2.67,0,0,1-1.11,2.21,4.84,4.84,0,0,1-3,.86,7.28,7.28,0,0,1-2-.26,8.91,8.91,0,0,1-1.52-.57V32h.09a6.63,6.63,0,0,0,1.74.94,5.39,5.39,0,0,0,1.84.35,3.46,3.46,0,0,0,1.71-.35,1.18,1.18,0,0,0,.62-1.11,1.12,1.12,0,0,0-.33-.88,3,3,0,0,0-1.28-.51l-.92-.18q-.57-.11-1-.23a3.43,3.43,0,0,1-1.83-1,2.5,2.5,0,0,1-.54-1.63,2.67,2.67,0,0,1,.25-1.14,2.76,2.76,0,0,1,.76-1,3.64,3.64,0,0,1,1.25-.65,5.6,5.6,0,0,1,1.7-.24,7.64,7.64,0,0,1,1.78.22,6.71,6.71,0,0,1,1.5.52v1.77h-.09a5.91,5.91,0,0,0-1.54-.79,5.29,5.29,0,0,0-1.78-.32,3.11,3.11,0,0,0-1.53.35,1.22,1.22,0,0,0-.25,1.95,3,3,0,0,0,1.2.5l1,.21.94.19a3.5,3.5,0,0,1,1.78.91A2.38,2.38,0,0,1,321.2,31.65ZM325.34,23h-1.86V21.3h1.86Zm-.11,11.46h-1.65V24.66h1.65Zm11.64-4.9a5.51,5.51,0,0,1-1.23,3.79,4.62,4.62,0,0,1-6.6,0,5.52,5.52,0,0,1-1.23-3.79A5.54,5.54,0,0,1,329,25.78a4.61,4.61,0,0,1,6.6,0A5.53,5.53,0,0,1,336.87,29.57Zm-1.71,0a4.47,4.47,0,0,0-.75-2.83,2.8,2.8,0,0,0-4.16,0,4.49,4.49,0,0,0-.74,2.83,4.47,4.47,0,0,0,.75,2.8,2.75,2.75,0,0,0,4.15,0A4.45,4.45,0,0,0,335.16,29.57Zm12.47,4.9H346V28.89a9.62,9.62,0,0,0-.08-1.27,2.32,2.32,0,0,0-.29-.93,1.34,1.34,0,0,0-.63-.55,2.71,2.71,0,0,0-1.07-.18,3.43,3.43,0,0,0-1.42.33,7.21,7.21,0,0,0-1.42.85v7.33h-1.65V24.66h1.65v1.09a6.72,6.72,0,0,1,1.6-1,4.2,4.2,0,0,1,1.7-.36,3,3,0,0,1,2.43,1,4.08,4.08,0,0,1,.83,2.76Zm21.3,0h-1.74V23.2l-3.64,7.67h-1L358.9,23.2V34.48h-1.63V21.39h2.37l3.49,7.29,3.38-7.29h2.42Zm11,0H378.3v-1l-.59.42a4.23,4.23,0,0,1-.73.43,4.91,4.91,0,0,1-.95.34,5.14,5.14,0,0,1-1.26.14,3.14,3.14,0,0,1-2.25-.88,3,3,0,0,1-.92-2.24,3.1,3.1,0,0,1,.48-1.81,3.2,3.2,0,0,1,1.37-1.09,7.37,7.37,0,0,1,2.15-.54q1.26-.14,2.7-.21v-.25a2,2,0,0,0-.2-.93,1.44,1.44,0,0,0-.57-.58,2.35,2.35,0,0,0-.84-.27,7.27,7.27,0,0,0-1-.07,7,7,0,0,0-1.45.17,11.27,11.27,0,0,0-1.65.5h-.09V24.87q.48-.13,1.4-.29a10.55,10.55,0,0,1,1.8-.16,8.38,8.38,0,0,1,1.81.17,3.51,3.51,0,0,1,1.33.58,2.59,2.59,0,0,1,.84,1,3.86,3.86,0,0,1,.29,1.59Zm-1.64-2.42V29.33l-1.78.13a9.21,9.21,0,0,0-1.62.25,2.66,2.66,0,0,0-1.15.63,1.81,1.81,0,0,0,.07,2.44,2.39,2.39,0,0,0,1.56.43,3.7,3.7,0,0,0,1.59-.34A7.16,7.16,0,0,0,378.3,32.06ZM392,34.48h-2.18l-3.94-4.3-1.07,1v3.28h-1.65V20.8h1.65v8.77l4.77-4.91h2.08l-4.56,4.54ZM395.55,23h-1.86V21.3h1.86Zm-.11,11.46h-1.65V24.66h1.65Zm11.48,0h-1.65V28.89a9.62,9.62,0,0,0-.08-1.27,2.32,2.32,0,0,0-.29-.93,1.34,1.34,0,0,0-.63-.55A2.71,2.71,0,0,0,403.2,26a3.43,3.43,0,0,0-1.42.33,7.21,7.21,0,0,0-1.42.85v7.33h-1.65V24.66h1.65v1.09a6.72,6.72,0,0,1,1.6-1,4.2,4.2,0,0,1,1.7-.36,3,3,0,0,1,2.43,1,4.08,4.08,0,0,1,.83,2.76Zm11.14-1.12A5.1,5.1,0,0,1,416.94,37a4.66,4.66,0,0,1-3.49,1.17,10.41,10.41,0,0,1-1.52-.11,11.82,11.82,0,0,1-1.46-.31V36.09h.09a13,13,0,0,0,1.28.39,6.84,6.84,0,0,0,1.76.23,4.12,4.12,0,0,0,1.4-.2,2,2,0,0,0,1.3-1.39,4.11,4.11,0,0,0,.13-1.08v-.9A6.38,6.38,0,0,1,415,34a4.4,4.4,0,0,1-1.74.29,3.41,3.41,0,0,1-2.79-1.27,5.54,5.54,0,0,1-1-3.58,6,6,0,0,1,.36-2.18,5,5,0,0,1,1-1.59,4,4,0,0,1,1.39-1,4.13,4.13,0,0,1,1.63-.35,5.08,5.08,0,0,1,1.43.17,6.29,6.29,0,0,1,1.22.52l.11-.42h1.55Zm-1.65-1.58V26.43a6.4,6.4,0,0,0-1.23-.43,5.14,5.14,0,0,0-1.13-.13,2.67,2.67,0,0,0-2.14.91,4,4,0,0,0-.78,2.65,4.46,4.46,0,0,0,.58,2.5,2.16,2.16,0,0,0,1.92.85,4,4,0,0,0,1.45-.28A5.24,5.24,0,0,0,416.42,31.78Zm23,2.7h-1.74V23.2l-3.64,7.67h-1l-3.61-7.67V34.48h-1.63V21.39h2.37l3.49,7.29L437,21.39h2.42Zm11.87-9.82L445.58,38.1h-1.77l1.83-4.1-3.91-9.34h1.79l3,7.28,3-7.28Zm11.8,6.08a3.48,3.48,0,0,1-.36,1.51,3.6,3.6,0,0,1-1,1.27,5.33,5.33,0,0,1-1.64.88,7.08,7.08,0,0,1-2.25.32,11.22,11.22,0,0,1-2.54-.26,12.92,12.92,0,0,1-2.3-.78V31.49h.12a7.23,7.23,0,0,0,2.29,1.27,7.52,7.52,0,0,0,2.44.45,4.48,4.48,0,0,0,2.52-.61,1.86,1.86,0,0,0,.9-1.62,1.72,1.72,0,0,0-.43-1.28,2.9,2.9,0,0,0-1.3-.64,12.92,12.92,0,0,0-1.43-.29q-.77-.11-1.63-.29a4.82,4.82,0,0,1-2.58-1.26,3.44,3.44,0,0,1,.55-5A5.68,5.68,0,0,1,458,21.15a11.34,11.34,0,0,1,2.53.26,11.6,11.6,0,0,1,2,.65v2.06h-.12a6,6,0,0,0-2-1.05,7.63,7.63,0,0,0-2.49-.42,3.91,3.91,0,0,0-2.25.58,1.75,1.75,0,0,0-.85,1.49,1.84,1.84,0,0,0,.42,1.28,2.85,2.85,0,0,0,1.49.71q.56.12,1.6.3t1.76.36a4.55,4.55,0,0,1,2.2,1.17A3.06,3.06,0,0,1,463.11,30.74Zm14.47,6.94a7.88,7.88,0,0,1-1,.19,9.51,9.51,0,0,1-1.05.06,3.52,3.52,0,0,1-2.46-.84,3.32,3.32,0,0,1-1-2.4l-.41,0h-.38a6.63,6.63,0,0,1-2.51-.46A5.19,5.19,0,0,1,466.8,33a6,6,0,0,1-1.22-2.14,10,10,0,0,1,0-5.76,6.11,6.11,0,0,1,1.23-2.18,5,5,0,0,1,1.92-1.32,6.69,6.69,0,0,1,2.5-.46,6.58,6.58,0,0,1,2.53.46,5.26,5.26,0,0,1,1.9,1.31A6,6,0,0,1,476.89,25a9.09,9.09,0,0,1,.43,2.89,7.77,7.77,0,0,1-1,4,5.31,5.31,0,0,1-2.63,2.3,2.6,2.6,0,0,0,.47,1.56,2,2,0,0,0,1.6.55,4.05,4.05,0,0,0,.86-.11,4.67,4.67,0,0,0,.71-.2h.24Zm-2.07-9.75A6,6,0,0,0,474.36,24a4.22,4.22,0,0,0-6.25,0A6,6,0,0,0,467,27.94a5.93,5.93,0,0,0,1.16,3.94,4.22,4.22,0,0,0,6.22,0A6,6,0,0,0,475.51,27.94Zm12.85,6.54h-8.28V21.39h1.74V32.93h6.54Zm15-2.83a2.67,2.67,0,0,1-1.11,2.21,4.84,4.84,0,0,1-3,.86,7.28,7.28,0,0,1-2-.26,8.91,8.91,0,0,1-1.52-.57V32h.09a6.63,6.63,0,0,0,1.74.94,5.39,5.39,0,0,0,1.84.35A3.46,3.46,0,0,0,501,33a1.18,1.18,0,0,0,.62-1.11,1.12,1.12,0,0,0-.33-.88,3,3,0,0,0-1.28-.51l-.92-.18q-.57-.11-1-.23a3.43,3.43,0,0,1-1.83-1,2.5,2.5,0,0,1-.54-1.63,2.67,2.67,0,0,1,.25-1.14,2.76,2.76,0,0,1,.76-1,3.64,3.64,0,0,1,1.25-.65,5.6,5.6,0,0,1,1.7-.24,7.64,7.64,0,0,1,1.78.22,6.71,6.71,0,0,1,1.5.52v1.77h-.09a5.91,5.91,0,0,0-1.54-.79,5.29,5.29,0,0,0-1.78-.32,3.11,3.11,0,0,0-1.53.35,1.22,1.22,0,0,0-.25,1.95,3,3,0,0,0,1.2.5l1,.21.94.19a3.5,3.5,0,0,1,1.78.91A2.38,2.38,0,0,1,503.31,31.65Zm7.46,2.74a9,9,0,0,1-1,.2,7,7,0,0,1-1,.08,3,3,0,0,1-2.29-.81,3.63,3.63,0,0,1-.78-2.59V26.05h-1.12V24.66h1.12V21.84h1.65v2.82h3.41v1.39h-3.41v4.47q0,.77,0,1.21a2,2,0,0,0,.25.81,1.19,1.19,0,0,0,.53.51,2.5,2.5,0,0,0,1,.16,3.23,3.23,0,0,0,.84-.12,6,6,0,0,0,.63-.2h.09Zm8.12-7.93h-.09a6.05,6.05,0,0,0-.72-.13,7.38,7.38,0,0,0-.82,0,3.4,3.4,0,0,0-1.48.34,6.8,6.8,0,0,0-1.37.87v7h-1.65V24.66h1.65v1.45A8.11,8.11,0,0,1,516.15,25a3.78,3.78,0,0,1,1.53-.33,6.21,6.21,0,0,1,.62,0l.58.08Zm9.69,8h-1.65V33.39a8,8,0,0,1-1.6,1,4,4,0,0,1-1.69.35,3.09,3.09,0,0,1-2.41-.94,4,4,0,0,1-.86-2.77V24.66H522v5.59a9.94,9.94,0,0,0,.07,1.28,2.33,2.33,0,0,0,.3.91A1.42,1.42,0,0,0,523,33a2.69,2.69,0,0,0,1.1.18,3.51,3.51,0,0,0,1.4-.33,6.55,6.55,0,0,0,1.42-.85V24.66h1.65Zm10.51-.62a10.66,10.66,0,0,1-1.57.62,5.53,5.53,0,0,1-1.58.22,5.85,5.85,0,0,1-2-.31,4,4,0,0,1-1.52-.94,4.24,4.24,0,0,1-1-1.6,6.6,6.6,0,0,1-.35-2.26,5.22,5.22,0,0,1,1.32-3.78,4.63,4.63,0,0,1,3.49-1.37,5.88,5.88,0,0,1,1.66.24,8.66,8.66,0,0,1,1.49.58v1.84H539a6.29,6.29,0,0,0-1.56-.91,4.27,4.27,0,0,0-1.57-.32,2.77,2.77,0,0,0-2.22.94,4.14,4.14,0,0,0-.81,2.77,4.15,4.15,0,0,0,.8,2.73,2.75,2.75,0,0,0,2.24,1,4.13,4.13,0,0,0,1-.13,4.46,4.46,0,0,0,.93-.34,7.45,7.45,0,0,0,.68-.39q.32-.21.5-.36h.09Zm7.22.53a9,9,0,0,1-1,.2,7,7,0,0,1-1,.08,3,3,0,0,1-2.29-.81,3.63,3.63,0,0,1-.78-2.59V26.05h-1.12V24.66h1.12V21.84h1.65v2.82h3.41v1.39H542.9v4.47q0,.77,0,1.21a2,2,0,0,0,.25.81,1.19,1.19,0,0,0,.53.51,2.5,2.5,0,0,0,1,.16,3.23,3.23,0,0,0,.84-.12,6,6,0,0,0,.63-.2h.09Zm10.13.09h-1.65V33.39a8,8,0,0,1-1.6,1,4,4,0,0,1-1.69.35,3.09,3.09,0,0,1-2.41-.94,4,4,0,0,1-.86-2.77V24.66h1.65v5.59a9.94,9.94,0,0,0,.07,1.28,2.33,2.33,0,0,0,.3.91,1.42,1.42,0,0,0,.62.56,2.69,2.69,0,0,0,1.1.18,3.51,3.51,0,0,0,1.4-.33,6.55,6.55,0,0,0,1.42-.85V24.66h1.65Zm9.38-8h-.09a6.05,6.05,0,0,0-.72-.13,7.38,7.38,0,0,0-.82,0,3.4,3.4,0,0,0-1.48.34,6.8,6.8,0,0,0-1.37.87v7H559.7V24.66h1.65v1.45A8.11,8.11,0,0,1,563.08,25a3.78,3.78,0,0,1,1.53-.33,6.21,6.21,0,0,1,.62,0l.58.08Zm9.77,3.28h-7.23a4.18,4.18,0,0,0,.27,1.58,2.92,2.92,0,0,0,1.83,1.74,4.33,4.33,0,0,0,1.38.21,5.47,5.47,0,0,0,2-.4,5,5,0,0,0,1.45-.79h.09v1.8a13.63,13.63,0,0,1-1.71.59,6.92,6.92,0,0,1-1.83.24,5.27,5.27,0,0,1-3.81-1.32,5,5,0,0,1-1.37-3.76A5.4,5.4,0,0,1,568,25.8a4.5,4.5,0,0,1,3.46-1.42,4,4,0,0,1,3.06,1.16,4.67,4.67,0,0,1,1.08,3.3ZM574,28.48a2.92,2.92,0,0,0-.65-2,2.52,2.52,0,0,0-2-.71,2.87,2.87,0,0,0-2.11.78,3,3,0,0,0-.89,1.94Z" transform="translate(-1.5 -1.5)"/></g><g class="cls-6"><path class="cls-4" d="M42,157v14a4,4,0,0,0,4,4h5" transform="translate(-1.5 -1.5)"/></g><g class="cls-6"><path class="cls-4" d="M42,157v36a4,4,0,0,0,4,4h5" transform="translate(-1.5 -1.5)"/></g><g class="cls-7"><path class="cls-4" d="M42,144v13" transform="translate(-1.5 -1.5)"/></g><g class="cls-8"><path class="cls-9" d="M2,112v32H82V112Z" transform="translate(-1.5 -1.5)"/></g><g class="cls-8"><path class="cls-4" d="M2,112v32H82V112Z" transform="translate(-1.5 -1.5)"/></g><g class="cls-10"><path d="M22.7,125.32a3.05,3.05,0,0,1-.22,1.16,2.79,2.79,0,0,1-.61.93,3.14,3.14,0,0,1-1.16.73,4.94,4.94,0,0,1-1.68.24H17.77v3.52H16.51v-9.45h2.56a6.22,6.22,0,0,1,1.44.14,3.25,3.25,0,0,1,1,.45,2.55,2.55,0,0,1,.83.9A2.82,2.82,0,0,1,22.7,125.32Zm-1.31,0a2,2,0,0,0-.17-.85,1.43,1.43,0,0,0-.52-.59,2.1,2.1,0,0,0-.7-.28,4.72,4.72,0,0,0-1-.09H17.77v3.78h1.06a4.61,4.61,0,0,0,1.24-.14,1.75,1.75,0,0,0,.77-.43,1.82,1.82,0,0,0,.42-.64A2.18,2.18,0,0,0,21.39,125.35Zm7.45.77h-.06a4.37,4.37,0,0,0-.52-.09,5.33,5.33,0,0,0-.59,0,2.46,2.46,0,0,0-1.07.24,4.91,4.91,0,0,0-1,.63v5H24.42v-7.09h1.19v1a5.85,5.85,0,0,1,1.25-.81,2.73,2.73,0,0,1,1.11-.24l.45,0,.42.06Zm7.62,2.25a4,4,0,0,1-.89,2.74,3.34,3.34,0,0,1-4.77,0,4.67,4.67,0,0,1,0-5.47,3.33,3.33,0,0,1,4.77,0A4,4,0,0,1,36.46,128.37Zm-1.23,0a3.23,3.23,0,0,0-.54-2,2,2,0,0,0-3,0,4.12,4.12,0,0,0,0,4.07,2,2,0,0,0,3,0A3.21,3.21,0,0,0,35.23,128.37Zm5.4-4.74H39.28V122.4h1.35Zm-.08,8.45a2.55,2.55,0,0,1-.63,1.88,2.3,2.3,0,0,1-1.7.63,5.79,5.79,0,0,1-.67-.05,5,5,0,0,1-.7-.13v-1.14h.06l.48.16a2.07,2.07,0,0,0,.59.09,1.8,1.8,0,0,0,.74-.13.88.88,0,0,0,.42-.38,1.65,1.65,0,0,0,.18-.61,7.81,7.81,0,0,0,0-.87v-5.71H37.88v-1h2.67Zm7.8-3.59H43.13a3,3,0,0,0,.2,1.14,2.11,2.11,0,0,0,1.32,1.25,3.13,3.13,0,0,0,1,.15,4,4,0,0,0,1.46-.29,3.59,3.59,0,0,0,1-.57h.06v1.3a9.84,9.84,0,0,1-1.23.43,5,5,0,0,1-1.32.17,3.8,3.8,0,0,1-2.75-1,3.6,3.6,0,0,1-1-2.71,3.9,3.9,0,0,1,.95-2.76,3.25,3.25,0,0,1,2.5-1,2.87,2.87,0,0,1,2.21.84,3.37,3.37,0,0,1,.78,2.38Zm-1.16-.91a2.11,2.11,0,0,0-.47-1.45,1.82,1.82,0,0,0-1.42-.51,2.07,2.07,0,0,0-1.53.56,2.19,2.19,0,0,0-.64,1.4Zm8.47,3.89a7.7,7.7,0,0,1-1.13.44,4,4,0,0,1-1.14.16,4.22,4.22,0,0,1-1.41-.23,2.88,2.88,0,0,1-1.1-.68,3.06,3.06,0,0,1-.72-1.16,4.77,4.77,0,0,1-.25-1.63,3.77,3.77,0,0,1,1-2.73,3.35,3.35,0,0,1,2.52-1,4.25,4.25,0,0,1,1.2.17,6.26,6.26,0,0,1,1.08.42v1.33H55.6a4.54,4.54,0,0,0-1.13-.65,3.08,3.08,0,0,0-1.13-.23,2,2,0,0,0-1.6.68,3.69,3.69,0,0,0,0,4,2,2,0,0,0,1.62.69,3,3,0,0,0,.74-.1,3.22,3.22,0,0,0,.67-.25,5.38,5.38,0,0,0,.49-.28l.36-.26h.06Zm5.44.38a6.51,6.51,0,0,1-.73.15,5,5,0,0,1-.71.06,2.19,2.19,0,0,1-1.65-.58,2.62,2.62,0,0,1-.56-1.87v-3.77h-.81v-1h.81v-2h1.19v2H61.1v1H58.64v3.23q0,.56,0,.87a1.43,1.43,0,0,0,.18.59.86.86,0,0,0,.38.37A1.8,1.8,0,0,0,60,131a2.34,2.34,0,0,0,.61-.09l.46-.14h.06Zm6.38-2a1.93,1.93,0,0,1-.8,1.59,3.5,3.5,0,0,1-2.19.62A5.26,5.26,0,0,1,63,131.9a6.44,6.44,0,0,1-1.1-.41v-1.34H62a4.79,4.79,0,0,0,1.26.68,3.89,3.89,0,0,0,1.33.25,2.5,2.5,0,0,0,1.23-.25.86.86,0,0,0,.44-.8.81.81,0,0,0-.24-.63,2.17,2.17,0,0,0-.93-.37l-.66-.13-.75-.17a2.48,2.48,0,0,1-1.32-.73,1.8,1.8,0,0,1-.39-1.18,1.93,1.93,0,0,1,.18-.83,2,2,0,0,1,.55-.69,2.63,2.63,0,0,1,.9-.47,4,4,0,0,1,1.23-.17,5.52,5.52,0,0,1,1.29.16,4.85,4.85,0,0,1,1.08.38v1.28h-.06a4.27,4.27,0,0,0-1.11-.57,3.82,3.82,0,0,0-1.28-.23,2.24,2.24,0,0,0-1.1.25.88.88,0,0,0-.18,1.41,2.13,2.13,0,0,0,.86.36l.74.15.68.14a2.53,2.53,0,0,1,1.28.65A1.72,1.72,0,0,1,67.49,129.87Z" transform="translate(-1.5 -1.5)"/></g><g class="cls-11"><path class="cls-12" d="M46.5,151a4.5,4.5,0,1,0-4.5,4.5A4.5,4.5,0,0,0,46.5,151Z" transform="translate(-1.5 -1.5)"/></g><g class="cls-11"><path class="cls-4" d="M46.5,151a4.5,4.5,0,1,0-4.5,4.5A4.5,4.5,0,0,0,46.5,151Z" transform="translate(-1.5 -1.5)"/></g><g class="cls-11"><path class="cls-13" d="M40,151h4" transform="translate(-1.5 -1.5)"/></g><g class="cls-14"><path class="cls-4" d="M51,166v18h67V166Z" transform="translate(-1.5 -1.5)"/></g><g class="cls-15"><path d="M67.18,173.05a2.35,2.35,0,0,1-.17.9,2.15,2.15,0,0,1-.47.72,2.42,2.42,0,0,1-.89.56,3.8,3.8,0,0,1-1.29.19h-1v2.71h-1v-7.27h2a4.79,4.79,0,0,1,1.11.11,2.5,2.5,0,0,1,.81.34A2,2,0,0,1,67,172,2.17,2.17,0,0,1,67.18,173.05Zm-1,0a1.51,1.51,0,0,0-.13-.65,1.1,1.1,0,0,0-.4-.45,1.61,1.61,0,0,0-.53-.22,3.63,3.63,0,0,0-.76-.07h-1v2.91h.82a3.55,3.55,0,0,0,1-.1,1.35,1.35,0,0,0,.6-.33,1.4,1.4,0,0,0,.32-.49A1.67,1.67,0,0,0,66.18,173.08Zm5.58.6h0l-.4-.07-.46,0a1.89,1.89,0,0,0-.82.19,3.78,3.78,0,0,0-.76.49v3.87h-.92v-5.45h.92v.81a4.5,4.5,0,0,1,1-.62,2.1,2.1,0,0,1,.85-.18h.35l.32,0ZM77,175.4a3.06,3.06,0,0,1-.68,2.1,2.57,2.57,0,0,1-3.67,0,3.6,3.6,0,0,1,0-4.21,2.56,2.56,0,0,1,3.67,0A3.07,3.07,0,0,1,77,175.4Zm-.95,0a2.48,2.48,0,0,0-.42-1.57,1.55,1.55,0,0,0-2.31,0,3.17,3.17,0,0,0,0,3.13,1.53,1.53,0,0,0,2.31,0A2.47,2.47,0,0,0,76.06,175.4Zm4-3.64H79v-1h1Zm-.06,6.5a2,2,0,0,1-.49,1.45,1.77,1.77,0,0,1-1.31.49l-.52,0a3.85,3.85,0,0,1-.53-.1v-.87h0l.37.12a1.59,1.59,0,0,0,.45.07,1.38,1.38,0,0,0,.57-.1.67.67,0,0,0,.32-.29,1.27,1.27,0,0,0,.14-.47,6,6,0,0,0,0-.67v-4.39H77.94v-.77H80Zm5.92-2.76h-4a2.32,2.32,0,0,0,.15.88,1.62,1.62,0,0,0,1,1,2.4,2.4,0,0,0,.77.12,3,3,0,0,0,1.12-.22,2.76,2.76,0,0,0,.8-.44h0v1a7.57,7.57,0,0,1-.95.33,3.84,3.84,0,0,1-1,.13,2.93,2.93,0,0,1-2.12-.73,2.77,2.77,0,0,1-.76-2.09,3,3,0,0,1,.73-2.12,2.5,2.5,0,0,1,1.92-.79,2.21,2.21,0,0,1,1.7.64,2.59,2.59,0,0,1,.6,1.83Zm-.89-.7a1.62,1.62,0,0,0-.36-1.12,1.4,1.4,0,0,0-1.09-.4,1.59,1.59,0,0,0-1.17.43,1.69,1.69,0,0,0-.5,1.08Zm6.36,3a5.92,5.92,0,0,1-.87.34,3.07,3.07,0,0,1-.88.12,3.25,3.25,0,0,1-1.08-.17,2.22,2.22,0,0,1-.84-.52,2.36,2.36,0,0,1-.55-.89,3.67,3.67,0,0,1-.2-1.25,2.9,2.9,0,0,1,.73-2.1,2.57,2.57,0,0,1,1.94-.76,3.27,3.27,0,0,1,.92.13,4.81,4.81,0,0,1,.83.32v1h0a3.49,3.49,0,0,0-.87-.5,2.37,2.37,0,0,0-.87-.18,1.54,1.54,0,0,0-1.23.52,2.84,2.84,0,0,0,0,3.06,1.53,1.53,0,0,0,1.24.53,2.29,2.29,0,0,0,.57-.07,2.48,2.48,0,0,0,.52-.19l.38-.22.28-.2h0Zm3.8.29a5,5,0,0,1-.56.11,3.86,3.86,0,0,1-.54,0,1.69,1.69,0,0,1-1.27-.45,2,2,0,0,1-.43-1.44v-2.9h-.62v-.77h.62v-1.57h.92v1.57h1.89v.77H93.29v2.49q0,.43,0,.67a1.1,1.1,0,0,0,.14.45.66.66,0,0,0,.3.29,1.39,1.39,0,0,0,.57.09,1.8,1.8,0,0,0,.47-.07l.35-.11h0Zm3.8,0H96.12v-.74h1V171.6h-1v-.74H99v.74H98v5.79h1Zm7.58-3.63a3.74,3.74,0,0,1-.43,1.8,3.23,3.23,0,0,1-1.15,1.25,3.58,3.58,0,0,1-1.11.44,7.68,7.68,0,0,1-1.61.14h-1.84v-7.27h1.82a7.4,7.4,0,0,1,1.69.15,3.68,3.68,0,0,1,1.06.42,3.25,3.25,0,0,1,1.16,1.24A3.81,3.81,0,0,1,106.57,174.5Zm-1,0a3.15,3.15,0,0,0-.3-1.44,2.19,2.19,0,0,0-.89-.92,3,3,0,0,0-.91-.34,6.08,6.08,0,0,0-1.16-.1h-.91v5.61h.91a6.37,6.37,0,0,0,1.22-.1,2.73,2.73,0,0,0,1-.38,2.19,2.19,0,0,0,.81-.91A3.27,3.27,0,0,0,105.56,174.48Z" transform="translate(-1.5 -1.5)"/></g><g class="cls-16"><path class="cls-4" d="M51,188v18h84V188Z" transform="translate(-1.5 -1.5)"/></g><g class="cls-17"><path d="M67,195.05a2.35,2.35,0,0,1-.17.9,2.15,2.15,0,0,1-.47.72,2.42,2.42,0,0,1-.89.56,3.8,3.8,0,0,1-1.29.19h-1v2.71h-1v-7.27h2a4.79,4.79,0,0,1,1.11.11,2.5,2.5,0,0,1,.81.34,2,2,0,0,1,.64.69A2.17,2.17,0,0,1,67,195.05Zm-1,0a1.51,1.51,0,0,0-.13-.65,1.1,1.1,0,0,0-.4-.45,1.61,1.61,0,0,0-.53-.22,3.63,3.63,0,0,0-.76-.07h-1v2.91H64a3.55,3.55,0,0,0,1-.1,1.35,1.35,0,0,0,.6-.33,1.4,1.4,0,0,0,.32-.49A1.67,1.67,0,0,0,66,195.08Zm5.58.6h0l-.4-.07-.46,0a1.89,1.89,0,0,0-.82.19,3.78,3.78,0,0,0-.76.49v3.87h-.92v-5.45h.92v.81a4.5,4.5,0,0,1,1-.62,2.1,2.1,0,0,1,.85-.18h.35l.32,0Zm5.25,1.73a3.06,3.06,0,0,1-.68,2.1,2.57,2.57,0,0,1-3.67,0,3.6,3.6,0,0,1,0-4.21,2.56,2.56,0,0,1,3.67,0A3.07,3.07,0,0,1,76.83,197.4Zm-.95,0a2.48,2.48,0,0,0-.42-1.57,1.55,1.55,0,0,0-2.31,0,3.17,3.17,0,0,0,0,3.13,1.53,1.53,0,0,0,2.31,0A2.47,2.47,0,0,0,75.88,197.4Zm4-3.64h-1v-1h1Zm-.06,6.5a2,2,0,0,1-.49,1.45,1.77,1.77,0,0,1-1.31.49l-.52,0a3.85,3.85,0,0,1-.53-.1v-.87h0l.37.12a1.59,1.59,0,0,0,.45.07,1.38,1.38,0,0,0,.57-.1.67.67,0,0,0,.32-.29,1.27,1.27,0,0,0,.14-.47,6,6,0,0,0,0-.67v-4.39H77.77v-.77h2.06Zm5.92-2.76h-4a2.32,2.32,0,0,0,.15.88,1.62,1.62,0,0,0,1,1,2.4,2.4,0,0,0,.77.12,3,3,0,0,0,1.12-.22,2.76,2.76,0,0,0,.8-.44h0v1a7.57,7.57,0,0,1-.95.33,3.84,3.84,0,0,1-1,.13,2.93,2.93,0,0,1-2.12-.73,2.77,2.77,0,0,1-.76-2.09,3,3,0,0,1,.73-2.12,2.5,2.5,0,0,1,1.92-.79,2.21,2.21,0,0,1,1.7.64,2.59,2.59,0,0,1,.6,1.83Zm-.89-.7a1.62,1.62,0,0,0-.36-1.12,1.4,1.4,0,0,0-1.09-.4,1.59,1.59,0,0,0-1.17.43,1.69,1.69,0,0,0-.5,1.08Zm6.36,3a5.92,5.92,0,0,1-.87.34,3.07,3.07,0,0,1-.88.12,3.25,3.25,0,0,1-1.08-.17,2.22,2.22,0,0,1-.84-.52,2.36,2.36,0,0,1-.55-.89,3.67,3.67,0,0,1-.2-1.25,2.9,2.9,0,0,1,.73-2.1,2.57,2.57,0,0,1,1.94-.76,3.27,3.27,0,0,1,.92.13,4.81,4.81,0,0,1,.83.32v1h0a3.49,3.49,0,0,0-.87-.5,2.37,2.37,0,0,0-.87-.18,1.54,1.54,0,0,0-1.23.52,2.84,2.84,0,0,0,0,3.06,1.53,1.53,0,0,0,1.24.53,2.29,2.29,0,0,0,.57-.07,2.48,2.48,0,0,0,.52-.19l.38-.22.28-.2h0Zm3.8.29a5,5,0,0,1-.56.11,3.86,3.86,0,0,1-.54,0,1.69,1.69,0,0,1-1.27-.45,2,2,0,0,1-.43-1.44v-2.9h-.62v-.77h.62v-1.57h.92v1.57H95v.77H93.12v2.49q0,.43,0,.67a1.1,1.1,0,0,0,.14.45.66.66,0,0,0,.3.29,1.39,1.39,0,0,0,.57.09,1.8,1.8,0,0,0,.47-.07l.35-.11h0Zm6.79,0h-1.2l-3.45-6.5v6.5h-.9v-7.27h1.5l3.14,5.94v-5.94h.9Zm5.62,0h-.91v-.58l-.33.23a2.35,2.35,0,0,1-.4.24,2.73,2.73,0,0,1-.53.19,2.86,2.86,0,0,1-.7.08,1.75,1.75,0,0,1-1.25-.49,1.64,1.64,0,0,1-.51-1.25,1.72,1.72,0,0,1,.27-1,1.78,1.78,0,0,1,.76-.6,4.1,4.1,0,0,1,1.2-.3q.7-.08,1.5-.12v-.14a1.09,1.09,0,0,0-.11-.52.8.8,0,0,0-.31-.32,1.3,1.3,0,0,0-.47-.15,4,4,0,0,0-.57,0,3.88,3.88,0,0,0-.81.1,6.26,6.26,0,0,0-.92.28h0v-.93q.27-.07.78-.16a5.86,5.86,0,0,1,1-.09,4.66,4.66,0,0,1,1,.1,2,2,0,0,1,.74.32,1.44,1.44,0,0,1,.47.58,2.14,2.14,0,0,1,.16.88Zm-.91-1.34v-1.52l-1,.07a5.12,5.12,0,0,0-.9.14,1.48,1.48,0,0,0-.64.35,1,1,0,0,0,0,1.36,1.33,1.33,0,0,0,.86.24,2.05,2.05,0,0,0,.88-.19A4,4,0,0,0,106.51,198.78Zm10.63,1.34h-.92V197q0-.35,0-.68a1.43,1.43,0,0,0-.13-.52.74.74,0,0,0-.32-.32,1.36,1.36,0,0,0-.61-.11,1.71,1.71,0,0,0-.77.19,4.72,4.72,0,0,0-.77.49q0,.11,0,.26t0,.3v3.49h-.92V197q0-.36,0-.69a1.43,1.43,0,0,0-.13-.52.73.73,0,0,0-.32-.31,1.39,1.39,0,0,0-.61-.1,1.7,1.7,0,0,0-.75.19,4.51,4.51,0,0,0-.75.47v4.07h-.92v-5.45h.92v.61a4,4,0,0,1,.86-.56,2.12,2.12,0,0,1,.91-.2,1.8,1.8,0,0,1,.94.23,1.45,1.45,0,0,1,.58.65,4.54,4.54,0,0,1,1-.68,2.35,2.35,0,0,1,1-.21,1.58,1.58,0,0,1,1.33.54,2.41,2.41,0,0,1,.43,1.52Zm6.61-2.63h-4a2.32,2.32,0,0,0,.15.88,1.62,1.62,0,0,0,1,1,2.4,2.4,0,0,0,.77.12,3,3,0,0,0,1.12-.22,2.76,2.76,0,0,0,.8-.44h0v1a7.57,7.57,0,0,1-.95.33,3.84,3.84,0,0,1-1,.13,2.93,2.93,0,0,1-2.12-.73,2.77,2.77,0,0,1-.76-2.09,3,3,0,0,1,.73-2.12,2.5,2.5,0,0,1,1.92-.79,2.21,2.21,0,0,1,1.7.64,2.59,2.59,0,0,1,.6,1.83Zm-.89-.7a1.62,1.62,0,0,0-.36-1.12,1.4,1.4,0,0,0-1.09-.4,1.59,1.59,0,0,0-1.17.43,1.69,1.69,0,0,0-.5,1.08Z" transform="translate(-1.5 -1.5)"/></g><g class="cls-18"><path class="cls-4" d="M748.65,157v14a4,4,0,0,0,4,4H758" transform="translate(-1.5 -1.5)"/></g><g class="cls-18"><path class="cls-4" d="M748.65,157v36a4,4,0,0,0,4,4H758" transform="translate(-1.5 -1.5)"/></g><g class="cls-19"><path class="cls-4" d="M748.58,144l.07,13" transform="translate(-1.5 -1.5)"/></g><g class="cls-20"><path class="cls-9" d="M716,112v32h65V112Z" transform="translate(-1.5 -1.5)"/></g><g class="cls-20"><path class="cls-4" d="M716,112v32h65V112Z" transform="translate(-1.5 -1.5)"/></g><g class="cls-21"><path d="M737.7,129.33a6.37,6.37,0,0,1-.23,1.79,2.91,2.91,0,0,1-.74,1.27,3,3,0,0,1-1.14.7,4.74,4.74,0,0,1-1.52.22,4.62,4.62,0,0,1-1.55-.23,2.9,2.9,0,0,1-1.11-.69,3,3,0,0,1-.74-1.26,6.25,6.25,0,0,1-.23-1.81v-5.66h1.26v5.72a5.52,5.52,0,0,0,.1,1.21,2.38,2.38,0,0,0,.35.81,1.73,1.73,0,0,0,.76.62,2.87,2.87,0,0,0,1.15.21,2.9,2.9,0,0,0,1.16-.21,1.74,1.74,0,0,0,.76-.63,2.37,2.37,0,0,0,.35-.83,5.4,5.4,0,0,0,.1-1.16v-5.75h1.26Zm7.85,1.75a1.93,1.93,0,0,1-.8,1.59,3.5,3.5,0,0,1-2.19.62,5.26,5.26,0,0,1-1.44-.19,6.44,6.44,0,0,1-1.1-.41v-1.34h.06a4.79,4.79,0,0,0,1.26.68,3.89,3.89,0,0,0,1.33.25,2.5,2.5,0,0,0,1.23-.25.86.86,0,0,0,.44-.8.81.81,0,0,0-.24-.63,2.17,2.17,0,0,0-.93-.37l-.66-.13-.75-.17a2.48,2.48,0,0,1-1.32-.73A1.8,1.8,0,0,1,740,128a1.93,1.93,0,0,1,.18-.83,2,2,0,0,1,.55-.69,2.63,2.63,0,0,1,.9-.47,4,4,0,0,1,1.23-.17,5.52,5.52,0,0,1,1.29.16,4.85,4.85,0,0,1,1.08.38v1.28h-.06a4.27,4.27,0,0,0-1.11-.57,3.82,3.82,0,0,0-1.28-.23,2.24,2.24,0,0,0-1.1.25.88.88,0,0,0-.18,1.41,2.13,2.13,0,0,0,.86.36l.74.15.68.14a2.53,2.53,0,0,1,1.28.65A1.72,1.72,0,0,1,745.55,131.08Zm7.87-1.38H748.2a3,3,0,0,0,.2,1.14,2.11,2.11,0,0,0,1.32,1.25,3.13,3.13,0,0,0,1,.15,4,4,0,0,0,1.46-.29,3.59,3.59,0,0,0,1-.57h.06v1.3a9.84,9.84,0,0,1-1.23.43,5,5,0,0,1-1.32.17,3.8,3.8,0,0,1-2.75-1,3.6,3.6,0,0,1-1-2.71,3.9,3.9,0,0,1,.95-2.76,3.25,3.25,0,0,1,2.5-1,2.87,2.87,0,0,1,2.21.84,3.37,3.37,0,0,1,.78,2.38Zm-1.16-.91a2.11,2.11,0,0,0-.47-1.45,1.82,1.82,0,0,0-1.42-.51,2.07,2.07,0,0,0-1.53.56,2.19,2.19,0,0,0-.64,1.4Zm7.65-1.45h-.06a4.37,4.37,0,0,0-.52-.09,5.33,5.33,0,0,0-.59,0,2.46,2.46,0,0,0-1.07.24,4.91,4.91,0,0,0-1,.63v5h-1.19V126h1.19v1a5.86,5.86,0,0,1,1.25-.81A2.73,2.73,0,0,1,759,126l.45,0,.42.06Zm6.64,3.75a1.93,1.93,0,0,1-.8,1.59,3.5,3.5,0,0,1-2.19.62,5.26,5.26,0,0,1-1.44-.19,6.44,6.44,0,0,1-1.1-.41v-1.34h.06a4.79,4.79,0,0,0,1.26.68,3.89,3.89,0,0,0,1.33.25,2.5,2.5,0,0,0,1.23-.25.86.86,0,0,0,.44-.8.81.81,0,0,0-.24-.63,2.17,2.17,0,0,0-.93-.37l-.66-.13-.75-.17a2.48,2.48,0,0,1-1.32-.73A1.8,1.8,0,0,1,761,128a1.93,1.93,0,0,1,.18-.83,2,2,0,0,1,.55-.69,2.63,2.63,0,0,1,.9-.47,4,4,0,0,1,1.23-.17,5.52,5.52,0,0,1,1.29.16,4.85,4.85,0,0,1,1.08.38v1.28h-.06a4.27,4.27,0,0,0-1.11-.57,3.82,3.82,0,0,0-1.28-.23,2.24,2.24,0,0,0-1.1.25.88.88,0,0,0-.18,1.41,2.13,2.13,0,0,0,.86.36l.74.15.68.14a2.53,2.53,0,0,1,1.28.65A1.72,1.72,0,0,1,766.55,131.08Z" transform="translate(-1.5 -1.5)"/></g><g class="cls-22"><path class="cls-12" d="M753.5,151a4.5,4.5,0,1,0-4.5,4.5A4.5,4.5,0,0,0,753.5,151Z" transform="translate(-1.5 -1.5)"/></g><g class="cls-22"><path class="cls-4" d="M753.5,151a4.5,4.5,0,1,0-4.5,4.5A4.5,4.5,0,0,0,753.5,151Z" transform="translate(-1.5 -1.5)"/></g><g class="cls-22"><path class="cls-13" d="M747,151h4" transform="translate(-1.5 -1.5)"/></g><g class="cls-23"><path class="cls-4" d="M758,166v18h55V166Z" transform="translate(-1.5 -1.5)"/></g><g class="cls-24"><path d="M775,176.14a4.9,4.9,0,0,1-.17,1.38,2.23,2.23,0,0,1-.57,1,2.28,2.28,0,0,1-.88.54,3.64,3.64,0,0,1-1.17.17A3.55,3.55,0,0,1,771,179a2.23,2.23,0,0,1-.85-.53,2.32,2.32,0,0,1-.57-1,4.81,4.81,0,0,1-.17-1.39v-4.35h1v4.4a4.25,4.25,0,0,0,.08.93,1.83,1.83,0,0,0,.27.62,1.33,1.33,0,0,0,.58.48,2.2,2.2,0,0,0,.89.16,2.23,2.23,0,0,0,.89-.16,1.34,1.34,0,0,0,.59-.48,1.82,1.82,0,0,0,.27-.64,4.15,4.15,0,0,0,.08-.89v-4.42h1Zm5.35,1.35a1.48,1.48,0,0,1-.62,1.23,2.69,2.69,0,0,1-1.69.48,4,4,0,0,1-1.11-.14,5,5,0,0,1-.85-.31v-1h0a3.68,3.68,0,0,0,1,.52,3,3,0,0,0,1,.19,1.92,1.92,0,0,0,.95-.2.66.66,0,0,0,.34-.62.62.62,0,0,0-.19-.49,1.67,1.67,0,0,0-.71-.28l-.51-.1-.57-.13a1.91,1.91,0,0,1-1-.56,1.39,1.39,0,0,1-.3-.91,1.48,1.48,0,0,1,.14-.63,1.53,1.53,0,0,1,.42-.53,2,2,0,0,1,.7-.36,3.11,3.11,0,0,1,.94-.13,4.24,4.24,0,0,1,1,.12,3.73,3.73,0,0,1,.83.29v1h0a3.28,3.28,0,0,0-.85-.44,2.94,2.94,0,0,0-1-.18,1.73,1.73,0,0,0-.85.19.68.68,0,0,0-.14,1.08,1.64,1.64,0,0,0,.66.28l.57.12.52.11a1.94,1.94,0,0,1,1,.5A1.32,1.32,0,0,1,780.31,177.49Zm5.67-1.06h-4a2.32,2.32,0,0,0,.15.88,1.62,1.62,0,0,0,1,1,2.41,2.41,0,0,0,.77.12,3,3,0,0,0,1.12-.22,2.76,2.76,0,0,0,.8-.44h0v1a7.57,7.57,0,0,1-.95.33,3.84,3.84,0,0,1-1,.13,2.93,2.93,0,0,1-2.12-.73,2.77,2.77,0,0,1-.76-2.09,3,3,0,0,1,.73-2.12,2.5,2.5,0,0,1,1.92-.79,2.21,2.21,0,0,1,1.7.64,2.59,2.59,0,0,1,.6,1.83Zm-.89-.7a1.62,1.62,0,0,0-.36-1.12,1.4,1.4,0,0,0-1.09-.4,1.59,1.59,0,0,0-1.17.43,1.69,1.69,0,0,0-.5,1.08Zm5.73-1.12h0l-.4-.07-.46,0a1.89,1.89,0,0,0-.82.19,3.78,3.78,0,0,0-.76.49v3.87h-.92v-5.45h.92v.81a4.5,4.5,0,0,1,1-.62,2.1,2.1,0,0,1,.85-.18h.35l.32,0Zm3.23,4.45h-2.87v-.74h1v-5.79h-1v-.74H794v.74h-1v5.79h1Zm7.58-3.63a3.74,3.74,0,0,1-.43,1.8,3.23,3.23,0,0,1-1.15,1.25,3.58,3.58,0,0,1-1.11.44,7.68,7.68,0,0,1-1.61.14h-1.84v-7.27h1.82a7.4,7.4,0,0,1,1.69.15,3.68,3.68,0,0,1,1.06.42,3.25,3.25,0,0,1,1.16,1.24A3.81,3.81,0,0,1,801.63,175.43Zm-1,0a3.15,3.15,0,0,0-.3-1.44,2.19,2.19,0,0,0-.89-.92,3,3,0,0,0-.91-.34,6.08,6.08,0,0,0-1.16-.1h-.91v5.61h.91a6.37,6.37,0,0,0,1.22-.1,2.73,2.73,0,0,0,1-.38,2.19,2.19,0,0,0,.81-.91A3.27,3.27,0,0,0,800.61,175.42Z" transform="translate(-1.5 -1.5)"/></g><g class="cls-25"><path class="cls-4" d="M758,188v18h72V188Z" transform="translate(-1.5 -1.5)"/></g><g class="cls-26"><path d="M774.78,198.14a4.9,4.9,0,0,1-.17,1.38,2.23,2.23,0,0,1-.57,1,2.28,2.28,0,0,1-.88.54,3.64,3.64,0,0,1-1.17.17,3.55,3.55,0,0,1-1.19-.18,2.23,2.23,0,0,1-.85-.53,2.32,2.32,0,0,1-.57-1,4.81,4.81,0,0,1-.17-1.39v-4.35h1v4.4a4.25,4.25,0,0,0,.08.93,1.83,1.83,0,0,0,.27.62,1.33,1.33,0,0,0,.58.48,2.2,2.2,0,0,0,.89.16,2.23,2.23,0,0,0,.89-.16,1.34,1.34,0,0,0,.59-.48,1.82,1.82,0,0,0,.27-.64,4.15,4.15,0,0,0,.08-.89v-4.42h1Zm5.35,1.35a1.48,1.48,0,0,1-.62,1.23,2.69,2.69,0,0,1-1.69.48,4,4,0,0,1-1.11-.14,5,5,0,0,1-.85-.31v-1h0a3.68,3.68,0,0,0,1,.52,3,3,0,0,0,1,.19,1.92,1.92,0,0,0,.95-.2.66.66,0,0,0,.34-.62.62.62,0,0,0-.19-.49,1.67,1.67,0,0,0-.71-.28l-.51-.1-.57-.13a1.91,1.91,0,0,1-1-.56,1.39,1.39,0,0,1-.3-.91,1.48,1.48,0,0,1,.14-.63,1.53,1.53,0,0,1,.42-.53,2,2,0,0,1,.7-.36,3.11,3.11,0,0,1,.94-.13,4.24,4.24,0,0,1,1,.12,3.73,3.73,0,0,1,.83.29v1h0a3.28,3.28,0,0,0-.85-.44,2.94,2.94,0,0,0-1-.18,1.73,1.73,0,0,0-.85.19.68.68,0,0,0-.14,1.08,1.64,1.64,0,0,0,.66.28l.57.12.52.11a1.94,1.94,0,0,1,1,.5A1.32,1.32,0,0,1,780.13,199.49Zm5.67-1.06h-4a2.32,2.32,0,0,0,.15.88,1.62,1.62,0,0,0,1,1,2.41,2.41,0,0,0,.77.12,3,3,0,0,0,1.12-.22,2.76,2.76,0,0,0,.8-.44h0v1a7.57,7.57,0,0,1-.95.33,3.84,3.84,0,0,1-1,.13,2.93,2.93,0,0,1-2.12-.73,2.77,2.77,0,0,1-.76-2.09,3,3,0,0,1,.73-2.12,2.5,2.5,0,0,1,1.92-.79,2.21,2.21,0,0,1,1.7.64,2.59,2.59,0,0,1,.6,1.83Zm-.89-.7a1.62,1.62,0,0,0-.36-1.12,1.4,1.4,0,0,0-1.09-.4,1.59,1.59,0,0,0-1.17.43,1.69,1.69,0,0,0-.5,1.08Zm5.73-1.12h0l-.4-.07-.46,0a1.89,1.89,0,0,0-.82.19,3.78,3.78,0,0,0-.76.49v3.87h-.92v-5.45h.92v.81a4.5,4.5,0,0,1,1-.62,2.1,2.1,0,0,1,.85-.18h.35l.32,0Zm6.22,4.45h-1.2l-3.45-6.5v6.5h-.9v-7.27h1.5l3.14,5.94v-5.94h.9Zm5.62,0h-.91v-.58l-.33.23a2.35,2.35,0,0,1-.4.24,2.73,2.73,0,0,1-.53.19,2.86,2.86,0,0,1-.7.08,1.75,1.75,0,0,1-1.25-.49,1.64,1.64,0,0,1-.51-1.25,1.73,1.73,0,0,1,.27-1,1.78,1.78,0,0,1,.76-.6,4.1,4.1,0,0,1,1.2-.3q.7-.08,1.5-.12v-.14a1.09,1.09,0,0,0-.11-.52.8.8,0,0,0-.31-.32,1.3,1.3,0,0,0-.47-.15,4,4,0,0,0-.57,0,3.88,3.88,0,0,0-.81.1,6.26,6.26,0,0,0-.92.28h0v-.93q.27-.07.78-.16a5.86,5.86,0,0,1,1-.09,4.66,4.66,0,0,1,1,.1,2,2,0,0,1,.74.32,1.44,1.44,0,0,1,.47.58,2.14,2.14,0,0,1,.16.88Zm-.91-1.34V198.2l-1,.07a5.11,5.11,0,0,0-.9.14,1.48,1.48,0,0,0-.64.35,1,1,0,0,0,0,1.36,1.33,1.33,0,0,0,.86.24,2.05,2.05,0,0,0,.88-.19A4,4,0,0,0,801.56,199.72Zm10.63,1.34h-.92V198q0-.35,0-.68a1.43,1.43,0,0,0-.13-.52.74.74,0,0,0-.32-.32,1.36,1.36,0,0,0-.61-.11,1.71,1.71,0,0,0-.77.19,4.72,4.72,0,0,0-.77.49q0,.11,0,.26t0,.3v3.49h-.92V198q0-.36,0-.69a1.43,1.43,0,0,0-.13-.52.73.73,0,0,0-.32-.31,1.39,1.39,0,0,0-.61-.1,1.7,1.7,0,0,0-.75.19,4.5,4.5,0,0,0-.75.47v4.07h-.92v-5.45h.92v.61a4,4,0,0,1,.86-.56,2.12,2.12,0,0,1,.91-.2,1.8,1.8,0,0,1,.94.23,1.45,1.45,0,0,1,.58.65,4.54,4.54,0,0,1,1-.68,2.35,2.35,0,0,1,1-.21,1.58,1.58,0,0,1,1.33.54,2.41,2.41,0,0,1,.43,1.52Zm6.61-2.63h-4a2.32,2.32,0,0,0,.15.88,1.62,1.62,0,0,0,1,1,2.41,2.41,0,0,0,.77.12,3,3,0,0,0,1.12-.22,2.76,2.76,0,0,0,.8-.44h0v1a7.57,7.57,0,0,1-.95.33,3.84,3.84,0,0,1-1,.13,2.93,2.93,0,0,1-2.12-.73,2.77,2.77,0,0,1-.76-2.09,3,3,0,0,1,.73-2.12,2.5,2.5,0,0,1,1.92-.79,2.21,2.21,0,0,1,1.7.64,2.59,2.59,0,0,1,.6,1.83Zm-.89-.7a1.62,1.62,0,0,0-.36-1.12,1.4,1.4,0,0,0-1.09-.4,1.59,1.59,0,0,0-1.17.43,1.69,1.69,0,0,0-.5,1.08Z" transform="translate(-1.5 -1.5)"/></g><g class="cls-27"><path class="cls-4" d="M262,151v14a4,4,0,0,0,4,4h5" transform="translate(-1.5 -1.5)"/></g><g class="cls-27"><path class="cls-4" d="M262,151v36a4,4,0,0,0,4,4h5" transform="translate(-1.5 -1.5)"/></g><g class="cls-27"><path class="cls-4" d="M262,151v58a4,4,0,0,0,4,4h5" transform="translate(-1.5 -1.5)"/></g><g class="cls-27"><path class="cls-4" d="M262,151v80a4,4,0,0,0,4,4h5" transform="translate(-1.5 -1.5)"/></g><g class="cls-27"><path class="cls-4" d="M262,151V253a4,4,0,0,0,4,4h5" transform="translate(-1.5 -1.5)"/></g><g class="cls-27"><path class="cls-4" d="M262,151V275a4,4,0,0,0,4,4h5" transform="translate(-1.5 -1.5)"/></g><g class="cls-27"><path class="cls-4" d="M262,151V297a4,4,0,0,0,4,4h5" transform="translate(-1.5 -1.5)"/></g><g class="cls-27"><path class="cls-4" d="M262,151V319a4,4,0,0,0,4,4h5" transform="translate(-1.5 -1.5)"/></g><g class="cls-28"><path class="cls-4" d="M262,138v13" transform="translate(-1.5 -1.5)"/></g><g class="cls-29"><path class="cls-9" d="M204,106v32H320V106Z" transform="translate(-1.5 -1.5)"/></g><g class="cls-29"><path class="cls-4" d="M204,106v32H320V106Z" transform="translate(-1.5 -1.5)"/></g><g class="cls-30"><path d="M226.5,121.2a4.86,4.86,0,0,1-.56,2.34,4.19,4.19,0,0,1-1.49,1.63,4.65,4.65,0,0,1-1.44.58,10,10,0,0,1-2.1.18h-2.39v-9.45h2.36a9.62,9.62,0,0,1,2.2.2,4.78,4.78,0,0,1,1.38.55,4.22,4.22,0,0,1,1.5,1.61A5,5,0,0,1,226.5,121.2Zm-1.31,0a4.1,4.1,0,0,0-.39-1.87,2.84,2.84,0,0,0-1.16-1.2,3.92,3.92,0,0,0-1.19-.44,7.9,7.9,0,0,0-1.5-.12h-1.18v7.29H221a8.27,8.27,0,0,0,1.58-.13,3.55,3.55,0,0,0,1.24-.5,2.84,2.84,0,0,0,1.06-1.19A4.26,4.26,0,0,0,225.19,121.18Zm9.17,1.31h-5.22a3,3,0,0,0,.2,1.14,2.11,2.11,0,0,0,1.32,1.25,3.13,3.13,0,0,0,1,.15,4,4,0,0,0,1.46-.29,3.59,3.59,0,0,0,1-.57h.06v1.3a9.84,9.84,0,0,1-1.23.43,5,5,0,0,1-1.32.17,3.8,3.8,0,0,1-2.75-1,3.6,3.6,0,0,1-1-2.71,3.9,3.9,0,0,1,.95-2.76,3.25,3.25,0,0,1,2.5-1,2.87,2.87,0,0,1,2.21.84,3.37,3.37,0,0,1,.78,2.38Zm-1.16-.91a2.11,2.11,0,0,0-.47-1.45,1.82,1.82,0,0,0-1.42-.51,2.07,2.07,0,0,0-1.53.56,2.19,2.19,0,0,0-.64,1.4Zm8.29,2.29a1.93,1.93,0,0,1-.8,1.59,3.5,3.5,0,0,1-2.19.62,5.26,5.26,0,0,1-1.44-.19,6.44,6.44,0,0,1-1.1-.41v-1.34H236a4.79,4.79,0,0,0,1.26.68,3.89,3.89,0,0,0,1.33.25,2.5,2.5,0,0,0,1.23-.25.86.86,0,0,0,.44-.8.81.81,0,0,0-.24-.63,2.17,2.17,0,0,0-.93-.37l-.66-.13-.75-.17a2.48,2.48,0,0,1-1.32-.73,1.8,1.8,0,0,1-.39-1.18,1.93,1.93,0,0,1,.18-.83,2,2,0,0,1,.55-.69,2.63,2.63,0,0,1,.9-.47,4,4,0,0,1,1.23-.17,5.52,5.52,0,0,1,1.29.16,4.85,4.85,0,0,1,1.08.38v1.28h-.06a4.27,4.27,0,0,0-1.11-.57,3.82,3.82,0,0,0-1.28-.23,2.24,2.24,0,0,0-1.1.25.88.88,0,0,0-.18,1.41,2.13,2.13,0,0,0,.86.36l.74.15.68.14a2.53,2.53,0,0,1,1.28.65A1.72,1.72,0,0,1,241.49,123.87Zm3.22-6.23h-1.35V116.4h1.35Zm-.08,8.28h-1.19v-7.09h1.19Zm8.54-.81a3.69,3.69,0,0,1-.82,2.65,3.37,3.37,0,0,1-2.52.84,7.52,7.52,0,0,1-1.1-.08,8.53,8.53,0,0,1-1.06-.23v-1.22h.06a9.42,9.42,0,0,0,.93.28,4.94,4.94,0,0,0,1.27.17,3,3,0,0,0,1-.15,1.42,1.42,0,0,0,.94-1,3,3,0,0,0,.1-.78V125a4.61,4.61,0,0,1-1,.64,3.18,3.18,0,0,1-1.25.21,2.46,2.46,0,0,1-2-.92,4,4,0,0,1-.75-2.59,4.36,4.36,0,0,1,.26-1.58,3.58,3.58,0,0,1,.7-1.15,2.85,2.85,0,0,1,1-.7,3,3,0,0,1,1.17-.25,3.67,3.67,0,0,1,1,.12,4.54,4.54,0,0,1,.88.38l.08-.3h1.12ZM252,124V120.1a4.62,4.62,0,0,0-.89-.31,3.71,3.71,0,0,0-.82-.09,1.93,1.93,0,0,0-1.55.66,2.87,2.87,0,0,0-.56,1.92,3.22,3.22,0,0,0,.42,1.81,1.56,1.56,0,0,0,1.39.62,2.91,2.91,0,0,0,1-.2A3.79,3.79,0,0,0,252,124Zm9.37,1.95h-1.19v-4a7,7,0,0,0-.06-.92,1.68,1.68,0,0,0-.21-.67,1,1,0,0,0-.46-.4,2,2,0,0,0-.77-.13,2.48,2.48,0,0,0-1,.24,5.21,5.21,0,0,0-1,.62v5.29h-1.19v-7.09h1.19v.79a4.85,4.85,0,0,1,1.16-.72,3,3,0,0,1,1.23-.26,2.2,2.2,0,0,1,1.75.69,3,3,0,0,1,.6,2Zm8.39,0h-6.23v-9.45h6.23v1.12h-5v2.59h5v1.12h-5v3.51h5Zm7.81-7.09-2.87,7.09h-1.2l-2.85-7.09h1.29l2.2,5.64,2.18-5.64Zm7.8,3.67h-5.22a3,3,0,0,0,.2,1.14,2.11,2.11,0,0,0,1.32,1.25,3.13,3.13,0,0,0,1,.15,4,4,0,0,0,1.46-.29,3.59,3.59,0,0,0,1-.57h.06v1.3a9.85,9.85,0,0,1-1.23.43,5,5,0,0,1-1.32.17,3.8,3.8,0,0,1-2.75-1,3.6,3.6,0,0,1-1-2.71,3.9,3.9,0,0,1,.95-2.76,3.25,3.25,0,0,1,2.5-1,2.87,2.87,0,0,1,2.21.84,3.37,3.37,0,0,1,.78,2.38Zm-1.16-.91a2.11,2.11,0,0,0-.47-1.45,1.82,1.82,0,0,0-1.42-.51,2.07,2.07,0,0,0-1.53.56,2.19,2.19,0,0,0-.64,1.4Zm9.16,4.34h-1.19v-4a7,7,0,0,0-.06-.92,1.68,1.68,0,0,0-.21-.67,1,1,0,0,0-.46-.4,2,2,0,0,0-.77-.13,2.48,2.48,0,0,0-1,.24,5.21,5.21,0,0,0-1,.62v5.29h-1.19v-7.09h1.19v.79a4.85,4.85,0,0,1,1.16-.72,3,3,0,0,1,1.23-.26,2.2,2.2,0,0,1,1.75.69,3,3,0,0,1,.6,2Zm5.75-.06a6.51,6.51,0,0,1-.73.15,5,5,0,0,1-.71.06,2.19,2.19,0,0,1-1.65-.58,2.62,2.62,0,0,1-.56-1.87v-3.77h-.81v-1h.81v-2h1.19v2h2.46v1h-2.46v3.23q0,.56,0,.87a1.43,1.43,0,0,0,.18.59.86.86,0,0,0,.38.37,1.8,1.8,0,0,0,.75.12,2.34,2.34,0,0,0,.61-.09l.46-.14h.06Zm6.38-2a1.93,1.93,0,0,1-.8,1.59,3.5,3.5,0,0,1-2.19.62,5.26,5.26,0,0,1-1.44-.19,6.44,6.44,0,0,1-1.1-.41v-1.34H300a4.79,4.79,0,0,0,1.26.68,3.89,3.89,0,0,0,1.33.25,2.5,2.5,0,0,0,1.23-.25.86.86,0,0,0,.44-.8.81.81,0,0,0-.24-.63,2.17,2.17,0,0,0-.93-.37l-.66-.13-.75-.17a2.48,2.48,0,0,1-1.32-.73,1.8,1.8,0,0,1-.39-1.18,1.93,1.93,0,0,1,.18-.83,2,2,0,0,1,.55-.69,2.63,2.63,0,0,1,.9-.47,4,4,0,0,1,1.23-.17,5.52,5.52,0,0,1,1.29.16,4.85,4.85,0,0,1,1.08.38v1.28h-.06a4.27,4.27,0,0,0-1.11-.57,3.82,3.82,0,0,0-1.28-.23,2.24,2.24,0,0,0-1.1.25.88.88,0,0,0-.18,1.41,2.13,2.13,0,0,0,.86.36l.74.15.68.14a2.53,2.53,0,0,1,1.28.65A1.72,1.72,0,0,1,305.49,123.87Z" transform="translate(-1.5 -1.5)"/></g><g class="cls-31"><path class="cls-12" d="M266.5,145a4.5,4.5,0,1,0-4.5,4.5A4.5,4.5,0,0,0,266.5,145Z" transform="translate(-1.5 -1.5)"/></g><g class="cls-31"><path class="cls-4" d="M266.5,145a4.5,4.5,0,1,0-4.5,4.5A4.5,4.5,0,0,0,266.5,145Z" transform="translate(-1.5 -1.5)"/></g><g class="cls-31"><path class="cls-13" d="M260,145h4" transform="translate(-1.5 -1.5)"/></g><g class="cls-32"><path class="cls-4" d="M271,160v18h61V160Z" transform="translate(-1.5 -1.5)"/></g><g class="cls-33"><path d="M287.22,173.07h-4.79V165.8h4.79v.86H283.4v2h3.82v.86H283.4v2.7h3.82Zm5.85-5.45-2.21,5.45h-.92l-2.19-5.45h1l1.69,4.34,1.67-4.34Zm5.85,2.82h-4a2.32,2.32,0,0,0,.15.88,1.62,1.62,0,0,0,1,1,2.4,2.4,0,0,0,.77.12,3,3,0,0,0,1.12-.22,2.76,2.76,0,0,0,.8-.44h0v1a7.57,7.57,0,0,1-.95.33,3.84,3.84,0,0,1-1,.13,2.93,2.93,0,0,1-2.12-.73,2.77,2.77,0,0,1-.76-2.09,3,3,0,0,1,.73-2.12,2.5,2.5,0,0,1,1.92-.79,2.21,2.21,0,0,1,1.7.64,2.59,2.59,0,0,1,.6,1.83Zm-.89-.7a1.62,1.62,0,0,0-.36-1.12,1.4,1.4,0,0,0-1.09-.4,1.59,1.59,0,0,0-1.17.43,1.69,1.69,0,0,0-.5,1.08Zm6.89,3.33H304V170a5.35,5.35,0,0,0,0-.71,1.29,1.29,0,0,0-.16-.52.74.74,0,0,0-.35-.31,1.5,1.5,0,0,0-.6-.1,1.91,1.91,0,0,0-.79.19,4,4,0,0,0-.79.47v4.07h-.92v-5.45h.92v.61a3.73,3.73,0,0,1,.89-.56,2.34,2.34,0,0,1,.94-.2,1.69,1.69,0,0,1,1.35.53,2.27,2.27,0,0,1,.46,1.53Zm4.27,0a5,5,0,0,1-.56.11,3.86,3.86,0,0,1-.54,0,1.69,1.69,0,0,1-1.27-.45,2,2,0,0,1-.43-1.44v-2.9h-.62v-.77h.62v-1.57h.92v1.57h1.89v.77h-1.89v2.49q0,.43,0,.67a1.1,1.1,0,0,0,.14.45.66.66,0,0,0,.3.29,1.39,1.39,0,0,0,.57.09,1.8,1.8,0,0,0,.47-.07l.35-.11h0Zm3.8,0h-2.87v-.74h1v-5.79h-1v-.74H313v.74h-1v5.79h1Zm7.58-3.63a3.74,3.74,0,0,1-.43,1.8,3.23,3.23,0,0,1-1.15,1.25,3.58,3.58,0,0,1-1.11.44,7.68,7.68,0,0,1-1.61.14h-1.84V165.8h1.82a7.4,7.4,0,0,1,1.69.15,3.68,3.68,0,0,1,1.06.42,3.25,3.25,0,0,1,1.16,1.24A3.81,3.81,0,0,1,320.57,169.44Zm-1,0a3.15,3.15,0,0,0-.3-1.44,2.19,2.19,0,0,0-.89-.92,3,3,0,0,0-.91-.34,6.08,6.08,0,0,0-1.16-.1h-.91v5.61h.91a6.37,6.37,0,0,0,1.22-.1,2.73,2.73,0,0,0,1-.38,2.19,2.19,0,0,0,.81-.91A3.27,3.27,0,0,0,319.56,169.43Z" transform="translate(-1.5 -1.5)"/></g><g class="cls-34"><path class="cls-4" d="M271,182v18h67V182Z" transform="translate(-1.5 -1.5)"/></g><g class="cls-35"><path d="M287.18,189.05a2.35,2.35,0,0,1-.17.9,2.15,2.15,0,0,1-.47.72,2.42,2.42,0,0,1-.89.56,3.8,3.8,0,0,1-1.29.19h-1v2.71h-1v-7.27h2a4.79,4.79,0,0,1,1.11.11,2.5,2.5,0,0,1,.81.34,2,2,0,0,1,.64.69A2.17,2.17,0,0,1,287.18,189.05Zm-1,0a1.51,1.51,0,0,0-.13-.65,1.1,1.1,0,0,0-.4-.45,1.61,1.61,0,0,0-.53-.22,3.63,3.63,0,0,0-.76-.07h-1v2.91h.82a3.55,3.55,0,0,0,1-.1,1.35,1.35,0,0,0,.6-.33,1.4,1.4,0,0,0,.32-.49A1.67,1.67,0,0,0,286.18,189.08Zm5.58.6h0l-.4-.07-.46,0a1.89,1.89,0,0,0-.82.19,3.78,3.78,0,0,0-.76.49v3.87h-.92v-5.45h.92v.81a4.5,4.5,0,0,1,1-.62,2.1,2.1,0,0,1,.85-.18h.35l.32,0ZM297,191.4a3.06,3.06,0,0,1-.68,2.1,2.57,2.57,0,0,1-3.67,0,3.6,3.6,0,0,1,0-4.21,2.56,2.56,0,0,1,3.67,0A3.07,3.07,0,0,1,297,191.4Zm-.95,0a2.48,2.48,0,0,0-.42-1.57,1.55,1.55,0,0,0-2.31,0,3.17,3.17,0,0,0,0,3.13,1.53,1.53,0,0,0,2.31,0A2.47,2.47,0,0,0,296.06,191.4Zm4-3.64h-1v-1h1Zm-.06,6.5a2,2,0,0,1-.49,1.45,1.77,1.77,0,0,1-1.31.49l-.52,0a3.85,3.85,0,0,1-.53-.1v-.87h0l.37.12a1.59,1.59,0,0,0,.45.07,1.38,1.38,0,0,0,.57-.1.67.67,0,0,0,.32-.29,1.27,1.27,0,0,0,.14-.47,6,6,0,0,0,0-.67v-4.39h-1.14v-.77H300Zm5.92-2.76h-4a2.32,2.32,0,0,0,.15.88,1.62,1.62,0,0,0,1,1,2.4,2.4,0,0,0,.77.12,3,3,0,0,0,1.12-.22,2.76,2.76,0,0,0,.8-.44h0v1a7.57,7.57,0,0,1-.95.33,3.84,3.84,0,0,1-1,.13,2.93,2.93,0,0,1-2.12-.73,2.77,2.77,0,0,1-.76-2.09,3,3,0,0,1,.73-2.12,2.5,2.5,0,0,1,1.92-.79,2.21,2.21,0,0,1,1.7.64,2.59,2.59,0,0,1,.6,1.83Zm-.89-.7a1.62,1.62,0,0,0-.36-1.12,1.4,1.4,0,0,0-1.09-.4,1.59,1.59,0,0,0-1.17.43,1.69,1.69,0,0,0-.5,1.08Zm6.36,3a5.92,5.92,0,0,1-.87.34,3.07,3.07,0,0,1-.88.12,3.25,3.25,0,0,1-1.08-.17,2.22,2.22,0,0,1-.84-.52,2.36,2.36,0,0,1-.55-.89,3.67,3.67,0,0,1-.2-1.25,2.9,2.9,0,0,1,.73-2.1,2.57,2.57,0,0,1,1.94-.76,3.27,3.27,0,0,1,.92.13,4.81,4.81,0,0,1,.83.32v1h0a3.49,3.49,0,0,0-.87-.5,2.37,2.37,0,0,0-.87-.18,1.54,1.54,0,0,0-1.23.52,2.84,2.84,0,0,0,0,3.06,1.53,1.53,0,0,0,1.24.53,2.29,2.29,0,0,0,.57-.07,2.48,2.48,0,0,0,.52-.19l.38-.22.28-.2h0Zm3.8.29a5,5,0,0,1-.56.11,3.86,3.86,0,0,1-.54,0,1.69,1.69,0,0,1-1.27-.45,2,2,0,0,1-.43-1.44v-2.9h-.62v-.77h.62v-1.57h.92v1.57h1.89v.77h-1.89v2.49q0,.43,0,.67a1.1,1.1,0,0,0,.14.45.66.66,0,0,0,.3.29,1.39,1.39,0,0,0,.57.09,1.8,1.8,0,0,0,.47-.07l.35-.11h0Zm3.8,0h-2.87v-.74h1V187.6h-1v-.74H319v.74h-1v5.79h1Zm7.58-3.63a3.74,3.74,0,0,1-.43,1.8,3.23,3.23,0,0,1-1.15,1.25,3.58,3.58,0,0,1-1.11.44,7.68,7.68,0,0,1-1.61.14h-1.84v-7.27h1.82a7.4,7.4,0,0,1,1.69.15,3.68,3.68,0,0,1,1.06.42,3.25,3.25,0,0,1,1.16,1.24A3.81,3.81,0,0,1,326.57,190.5Zm-1,0a3.15,3.15,0,0,0-.3-1.44,2.19,2.19,0,0,0-.89-.92,3,3,0,0,0-.91-.34,6.08,6.08,0,0,0-1.16-.1h-.91v5.61h.91a6.37,6.37,0,0,0,1.22-.1,2.73,2.73,0,0,0,1-.38,2.19,2.19,0,0,0,.81-.91A3.27,3.27,0,0,0,325.56,190.48Z" transform="translate(-1.5 -1.5)"/></g><g class="cls-36"><path class="cls-4" d="M271,204v18h78V204Z" transform="translate(-1.5 -1.5)"/></g><g class="cls-37"><path d="M287,217.06h-4.79v-7.27H287v.86h-3.82v2H287v.86h-3.82v2.7H287Zm5.85-5.45-2.21,5.45h-.92l-2.19-5.45h1l1.69,4.34,1.67-4.34Zm5.85,2.82h-4a2.32,2.32,0,0,0,.15.88,1.62,1.62,0,0,0,1,1,2.4,2.4,0,0,0,.77.12,3,3,0,0,0,1.12-.22,2.76,2.76,0,0,0,.8-.44h0v1a7.57,7.57,0,0,1-.95.33,3.84,3.84,0,0,1-1,.13,2.93,2.93,0,0,1-2.12-.73,2.77,2.77,0,0,1-.76-2.09,3,3,0,0,1,.73-2.12,2.5,2.5,0,0,1,1.92-.79,2.21,2.21,0,0,1,1.7.64,2.59,2.59,0,0,1,.6,1.83Zm-.89-.7a1.62,1.62,0,0,0-.36-1.12,1.4,1.4,0,0,0-1.09-.4,1.59,1.59,0,0,0-1.17.43,1.69,1.69,0,0,0-.5,1.08Zm6.89,3.33h-.92V214a5.35,5.35,0,0,0,0-.71,1.29,1.29,0,0,0-.16-.52.74.74,0,0,0-.35-.31,1.5,1.5,0,0,0-.6-.1,1.91,1.91,0,0,0-.79.19,4,4,0,0,0-.79.47v4.07h-.92v-5.45h.92v.61a3.73,3.73,0,0,1,.89-.56,2.34,2.34,0,0,1,.94-.2,1.69,1.69,0,0,1,1.35.53,2.27,2.27,0,0,1,.46,1.53Zm4.27,0a5,5,0,0,1-.56.11,3.86,3.86,0,0,1-.54,0,1.69,1.69,0,0,1-1.27-.45,2,2,0,0,1-.43-1.44v-2.9h-.62v-.77h.62V210h.92v1.57H309v.77h-1.89v2.49q0,.43,0,.67a1.1,1.1,0,0,0,.14.45.66.66,0,0,0,.3.29,1.39,1.39,0,0,0,.57.09,1.8,1.8,0,0,0,.47-.07l.35-.11h0Zm6.79,0h-1.2l-3.45-6.5v6.5h-.9v-7.27h1.5l3.14,5.94v-5.94h.9Zm5.62,0h-.91v-.58l-.33.23a2.35,2.35,0,0,1-.4.24,2.73,2.73,0,0,1-.53.19,2.86,2.86,0,0,1-.7.08,1.75,1.75,0,0,1-1.25-.49,1.64,1.64,0,0,1-.51-1.25,1.72,1.72,0,0,1,.27-1,1.78,1.78,0,0,1,.76-.6,4.1,4.1,0,0,1,1.2-.3q.7-.08,1.5-.12v-.14a1.09,1.09,0,0,0-.11-.52.8.8,0,0,0-.31-.32,1.3,1.3,0,0,0-.47-.15,4,4,0,0,0-.57,0,3.88,3.88,0,0,0-.81.1,6.26,6.26,0,0,0-.92.28h0v-.93q.27-.07.78-.16a5.86,5.86,0,0,1,1-.09,4.66,4.66,0,0,1,1,.1,2,2,0,0,1,.74.32,1.44,1.44,0,0,1,.47.58,2.14,2.14,0,0,1,.16.88Zm-.91-1.34V214.2l-1,.07a5.12,5.12,0,0,0-.9.14,1.48,1.48,0,0,0-.64.35,1,1,0,0,0,0,1.36,1.33,1.33,0,0,0,.86.24,2.05,2.05,0,0,0,.88-.19A4,4,0,0,0,320.51,215.72Zm10.63,1.34h-.92V214q0-.35,0-.68a1.43,1.43,0,0,0-.13-.52.74.74,0,0,0-.32-.32,1.36,1.36,0,0,0-.61-.11,1.71,1.71,0,0,0-.77.19,4.72,4.72,0,0,0-.77.49q0,.11,0,.26t0,.3v3.49h-.92V214q0-.36,0-.69a1.43,1.43,0,0,0-.13-.52.73.73,0,0,0-.32-.31,1.39,1.39,0,0,0-.61-.1,1.7,1.7,0,0,0-.75.19,4.51,4.51,0,0,0-.75.47v4.07h-.92v-5.45h.92v.61a4,4,0,0,1,.86-.56,2.12,2.12,0,0,1,.91-.2,1.8,1.8,0,0,1,.94.23,1.45,1.45,0,0,1,.58.65,4.54,4.54,0,0,1,1-.68,2.35,2.35,0,0,1,1-.21,1.58,1.58,0,0,1,1.33.54,2.41,2.41,0,0,1,.43,1.52Zm6.61-2.63h-4a2.32,2.32,0,0,0,.15.88,1.62,1.62,0,0,0,1,1,2.4,2.4,0,0,0,.77.12,3,3,0,0,0,1.12-.22,2.76,2.76,0,0,0,.8-.44h0v1a7.57,7.57,0,0,1-.95.33,3.84,3.84,0,0,1-1,.13,2.93,2.93,0,0,1-2.12-.73,2.77,2.77,0,0,1-.76-2.09,3,3,0,0,1,.73-2.12,2.5,2.5,0,0,1,1.92-.79,2.21,2.21,0,0,1,1.7.64,2.59,2.59,0,0,1,.6,1.83Zm-.89-.7a1.62,1.62,0,0,0-.36-1.12,1.4,1.4,0,0,0-1.09-.4,1.59,1.59,0,0,0-1.17.43,1.69,1.69,0,0,0-.5,1.08Z" transform="translate(-1.5 -1.5)"/></g><g class="cls-38"><path class="cls-4" d="M271,226v18H376V226Z" transform="translate(-1.5 -1.5)"/></g><g class="cls-39"><path d="M287,238.15h-4.79v-7.27H287v.86h-3.82v2H287v.86h-3.82v2.7H287Zm5.85-5.45-2.21,5.45h-.92l-2.19-5.45h1l1.69,4.34,1.67-4.34Zm5.85,2.82h-4a2.32,2.32,0,0,0,.15.88,1.62,1.62,0,0,0,1,1,2.4,2.4,0,0,0,.77.12,3,3,0,0,0,1.12-.22,2.76,2.76,0,0,0,.8-.44h0v1a7.57,7.57,0,0,1-.95.33,3.84,3.84,0,0,1-1,.13,2.93,2.93,0,0,1-2.12-.73,2.77,2.77,0,0,1-.76-2.09,3,3,0,0,1,.73-2.12,2.5,2.5,0,0,1,1.92-.79,2.21,2.21,0,0,1,1.7.64,2.59,2.59,0,0,1,.6,1.83Zm-.89-.7a1.62,1.62,0,0,0-.36-1.12,1.4,1.4,0,0,0-1.09-.4,1.59,1.59,0,0,0-1.17.43,1.69,1.69,0,0,0-.5,1.08Zm6.89,3.33h-.92V235a5.35,5.35,0,0,0,0-.71,1.29,1.29,0,0,0-.16-.52.74.74,0,0,0-.35-.31,1.5,1.5,0,0,0-.6-.1,1.91,1.91,0,0,0-.79.19,4,4,0,0,0-.79.47v4.07h-.92V232.7h.92v.61a3.73,3.73,0,0,1,.89-.56,2.34,2.34,0,0,1,.94-.2,1.69,1.69,0,0,1,1.35.53,2.27,2.27,0,0,1,.46,1.53Zm4.27,0a5,5,0,0,1-.56.11,3.86,3.86,0,0,1-.54,0,1.69,1.69,0,0,1-1.27-.45,2,2,0,0,1-.43-1.44v-2.9h-.62v-.77h.62v-1.57h.92v1.57H309v.77h-1.89V236q0,.43,0,.67a1.1,1.1,0,0,0,.14.45.66.66,0,0,0,.3.29,1.39,1.39,0,0,0,.57.09,1.8,1.8,0,0,0,.47-.07l.35-.11h0Zm7.38-3.58a3.74,3.74,0,0,1-.43,1.8,3.23,3.23,0,0,1-1.15,1.25,3.58,3.58,0,0,1-1.11.44,7.68,7.68,0,0,1-1.61.14h-1.84v-7.27h1.82a7.4,7.4,0,0,1,1.69.15,3.68,3.68,0,0,1,1.06.42,3.25,3.25,0,0,1,1.16,1.24A3.81,3.81,0,0,1,316.4,234.53Zm-1,0a3.15,3.15,0,0,0-.3-1.44,2.19,2.19,0,0,0-.89-.92,3,3,0,0,0-.91-.34,6.08,6.08,0,0,0-1.16-.1h-.91v5.61h.91a6.36,6.36,0,0,0,1.22-.1,2.73,2.73,0,0,0,1-.38,2.19,2.19,0,0,0,.81-.91A3.27,3.27,0,0,0,315.39,234.51Zm7.36,1h-4a2.32,2.32,0,0,0,.15.88,1.62,1.62,0,0,0,1,1,2.4,2.4,0,0,0,.77.12,3,3,0,0,0,1.12-.22,2.76,2.76,0,0,0,.8-.44h0v1a7.57,7.57,0,0,1-.95.33,3.84,3.84,0,0,1-1,.13,2.93,2.93,0,0,1-2.12-.73,2.77,2.77,0,0,1-.76-2.09,3,3,0,0,1,.73-2.12,2.5,2.5,0,0,1,1.92-.79,2.21,2.21,0,0,1,1.7.64,2.59,2.59,0,0,1,.6,1.83Zm-.89-.7a1.62,1.62,0,0,0-.36-1.12,1.4,1.4,0,0,0-1.09-.4,1.59,1.59,0,0,0-1.17.43,1.69,1.69,0,0,0-.5,1.08Zm6.22,1.76a1.48,1.48,0,0,1-.62,1.23,2.69,2.69,0,0,1-1.69.48,4,4,0,0,1-1.11-.14,5,5,0,0,1-.85-.31v-1h0a3.68,3.68,0,0,0,1,.52,3,3,0,0,0,1,.19,1.92,1.92,0,0,0,.95-.2.66.66,0,0,0,.34-.62.62.62,0,0,0-.19-.49,1.67,1.67,0,0,0-.71-.28l-.51-.1-.57-.13a1.91,1.91,0,0,1-1-.56,1.39,1.39,0,0,1-.3-.91,1.48,1.48,0,0,1,.14-.63,1.53,1.53,0,0,1,.42-.53,2,2,0,0,1,.7-.36,3.11,3.11,0,0,1,.94-.13,4.24,4.24,0,0,1,1,.12,3.73,3.73,0,0,1,.83.29v1h0a3.28,3.28,0,0,0-.85-.44,2.94,2.94,0,0,0-1-.18,1.73,1.73,0,0,0-.85.19.68.68,0,0,0-.14,1.08,1.64,1.64,0,0,0,.66.28l.57.12.52.11a1.94,1.94,0,0,1,1,.5A1.32,1.32,0,0,1,328.08,236.58Zm5.14,1.23a5.92,5.92,0,0,1-.87.34,3.07,3.07,0,0,1-.88.12,3.25,3.25,0,0,1-1.08-.17,2.22,2.22,0,0,1-.84-.52,2.36,2.36,0,0,1-.55-.89,3.67,3.67,0,0,1-.2-1.25,2.9,2.9,0,0,1,.73-2.1,2.57,2.57,0,0,1,1.94-.76,3.27,3.27,0,0,1,.92.13,4.81,4.81,0,0,1,.83.32v1h0a3.49,3.49,0,0,0-.87-.5,2.37,2.37,0,0,0-.87-.18,1.54,1.54,0,0,0-1.23.52,2.84,2.84,0,0,0,0,3.06,1.53,1.53,0,0,0,1.24.53,2.29,2.29,0,0,0,.57-.07,2.48,2.48,0,0,0,.52-.19l.38-.22.28-.2h0Zm4.37-4.11h0l-.4-.07-.46,0a1.89,1.89,0,0,0-.82.19,3.78,3.78,0,0,0-.76.49v3.87h-.92V232.7h.92v.81a4.5,4.5,0,0,1,1-.62,2.1,2.1,0,0,1,.85-.18h.35l.32,0Zm1.58-1.91h-1v-1h1Zm-.06,6.37h-.92V232.7h.92Zm6.87-2.79a3.68,3.68,0,0,1-.19,1.21,2.65,2.65,0,0,1-.54.93,2.25,2.25,0,0,1-.76.56,2.22,2.22,0,0,1-.93.2,3,3,0,0,1-.77-.09,3.19,3.19,0,0,1-.7-.29v2.29h-.92V232.7h.92v.57a3.56,3.56,0,0,1,.82-.52,2.33,2.33,0,0,1,1-.21,1.8,1.8,0,0,1,1.54.74A3.42,3.42,0,0,1,346,235.36Zm-.95,0a2.61,2.61,0,0,0-.34-1.47,1.17,1.17,0,0,0-1-.49,2,2,0,0,0-.8.17,3.6,3.6,0,0,0-.77.45v3.09a3.66,3.66,0,0,0,.67.24,2.9,2.9,0,0,0,.64.06,1.47,1.47,0,0,0,1.2-.52A2.35,2.35,0,0,0,345,235.39Zm5,2.72a5,5,0,0,1-.56.11,3.86,3.86,0,0,1-.54,0,1.69,1.69,0,0,1-1.27-.45,2,2,0,0,1-.43-1.44v-2.9h-.62v-.77h.62v-1.57h.92v1.57H350v.77h-1.89V236q0,.43,0,.67a1.1,1.1,0,0,0,.14.45.66.66,0,0,0,.3.29,1.39,1.39,0,0,0,.57.09,1.8,1.8,0,0,0,.47-.07l.35-.11h0Zm2.15-6.32h-1v-1h1Zm-.06,6.37h-.92V232.7h.92Zm6.72-2.72a3.06,3.06,0,0,1-.68,2.1,2.57,2.57,0,0,1-3.67,0,3.6,3.6,0,0,1,0-4.21,2.56,2.56,0,0,1,3.67,0A3.07,3.07,0,0,1,358.83,235.43Zm-.95,0a2.48,2.48,0,0,0-.42-1.57,1.55,1.55,0,0,0-2.31,0,3.17,3.17,0,0,0,0,3.13,1.53,1.53,0,0,0,2.31,0A2.47,2.47,0,0,0,357.88,235.43Zm6.86,2.72h-.92V235a5.35,5.35,0,0,0,0-.71,1.29,1.29,0,0,0-.16-.52.74.74,0,0,0-.35-.31,1.5,1.5,0,0,0-.6-.1,1.91,1.91,0,0,0-.79.19,4,4,0,0,0-.79.47v4.07h-.92V232.7h.92v.61a3.73,3.73,0,0,1,.89-.56,2.34,2.34,0,0,1,.94-.2,1.69,1.69,0,0,1,1.35.53,2.27,2.27,0,0,1,.46,1.53Z" transform="translate(-1.5 -1.5)"/></g><g class="cls-40"><path class="cls-4" d="M271,248v18h65V248Z" transform="translate(-1.5 -1.5)"/></g><g class="cls-41"><path d="M287.18,256a2.35,2.35,0,0,1-.17.9,2.15,2.15,0,0,1-.47.72,2.42,2.42,0,0,1-.89.56,3.8,3.8,0,0,1-1.29.19h-1v2.71h-1v-7.27h2a4.79,4.79,0,0,1,1.11.11,2.5,2.5,0,0,1,.81.34,2,2,0,0,1,.64.69A2.17,2.17,0,0,1,287.18,256Zm-1,0a1.51,1.51,0,0,0-.13-.65,1.1,1.1,0,0,0-.4-.45,1.61,1.61,0,0,0-.53-.22,3.63,3.63,0,0,0-.76-.07h-1v2.91h.82a3.55,3.55,0,0,0,1-.1,1.35,1.35,0,0,0,.6-.33,1.4,1.4,0,0,0,.32-.49A1.67,1.67,0,0,0,286.18,256Zm6.42,5h-.91v-.58l-.33.23a2.35,2.35,0,0,1-.4.24,2.73,2.73,0,0,1-.53.19,2.86,2.86,0,0,1-.7.08,1.74,1.74,0,0,1-1.25-.49,1.64,1.64,0,0,1-.51-1.25,1.72,1.72,0,0,1,.27-1,1.78,1.78,0,0,1,.76-.6,4.1,4.1,0,0,1,1.2-.3q.7-.08,1.5-.12v-.14a1.09,1.09,0,0,0-.11-.52.8.8,0,0,0-.31-.32,1.3,1.3,0,0,0-.47-.15,4,4,0,0,0-.57,0,3.88,3.88,0,0,0-.81.1,6.26,6.26,0,0,0-.92.28h0v-.93q.27-.07.78-.16a5.86,5.86,0,0,1,1-.09,4.66,4.66,0,0,1,1,.1,2,2,0,0,1,.74.32,1.44,1.44,0,0,1,.47.58,2.14,2.14,0,0,1,.16.88Zm-.91-1.34V258.2l-1,.07a5.12,5.12,0,0,0-.9.14,1.48,1.48,0,0,0-.64.35,1,1,0,0,0,0,1.36,1.33,1.33,0,0,0,.86.24,2.05,2.05,0,0,0,.88-.19A4,4,0,0,0,291.68,259.72Zm6.08-3.11h0l-.4-.07-.46,0a1.89,1.89,0,0,0-.82.19,3.78,3.78,0,0,0-.76.49v3.87h-.92v-5.45h.92v.81a4.5,4.5,0,0,1,1-.62,2.1,2.1,0,0,1,.85-.18h.35l.32,0Zm5.16,1.82h-4a2.32,2.32,0,0,0,.15.88,1.62,1.62,0,0,0,1,1,2.4,2.4,0,0,0,.77.12,3,3,0,0,0,1.12-.22,2.76,2.76,0,0,0,.8-.44h0v1a7.57,7.57,0,0,1-.95.33,3.84,3.84,0,0,1-1,.13,2.93,2.93,0,0,1-2.12-.73,2.77,2.77,0,0,1-.76-2.09,3,3,0,0,1,.73-2.12,2.5,2.5,0,0,1,1.92-.79,2.21,2.21,0,0,1,1.7.64,2.59,2.59,0,0,1,.6,1.83Zm-.89-.7a1.62,1.62,0,0,0-.36-1.12,1.4,1.4,0,0,0-1.09-.4,1.59,1.59,0,0,0-1.17.43,1.69,1.69,0,0,0-.5,1.08Zm6.89,3.33H308V258a5.35,5.35,0,0,0,0-.71,1.29,1.29,0,0,0-.16-.52.74.74,0,0,0-.35-.31,1.5,1.5,0,0,0-.6-.1,1.91,1.91,0,0,0-.79.19,4,4,0,0,0-.79.47v4.07h-.92v-5.45h.92v.61a3.73,3.73,0,0,1,.89-.56,2.34,2.34,0,0,1,.94-.2,1.69,1.69,0,0,1,1.35.53,2.27,2.27,0,0,1,.46,1.53Zm4.27,0a5,5,0,0,1-.56.11,3.86,3.86,0,0,1-.54,0,1.69,1.69,0,0,1-1.27-.45,2,2,0,0,1-.43-1.44v-2.9h-.62v-.77h.62V254h.92v1.57h1.89v.77h-1.89v2.49q0,.43,0,.67a1.1,1.1,0,0,0,.14.45.66.66,0,0,0,.3.29,1.39,1.39,0,0,0,.57.09,1.8,1.8,0,0,0,.47-.07l.35-.11h0Zm3.8,0h-2.87v-.74h1v-5.79h-1v-.74H317v.74h-1v5.79h1Zm7.58-3.63a3.74,3.74,0,0,1-.43,1.8,3.23,3.23,0,0,1-1.15,1.25,3.58,3.58,0,0,1-1.11.44,7.67,7.67,0,0,1-1.61.14h-1.84v-7.27h1.82a7.4,7.4,0,0,1,1.69.15,3.68,3.68,0,0,1,1.06.42,3.25,3.25,0,0,1,1.16,1.24A3.81,3.81,0,0,1,324.57,257.43Zm-1,0a3.15,3.15,0,0,0-.3-1.44,2.19,2.19,0,0,0-.89-.92,3,3,0,0,0-.91-.34,6.08,6.08,0,0,0-1.16-.1h-.91v5.61h.91a6.37,6.37,0,0,0,1.22-.1,2.73,2.73,0,0,0,1-.38,2.19,2.19,0,0,0,.81-.91A3.27,3.27,0,0,0,323.56,257.42Z" transform="translate(-1.5 -1.5)"/></g><g class="cls-42"><path class="cls-4" d="M271,270v18h42V270Z" transform="translate(-1.5 -1.5)"/></g><g class="cls-43"><path d="M287.7,281.06a1.94,1.94,0,0,1-.2.84,2,2,0,0,1-.55.7,3,3,0,0,1-.91.49,3.93,3.93,0,0,1-1.25.18,6.24,6.24,0,0,1-1.41-.15,7.18,7.18,0,0,1-1.28-.43v-1.21h.07a4,4,0,0,0,1.27.71,4.18,4.18,0,0,0,1.36.25,2.49,2.49,0,0,0,1.4-.34,1,1,0,0,0,.5-.9,1,1,0,0,0-.24-.71,1.61,1.61,0,0,0-.72-.36,7.2,7.2,0,0,0-.79-.16l-.91-.16a2.68,2.68,0,0,1-1.43-.7,1.91,1.91,0,0,1,.31-2.79,3.15,3.15,0,0,1,2-.58,6.3,6.3,0,0,1,1.41.15,6.45,6.45,0,0,1,1.13.36v1.14h-.07a3.36,3.36,0,0,0-1.09-.58,4.24,4.24,0,0,0-1.38-.23,2.17,2.17,0,0,0-1.25.32,1,1,0,0,0-.47.83,1,1,0,0,0,.23.71,1.59,1.59,0,0,0,.83.4l.89.17q.58.1,1,.2a2.53,2.53,0,0,1,1.22.65A1.7,1.7,0,0,1,287.7,281.06Zm2.63-4.29h-1v-1h1Zm-.06,6.37h-.92v-5.45h.92Zm6,0h-4.4v-.68l3.18-4H292v-.77h4.25v.65l-3.19,4h3.28Zm5.61-2.63h-4a2.32,2.32,0,0,0,.15.88,1.62,1.62,0,0,0,1,1,2.4,2.4,0,0,0,.77.12,3,3,0,0,0,1.12-.22,2.76,2.76,0,0,0,.8-.44h0v1a7.57,7.57,0,0,1-.95.33,3.84,3.84,0,0,1-1,.13,2.93,2.93,0,0,1-2.12-.73,2.77,2.77,0,0,1-.76-2.09,3,3,0,0,1,.73-2.12,2.5,2.5,0,0,1,1.92-.79,2.21,2.21,0,0,1,1.7.64,2.59,2.59,0,0,1,.6,1.83Zm-.89-.7a1.62,1.62,0,0,0-.36-1.12,1.4,1.4,0,0,0-1.09-.4,1.59,1.59,0,0,0-1.17.43,1.69,1.69,0,0,0-.5,1.08Z" transform="translate(-1.5 -1.5)"/></g><g class="cls-44"><path class="cls-4" d="M271,292v18h75V292Z" transform="translate(-1.5 -1.5)"/></g><g class="cls-45"><path d="M287.72,298.79a3.31,3.31,0,0,1,.68,1.2,5.05,5.05,0,0,1,.24,1.61,5,5,0,0,1-.24,1.61,3.29,3.29,0,0,1-.68,1.18,2.89,2.89,0,0,1-1.06.74,4,4,0,0,1-2.79,0,2.88,2.88,0,0,1-1.07-.74,3.31,3.31,0,0,1-.68-1.19,5.55,5.55,0,0,1,0-3.2,3.39,3.39,0,0,1,.68-1.21,2.8,2.8,0,0,1,1.07-.73,3.72,3.72,0,0,1,1.39-.25,3.66,3.66,0,0,1,1.4.26A2.92,2.92,0,0,1,287.72,298.79Zm-.09,2.8a3.35,3.35,0,0,0-.63-2.19,2.35,2.35,0,0,0-3.47,0,3.35,3.35,0,0,0-.63,2.19,3.3,3.3,0,0,0,.64,2.19,2.34,2.34,0,0,0,3.45,0A3.3,3.3,0,0,0,287.63,301.59Zm5.43,3.58a5,5,0,0,1-.56.11,3.86,3.86,0,0,1-.54,0,1.69,1.69,0,0,1-1.27-.45,2,2,0,0,1-.43-1.44v-2.9h-.62v-.77h.62V298.2h.92v1.57h1.89v.77h-1.89V303q0,.43,0,.67a1.1,1.1,0,0,0,.14.45.66.66,0,0,0,.3.29,1.39,1.39,0,0,0,.57.09,1.8,1.8,0,0,0,.47-.07l.35-.11h0Zm5.73,0h-.92v-3.11a5.35,5.35,0,0,0,0-.71,1.29,1.29,0,0,0-.16-.52.74.74,0,0,0-.35-.31,1.5,1.5,0,0,0-.6-.1,1.91,1.91,0,0,0-.79.19,4,4,0,0,0-.79.47v4.07h-.92v-7.6h.92v2.75a3.73,3.73,0,0,1,.89-.56,2.33,2.33,0,0,1,.94-.2,1.69,1.69,0,0,1,1.35.53,2.27,2.27,0,0,1,.46,1.53Zm6-2.63h-4a2.32,2.32,0,0,0,.15.88,1.62,1.62,0,0,0,1,1,2.4,2.4,0,0,0,.77.12,3,3,0,0,0,1.12-.22,2.76,2.76,0,0,0,.8-.44h0v1a7.58,7.58,0,0,1-.95.33,3.84,3.84,0,0,1-1,.13,2.93,2.93,0,0,1-2.12-.73,2.77,2.77,0,0,1-.76-2.09,3,3,0,0,1,.73-2.12,2.5,2.5,0,0,1,1.92-.79,2.21,2.21,0,0,1,1.7.64,2.59,2.59,0,0,1,.6,1.83Zm-.89-.7a1.62,1.62,0,0,0-.36-1.12,1.4,1.4,0,0,0-1.09-.4,1.59,1.59,0,0,0-1.17.43,1.69,1.69,0,0,0-.5,1.08Zm5.73-1.12h0l-.4-.07-.46,0a1.89,1.89,0,0,0-.82.19,3.78,3.78,0,0,0-.76.49v3.87h-.92v-5.45h.92v.81a4.5,4.5,0,0,1,1-.62,2.1,2.1,0,0,1,.85-.18h.35l.32,0Zm5.27,4.45h-4.6V298h1v6.41h3.63Zm2.31-6.37h-1v-1h1Zm-.06,6.37h-.92v-5.45h.92Zm6.63,0h-.92v-3.11a5.35,5.35,0,0,0,0-.71,1.29,1.29,0,0,0-.16-.52.74.74,0,0,0-.35-.31,1.5,1.5,0,0,0-.6-.1,1.91,1.91,0,0,0-.79.19,4,4,0,0,0-.79.47v4.07h-.92v-5.45h.92v.61a3.73,3.73,0,0,1,.89-.56,2.33,2.33,0,0,1,.94-.2,1.69,1.69,0,0,1,1.35.53,2.27,2.27,0,0,1,.46,1.53Zm6.39,0H329l-2.19-2.39-.6.57v1.82h-.92v-7.6h.92v4.87l2.65-2.73H330l-2.53,2.52Zm4.95-1.57a1.48,1.48,0,0,1-.62,1.23,2.69,2.69,0,0,1-1.69.48,4,4,0,0,1-1.11-.14,5,5,0,0,1-.85-.31v-1h0a3.68,3.68,0,0,0,1,.52,3,3,0,0,0,1,.19,1.92,1.92,0,0,0,.95-.2.66.66,0,0,0,.34-.62.62.62,0,0,0-.19-.49,1.67,1.67,0,0,0-.71-.28l-.51-.1-.57-.13a1.91,1.91,0,0,1-1-.56,1.39,1.39,0,0,1-.3-.91,1.48,1.48,0,0,1,.14-.63,1.53,1.53,0,0,1,.42-.53,2,2,0,0,1,.7-.36,3.11,3.11,0,0,1,.94-.13,4.24,4.24,0,0,1,1,.12,3.73,3.73,0,0,1,.83.29v1h0a3.28,3.28,0,0,0-.85-.44,2.94,2.94,0,0,0-1-.18,1.73,1.73,0,0,0-.85.19.68.68,0,0,0-.14,1.08,1.64,1.64,0,0,0,.66.28l.57.12.52.11a1.94,1.94,0,0,1,1,.5A1.32,1.32,0,0,1,335.12,303.65Z" transform="translate(-1.5 -1.5)"/></g><g class="cls-46"><path class="cls-4" d="M271,314v18h91V314Z" transform="translate(-1.5 -1.5)"/></g><g class="cls-47"><path d="M287.7,325.05a1.93,1.93,0,0,1-.2.84,2,2,0,0,1-.55.7,3,3,0,0,1-.91.49,3.93,3.93,0,0,1-1.25.18,6.24,6.24,0,0,1-1.41-.15,7.17,7.17,0,0,1-1.28-.43v-1.21h.07a4,4,0,0,0,1.27.71,4.18,4.18,0,0,0,1.36.25,2.49,2.49,0,0,0,1.4-.34,1,1,0,0,0,.5-.9,1,1,0,0,0-.24-.71,1.61,1.61,0,0,0-.72-.36,7.17,7.17,0,0,0-.79-.16l-.91-.16a2.68,2.68,0,0,1-1.43-.7,1.91,1.91,0,0,1,.31-2.79,3.16,3.16,0,0,1,2-.58,6.3,6.3,0,0,1,1.41.15,6.44,6.44,0,0,1,1.13.36v1.14h-.07a3.36,3.36,0,0,0-1.09-.58,4.24,4.24,0,0,0-1.38-.23,2.17,2.17,0,0,0-1.25.32,1,1,0,0,0-.47.83,1,1,0,0,0,.23.71,1.59,1.59,0,0,0,.83.4l.89.17q.58.1,1,.2a2.53,2.53,0,0,1,1.22.65A1.7,1.7,0,0,1,287.7,325.05Zm4.48,2a5,5,0,0,1-.56.11,3.86,3.86,0,0,1-.54,0,1.69,1.69,0,0,1-1.27-.45,2,2,0,0,1-.43-1.44v-2.9h-.62v-.77h.62V320.1h.92v1.57h1.89v.77h-1.89v2.49q0,.43,0,.67a1.1,1.1,0,0,0,.14.45.66.66,0,0,0,.3.29,1.39,1.39,0,0,0,.57.09,1.8,1.8,0,0,0,.47-.07l.35-.11h0Zm5.41,0h-.91v-.58l-.33.23a2.35,2.35,0,0,1-.4.24,2.73,2.73,0,0,1-.53.19,2.86,2.86,0,0,1-.7.08,1.75,1.75,0,0,1-1.25-.49,1.64,1.64,0,0,1-.51-1.25,1.73,1.73,0,0,1,.27-1,1.78,1.78,0,0,1,.76-.6,4.1,4.1,0,0,1,1.2-.3q.7-.08,1.5-.12v-.14a1.09,1.09,0,0,0-.11-.52.8.8,0,0,0-.31-.32,1.3,1.3,0,0,0-.47-.15,4,4,0,0,0-.57,0,3.88,3.88,0,0,0-.81.1,6.27,6.27,0,0,0-.92.28h0v-.93q.27-.07.78-.16a5.86,5.86,0,0,1,1-.09,4.66,4.66,0,0,1,1,.1,2,2,0,0,1,.74.32,1.44,1.44,0,0,1,.47.58,2.14,2.14,0,0,1,.16.88Zm-.91-1.34v-1.52l-1,.07a5.12,5.12,0,0,0-.9.14,1.48,1.48,0,0,0-.64.35,1,1,0,0,0,0,1.36,1.33,1.33,0,0,0,.86.24,2.05,2.05,0,0,0,.88-.19A4,4,0,0,0,296.67,325.78Zm6.08-3.11h0l-.4-.07-.46,0a1.89,1.89,0,0,0-.82.19,3.78,3.78,0,0,0-.76.49v3.87h-.92v-5.45h.92v.81a4.5,4.5,0,0,1,1-.62,2.1,2.1,0,0,1,.85-.18h.35l.32,0Zm3.43,4.4a5,5,0,0,1-.56.11,3.86,3.86,0,0,1-.54,0,1.69,1.69,0,0,1-1.27-.45,2,2,0,0,1-.43-1.44v-2.9h-.62v-.77h.62V320.1h.92v1.57h1.89v.77h-1.89v2.49q0,.43,0,.67a1.1,1.1,0,0,0,.14.45.66.66,0,0,0,.3.29,1.39,1.39,0,0,0,.57.09,1.8,1.8,0,0,0,.47-.07l.35-.11h0Zm7.38-3.58a3.74,3.74,0,0,1-.43,1.8,3.23,3.23,0,0,1-1.15,1.25,3.58,3.58,0,0,1-1.11.44,7.68,7.68,0,0,1-1.61.14h-1.84v-7.27h1.82a7.4,7.4,0,0,1,1.69.15,3.68,3.68,0,0,1,1.06.42,3.25,3.25,0,0,1,1.16,1.24A3.81,3.81,0,0,1,313.56,323.5Zm-1,0a3.15,3.15,0,0,0-.3-1.44,2.19,2.19,0,0,0-.89-.92,3,3,0,0,0-.91-.34,6.08,6.08,0,0,0-1.16-.1h-.91v5.61h.91a6.36,6.36,0,0,0,1.22-.1,2.73,2.73,0,0,0,1-.38,2.19,2.19,0,0,0,.81-.91A3.27,3.27,0,0,0,312.55,323.48Zm7,3.64h-.91v-.58l-.33.23a2.35,2.35,0,0,1-.4.24,2.73,2.73,0,0,1-.53.19,2.86,2.86,0,0,1-.7.08,1.75,1.75,0,0,1-1.25-.49,1.64,1.64,0,0,1-.51-1.25,1.73,1.73,0,0,1,.27-1,1.78,1.78,0,0,1,.76-.6,4.1,4.1,0,0,1,1.2-.3q.7-.08,1.5-.12v-.14a1.09,1.09,0,0,0-.11-.52.8.8,0,0,0-.31-.32,1.3,1.3,0,0,0-.47-.15,4,4,0,0,0-.57,0,3.88,3.88,0,0,0-.81.1,6.27,6.27,0,0,0-.92.28h0v-.93q.27-.07.78-.16a5.86,5.86,0,0,1,1-.09,4.66,4.66,0,0,1,1,.1,2,2,0,0,1,.74.32,1.44,1.44,0,0,1,.47.58,2.14,2.14,0,0,1,.16.88Zm-.91-1.34v-1.52l-1,.07a5.12,5.12,0,0,0-.9.14,1.48,1.48,0,0,0-.64.35,1,1,0,0,0,0,1.36,1.33,1.33,0,0,0,.86.24,2.05,2.05,0,0,0,.88-.19A4,4,0,0,0,318.67,325.78Zm5.51,1.29a5,5,0,0,1-.56.11,3.86,3.86,0,0,1-.54,0,1.69,1.69,0,0,1-1.27-.45,2,2,0,0,1-.43-1.44v-2.9h-.62v-.77h.62V320.1h.92v1.57h1.89v.77h-1.89v2.49q0,.43,0,.67a1.1,1.1,0,0,0,.14.45.66.66,0,0,0,.3.29,1.39,1.39,0,0,0,.57.09,1.8,1.8,0,0,0,.47-.07l.35-.11h0Zm5.73-2.58h-4a2.32,2.32,0,0,0,.15.88,1.62,1.62,0,0,0,1,1,2.4,2.4,0,0,0,.77.12,3,3,0,0,0,1.12-.22,2.76,2.76,0,0,0,.8-.44h0v1a7.58,7.58,0,0,1-.95.33,3.84,3.84,0,0,1-1,.13,2.93,2.93,0,0,1-2.12-.73,2.77,2.77,0,0,1-.76-2.09,3,3,0,0,1,.73-2.12,2.5,2.5,0,0,1,1.92-.79,2.21,2.21,0,0,1,1.7.64,2.59,2.59,0,0,1,.6,1.83Zm-.89-.7a1.62,1.62,0,0,0-.36-1.12,1.4,1.4,0,0,0-1.09-.4,1.59,1.59,0,0,0-1.17.43,1.69,1.69,0,0,0-.5,1.08Zm7.59-3.08H334v6.41h-1v-6.41h-2.6v-.86h6.16Zm1.73,0h-1v-1h1Zm-.06,6.37h-.92v-5.45h.92Zm6.63,0H344V324a5.35,5.35,0,0,0,0-.71,1.29,1.29,0,0,0-.16-.52.74.74,0,0,0-.35-.31,1.5,1.5,0,0,0-.6-.1,1.91,1.91,0,0,0-.79.19,4,4,0,0,0-.79.47v4.07h-.92v-5.45h.92v.61a3.73,3.73,0,0,1,.89-.56,2.33,2.33,0,0,1,.94-.2,1.69,1.69,0,0,1,1.35.53,2.27,2.27,0,0,1,.46,1.53Zm6-2.63h-4a2.32,2.32,0,0,0,.15.88,1.62,1.62,0,0,0,1,1,2.4,2.4,0,0,0,.77.12,3,3,0,0,0,1.12-.22,2.76,2.76,0,0,0,.8-.44h0v1a7.58,7.58,0,0,1-.95.33,3.84,3.84,0,0,1-1,.13,2.93,2.93,0,0,1-2.12-.73,2.77,2.77,0,0,1-.76-2.09,3,3,0,0,1,.73-2.12,2.5,2.5,0,0,1,1.92-.79,2.21,2.21,0,0,1,1.7.64,2.59,2.59,0,0,1,.6,1.83Zm-.89-.7a1.62,1.62,0,0,0-.36-1.12,1.4,1.4,0,0,0-1.09-.4,1.59,1.59,0,0,0-1.17.43,1.69,1.69,0,0,0-.5,1.08Z" transform="translate(-1.5 -1.5)"/></g><g class="cls-48"><path class="cls-4" d="M546.65,154v14a4,4,0,0,0,4,4H556" transform="translate(-1.5 -1.5)"/></g><g class="cls-48"><path class="cls-4" d="M546.65,154v36a4,4,0,0,0,4,4H556" transform="translate(-1.5 -1.5)"/></g><g class="cls-48"><path class="cls-4" d="M546.65,154v58a4,4,0,0,0,4,4H556" transform="translate(-1.5 -1.5)"/></g><g class="cls-48"><path class="cls-4" d="M546.65,154v80a4,4,0,0,0,4,4H556" transform="translate(-1.5 -1.5)"/></g><g class="cls-48"><path class="cls-4" d="M546.65,154V256a4,4,0,0,0,4,4H556" transform="translate(-1.5 -1.5)"/></g><g class="cls-49"><path class="cls-4" d="M546.58,141l.07,13" transform="translate(-1.5 -1.5)"/></g><g class="cls-50"><path class="cls-9" d="M477,109v32H616V109Z" transform="translate(-1.5 -1.5)"/></g><g class="cls-50"><path class="cls-4" d="M477,109v32H616V109Z" transform="translate(-1.5 -1.5)"/></g><g class="cls-51"><path d="M499.66,124.2a4.86,4.86,0,0,1-.56,2.34,4.19,4.19,0,0,1-1.49,1.63,4.65,4.65,0,0,1-1.44.58,10,10,0,0,1-2.1.18h-2.39v-9.45H494a9.62,9.62,0,0,1,2.2.2,4.78,4.78,0,0,1,1.38.55,4.22,4.22,0,0,1,1.5,1.61A5,5,0,0,1,499.66,124.2Zm-1.31,0a4.1,4.1,0,0,0-.39-1.87,2.84,2.84,0,0,0-1.16-1.2,3.92,3.92,0,0,0-1.19-.44,7.9,7.9,0,0,0-1.5-.12h-1.18v7.29h1.18a8.27,8.27,0,0,0,1.58-.13,3.55,3.55,0,0,0,1.24-.5A2.84,2.84,0,0,0,498,126,4.26,4.26,0,0,0,498.34,124.18Zm9.17,1.31h-5.22a3,3,0,0,0,.2,1.14,2.11,2.11,0,0,0,1.32,1.25,3.13,3.13,0,0,0,1,.15,4,4,0,0,0,1.46-.29,3.59,3.59,0,0,0,1-.57h.06v1.3a9.85,9.85,0,0,1-1.23.43,5,5,0,0,1-1.32.17,3.8,3.8,0,0,1-2.75-1,3.6,3.6,0,0,1-1-2.71,3.9,3.9,0,0,1,.95-2.76,3.25,3.25,0,0,1,2.5-1,2.87,2.87,0,0,1,2.21.84,3.37,3.37,0,0,1,.78,2.38Zm-1.16-.91a2.11,2.11,0,0,0-.47-1.45,1.82,1.82,0,0,0-1.42-.51,2.07,2.07,0,0,0-1.53.56,2.19,2.19,0,0,0-.64,1.4Zm8.29,2.29a1.93,1.93,0,0,1-.8,1.59,3.5,3.5,0,0,1-2.19.62,5.26,5.26,0,0,1-1.44-.19,6.44,6.44,0,0,1-1.1-.41v-1.34h.06a4.79,4.79,0,0,0,1.26.68,3.89,3.89,0,0,0,1.33.25,2.5,2.5,0,0,0,1.23-.25.86.86,0,0,0,.44-.8.81.81,0,0,0-.24-.63,2.17,2.17,0,0,0-.93-.37l-.66-.13-.75-.17a2.48,2.48,0,0,1-1.32-.73,1.8,1.8,0,0,1-.39-1.18,1.93,1.93,0,0,1,.18-.83,2,2,0,0,1,.55-.69,2.63,2.63,0,0,1,.9-.47,4,4,0,0,1,1.23-.17,5.52,5.52,0,0,1,1.29.16,4.85,4.85,0,0,1,1.08.38v1.28h-.06a4.27,4.27,0,0,0-1.11-.57,3.82,3.82,0,0,0-1.28-.23,2.24,2.24,0,0,0-1.1.25.88.88,0,0,0-.18,1.41,2.13,2.13,0,0,0,.86.36l.74.15.68.14a2.53,2.53,0,0,1,1.28.65A1.72,1.72,0,0,1,514.64,126.87Zm3.22-6.23h-1.35V119.4h1.35Zm-.08,8.28h-1.19v-7.09h1.19Zm8.54-.81a3.69,3.69,0,0,1-.82,2.65,3.37,3.37,0,0,1-2.52.84,7.52,7.52,0,0,1-1.1-.08,8.53,8.53,0,0,1-1.06-.23v-1.22h.06a9.42,9.42,0,0,0,.93.28,4.94,4.94,0,0,0,1.27.17,3,3,0,0,0,1-.15,1.42,1.42,0,0,0,.94-1,3,3,0,0,0,.1-.78V128a4.61,4.61,0,0,1-1,.64,3.18,3.18,0,0,1-1.25.21,2.46,2.46,0,0,1-2-.92,4,4,0,0,1-.75-2.59,4.36,4.36,0,0,1,.26-1.58,3.58,3.58,0,0,1,.7-1.15,2.85,2.85,0,0,1,1-.7,3,3,0,0,1,1.17-.25,3.67,3.67,0,0,1,1,.12,4.54,4.54,0,0,1,.88.38l.08-.3h1.12ZM525.13,127V123.1a4.62,4.62,0,0,0-.89-.31,3.71,3.71,0,0,0-.82-.09,1.93,1.93,0,0,0-1.55.66,2.87,2.87,0,0,0-.56,1.92,3.22,3.22,0,0,0,.42,1.81,1.56,1.56,0,0,0,1.39.62,2.91,2.91,0,0,0,1-.2A3.79,3.79,0,0,0,525.13,127Zm9.37,1.95h-1.19v-4a7,7,0,0,0-.06-.92,1.68,1.68,0,0,0-.21-.67,1,1,0,0,0-.46-.4,2,2,0,0,0-.77-.13,2.48,2.48,0,0,0-1,.24,5.21,5.21,0,0,0-1,.62v5.29h-1.19v-7.09h1.19v.79a4.85,4.85,0,0,1,1.16-.72,3,3,0,0,1,1.23-.26,2.2,2.2,0,0,1,1.75.69,3,3,0,0,1,.6,2Zm8.39,0h-6.23v-9.45h6.23v1.12h-5v2.59h5v1.12h-5v3.51h5Zm7.81-7.09-2.87,7.09h-1.2l-2.85-7.09h1.29l2.2,5.64,2.18-5.64Zm7.8,3.67h-5.22a3,3,0,0,0,.2,1.14,2.11,2.11,0,0,0,1.32,1.25,3.13,3.13,0,0,0,1,.15,4,4,0,0,0,1.46-.29,3.59,3.59,0,0,0,1-.57h.06v1.3a9.85,9.85,0,0,1-1.23.43,5,5,0,0,1-1.32.17,3.8,3.8,0,0,1-2.75-1,3.6,3.6,0,0,1-1-2.71,3.9,3.9,0,0,1,.95-2.76,3.25,3.25,0,0,1,2.5-1,2.87,2.87,0,0,1,2.21.84,3.37,3.37,0,0,1,.78,2.38Zm-1.16-.91a2.11,2.11,0,0,0-.47-1.45,1.82,1.82,0,0,0-1.42-.51,2.07,2.07,0,0,0-1.53.56,2.19,2.19,0,0,0-.64,1.4Zm9.16,4.34h-1.19v-4a7,7,0,0,0-.06-.92,1.68,1.68,0,0,0-.21-.67,1,1,0,0,0-.46-.4,2,2,0,0,0-.77-.13,2.48,2.48,0,0,0-1,.24,5.21,5.21,0,0,0-1,.62v5.29h-1.19v-7.09h1.19v.79a4.85,4.85,0,0,1,1.16-.72,3,3,0,0,1,1.23-.26,2.2,2.2,0,0,1,1.75.69,3,3,0,0,1,.6,2Zm5.75-.06a6.51,6.51,0,0,1-.73.15,5,5,0,0,1-.71.06,2.19,2.19,0,0,1-1.65-.58,2.62,2.62,0,0,1-.56-1.87v-3.77h-.81v-1h.81v-2h1.19v2h2.46v1H569.8v3.23q0,.56,0,.87a1.43,1.43,0,0,0,.18.59.86.86,0,0,0,.38.37,1.8,1.8,0,0,0,.75.12,2.34,2.34,0,0,0,.61-.09l.46-.14h.06Zm6.38-2a1.93,1.93,0,0,1-.8,1.59,3.5,3.5,0,0,1-2.19.62,5.26,5.26,0,0,1-1.44-.19,6.44,6.44,0,0,1-1.1-.41v-1.34h.06a4.79,4.79,0,0,0,1.26.68,3.89,3.89,0,0,0,1.33.25,2.5,2.5,0,0,0,1.23-.25.86.86,0,0,0,.44-.8.81.81,0,0,0-.24-.63,2.17,2.17,0,0,0-.93-.37l-.66-.13-.75-.17a2.48,2.48,0,0,1-1.32-.73,1.8,1.8,0,0,1-.39-1.18,1.93,1.93,0,0,1,.18-.83,2,2,0,0,1,.55-.69,2.63,2.63,0,0,1,.9-.47,4,4,0,0,1,1.23-.17,5.52,5.52,0,0,1,1.29.16,4.85,4.85,0,0,1,1.08.38v1.28h-.06a4.27,4.27,0,0,0-1.11-.57,3.82,3.82,0,0,0-1.28-.23,2.24,2.24,0,0,0-1.1.25.88.88,0,0,0-.18,1.41,2.13,2.13,0,0,0,.86.36l.74.15.68.14a2.53,2.53,0,0,1,1.28.65A1.72,1.72,0,0,1,578.64,126.87Zm8,2h-6v-9.45h1.26v8.33h4.72Zm7-3.54a4,4,0,0,1-.89,2.74,3.34,3.34,0,0,1-4.77,0,4.67,4.67,0,0,1,0-5.47,3.33,3.33,0,0,1,4.77,0A4,4,0,0,1,593.62,125.37Zm-1.23,0a3.23,3.23,0,0,0-.54-2,2,2,0,0,0-3,0,4.12,4.12,0,0,0,0,4.07,2,2,0,0,0,3,0A3.21,3.21,0,0,0,592.39,125.37Zm8.94,2.74a3.69,3.69,0,0,1-.82,2.65,3.37,3.37,0,0,1-2.52.84,7.52,7.52,0,0,1-1.1-.08,8.53,8.53,0,0,1-1.06-.23v-1.22h.06a9.42,9.42,0,0,0,.93.28,4.94,4.94,0,0,0,1.27.17,3,3,0,0,0,1-.15,1.42,1.42,0,0,0,.94-1,3,3,0,0,0,.1-.78V128a4.61,4.61,0,0,1-1,.64,3.18,3.18,0,0,1-1.25.21,2.46,2.46,0,0,1-2-.92,4,4,0,0,1-.75-2.59,4.36,4.36,0,0,1,.26-1.58,3.58,3.58,0,0,1,.7-1.15,2.85,2.85,0,0,1,1-.7,3,3,0,0,1,1.17-.25,3.67,3.67,0,0,1,1,.12,4.54,4.54,0,0,1,.88.38l.08-.3h1.12ZM600.13,127V123.1a4.62,4.62,0,0,0-.89-.31,3.71,3.71,0,0,0-.82-.09,1.93,1.93,0,0,0-1.55.66,2.87,2.87,0,0,0-.56,1.92,3.22,3.22,0,0,0,.42,1.81,1.56,1.56,0,0,0,1.39.62,2.91,2.91,0,0,0,1-.2A3.79,3.79,0,0,0,600.13,127Z" transform="translate(-1.5 -1.5)"/></g><g class="cls-52"><path class="cls-12" d="M551.5,148a4.5,4.5,0,1,0-4.5,4.5A4.5,4.5,0,0,0,551.5,148Z" transform="translate(-1.5 -1.5)"/></g><g class="cls-52"><path class="cls-4" d="M551.5,148a4.5,4.5,0,1,0-4.5,4.5A4.5,4.5,0,0,0,551.5,148Z" transform="translate(-1.5 -1.5)"/></g><g class="cls-52"><path class="cls-13" d="M545,148h4" transform="translate(-1.5 -1.5)"/></g><g class="cls-53"><path class="cls-4" d="M556,163v18h51V163Z" transform="translate(-1.5 -1.5)"/></g><g class="cls-54"><path d="M572,175.1h-4.6v-7.27h1v6.41H572Zm6-2.72a3.06,3.06,0,0,1-.68,2.1,2.57,2.57,0,0,1-3.67,0,3.6,3.6,0,0,1,0-4.21,2.56,2.56,0,0,1,3.67,0A3.07,3.07,0,0,1,578,172.38Zm-.95,0a2.48,2.48,0,0,0-.42-1.57,1.55,1.55,0,0,0-2.31,0,3.17,3.17,0,0,0,0,3.13,1.53,1.53,0,0,0,2.31,0A2.47,2.47,0,0,0,577.06,172.38Zm6.72,2.1a2.84,2.84,0,0,1-.63,2,2.59,2.59,0,0,1-1.94.65,5.78,5.78,0,0,1-.85-.06,6.56,6.56,0,0,1-.81-.17V176h0a7.24,7.24,0,0,0,.71.22,3.8,3.8,0,0,0,1,.13,2.29,2.29,0,0,0,.78-.11,1.1,1.1,0,0,0,.72-.77,2.28,2.28,0,0,0,.07-.6v-.5a3.54,3.54,0,0,1-.79.5,2.45,2.45,0,0,1-1,.16,1.89,1.89,0,0,1-1.55-.71,3.08,3.08,0,0,1-.57-2,3.36,3.36,0,0,1,.2-1.21,2.75,2.75,0,0,1,.54-.88,2.19,2.19,0,0,1,.77-.54,2.3,2.3,0,0,1,.9-.19,2.82,2.82,0,0,1,.79.1,3.49,3.49,0,0,1,.68.29l.06-.23h.86Zm-.92-.88v-3a3.56,3.56,0,0,0-.68-.24,2.85,2.85,0,0,0-.63-.07,1.49,1.49,0,0,0-1.19.51,2.21,2.21,0,0,0-.43,1.47,2.48,2.48,0,0,0,.32,1.39,1.2,1.2,0,0,0,1.07.47,2.24,2.24,0,0,0,.8-.15A2.91,2.91,0,0,0,582.86,173.6Zm5.13,1.5h-2.87v-.74h1v-5.79h-1v-.74H588v.74h-1v5.79h1Zm7.58-3.63a3.74,3.74,0,0,1-.43,1.8,3.23,3.23,0,0,1-1.15,1.25,3.58,3.58,0,0,1-1.11.44,7.68,7.68,0,0,1-1.61.14h-1.84v-7.27h1.82a7.4,7.4,0,0,1,1.69.15,3.68,3.68,0,0,1,1.06.42,3.25,3.25,0,0,1,1.16,1.24A3.81,3.81,0,0,1,595.57,171.47Zm-1,0a3.16,3.16,0,0,0-.3-1.44,2.19,2.19,0,0,0-.89-.92,3,3,0,0,0-.91-.34,6.08,6.08,0,0,0-1.16-.1h-.91v5.61h.91a6.36,6.36,0,0,0,1.22-.1,2.73,2.73,0,0,0,1-.38,2.19,2.19,0,0,0,.81-.91A3.27,3.27,0,0,0,594.56,171.46Z" transform="translate(-1.5 -1.5)"/></g><g class="cls-55"><path class="cls-4" d="M556,185v18h55V185Z" transform="translate(-1.5 -1.5)"/></g><g class="cls-56"><path d="M573,195.14a4.9,4.9,0,0,1-.17,1.38,2.23,2.23,0,0,1-.57,1,2.28,2.28,0,0,1-.88.54,3.64,3.64,0,0,1-1.17.17A3.55,3.55,0,0,1,569,198a2.23,2.23,0,0,1-.85-.53,2.32,2.32,0,0,1-.57-1,4.81,4.81,0,0,1-.17-1.39v-4.35h1v4.4a4.25,4.25,0,0,0,.08.93,1.83,1.83,0,0,0,.27.62,1.33,1.33,0,0,0,.58.48,2.2,2.2,0,0,0,.89.16,2.23,2.23,0,0,0,.89-.16,1.34,1.34,0,0,0,.59-.48,1.82,1.82,0,0,0,.27-.64,4.15,4.15,0,0,0,.08-.89v-4.42h1Zm5.35,1.35a1.48,1.48,0,0,1-.62,1.23,2.69,2.69,0,0,1-1.69.48,4,4,0,0,1-1.11-.14,5,5,0,0,1-.85-.31v-1h0a3.68,3.68,0,0,0,1,.52,3,3,0,0,0,1,.19,1.92,1.92,0,0,0,.95-.2.66.66,0,0,0,.34-.62.62.62,0,0,0-.19-.49,1.67,1.67,0,0,0-.71-.28l-.51-.1-.57-.13a1.91,1.91,0,0,1-1-.56,1.39,1.39,0,0,1-.3-.91,1.48,1.48,0,0,1,.14-.63,1.53,1.53,0,0,1,.42-.53,2,2,0,0,1,.7-.36,3.11,3.11,0,0,1,.94-.13,4.24,4.24,0,0,1,1,.12,3.73,3.73,0,0,1,.83.29v1h0a3.28,3.28,0,0,0-.85-.44,2.94,2.94,0,0,0-1-.18,1.73,1.73,0,0,0-.85.19.68.68,0,0,0-.14,1.08,1.64,1.64,0,0,0,.66.28l.57.12.52.11a1.94,1.94,0,0,1,1,.5A1.32,1.32,0,0,1,578.31,196.49Zm5.67-1.06h-4a2.33,2.33,0,0,0,.15.88,1.62,1.62,0,0,0,1,1,2.4,2.4,0,0,0,.77.12,3,3,0,0,0,1.12-.22,2.76,2.76,0,0,0,.8-.44h0v1a7.57,7.57,0,0,1-.95.33,3.84,3.84,0,0,1-1,.13,2.93,2.93,0,0,1-2.12-.73,2.77,2.77,0,0,1-.76-2.09,3,3,0,0,1,.73-2.12,2.5,2.5,0,0,1,1.92-.79,2.21,2.21,0,0,1,1.7.64,2.59,2.59,0,0,1,.6,1.83Zm-.89-.7a1.62,1.62,0,0,0-.36-1.12,1.4,1.4,0,0,0-1.09-.4,1.59,1.59,0,0,0-1.17.43,1.69,1.69,0,0,0-.5,1.08Zm5.73-1.12h0l-.4-.07-.46,0a1.89,1.89,0,0,0-.82.19,3.78,3.78,0,0,0-.76.49v3.87h-.92v-5.45h.92v.81a4.5,4.5,0,0,1,1-.62,2.1,2.1,0,0,1,.85-.18h.35l.32,0Zm3.23,4.45h-2.87v-.74h1v-5.79h-1v-.74H592v.74h-1v5.79h1Zm7.58-3.63a3.74,3.74,0,0,1-.43,1.8,3.23,3.23,0,0,1-1.15,1.25,3.58,3.58,0,0,1-1.11.44,7.68,7.68,0,0,1-1.61.14h-1.84v-7.27h1.82a7.4,7.4,0,0,1,1.69.15,3.68,3.68,0,0,1,1.06.42,3.25,3.25,0,0,1,1.16,1.24A3.81,3.81,0,0,1,599.63,194.43Zm-1,0a3.16,3.16,0,0,0-.3-1.44,2.19,2.19,0,0,0-.89-.92,3,3,0,0,0-.91-.34,6.08,6.08,0,0,0-1.16-.1h-.91v5.61h.91a6.36,6.36,0,0,0,1.22-.1,2.73,2.73,0,0,0,1-.38,2.19,2.19,0,0,0,.81-.91A3.27,3.27,0,0,0,598.61,194.42Z" transform="translate(-1.5 -1.5)"/></g><g class="cls-57"><path class="cls-4" d="M556,207v18h61V207Z" transform="translate(-1.5 -1.5)"/></g><g class="cls-58"><path d="M572.22,220.07h-4.79V212.8h4.79v.86H568.4v2h3.82v.86H568.4v2.7h3.82Zm5.85-5.45-2.21,5.45h-.92l-2.19-5.45h1l1.69,4.34,1.67-4.34Zm5.85,2.82h-4a2.33,2.33,0,0,0,.15.88,1.62,1.62,0,0,0,1,1,2.4,2.4,0,0,0,.77.12,3,3,0,0,0,1.12-.22,2.76,2.76,0,0,0,.8-.44h0v1a7.57,7.57,0,0,1-.95.33,3.84,3.84,0,0,1-1,.13,2.93,2.93,0,0,1-2.12-.73,2.77,2.77,0,0,1-.76-2.09,3,3,0,0,1,.73-2.12,2.5,2.5,0,0,1,1.92-.79,2.21,2.21,0,0,1,1.7.64,2.59,2.59,0,0,1,.6,1.83Zm-.89-.7a1.62,1.62,0,0,0-.36-1.12,1.4,1.4,0,0,0-1.09-.4,1.59,1.59,0,0,0-1.17.43,1.69,1.69,0,0,0-.5,1.08Zm6.89,3.33H589V217a5.35,5.35,0,0,0,0-.71,1.29,1.29,0,0,0-.16-.52.74.74,0,0,0-.35-.31,1.5,1.5,0,0,0-.6-.1,1.91,1.91,0,0,0-.79.19,4,4,0,0,0-.79.47v4.07h-.92v-5.45h.92v.61a3.73,3.73,0,0,1,.89-.56,2.34,2.34,0,0,1,.94-.2,1.69,1.69,0,0,1,1.35.53,2.27,2.27,0,0,1,.46,1.53Zm4.27,0a5,5,0,0,1-.56.11,3.86,3.86,0,0,1-.54,0,1.69,1.69,0,0,1-1.27-.45,2,2,0,0,1-.43-1.44v-2.9h-.62v-.77h.62v-1.57h.92v1.57h1.89v.77h-1.89v2.49q0,.43,0,.67a1.1,1.1,0,0,0,.14.45.66.66,0,0,0,.3.29,1.39,1.39,0,0,0,.57.09,1.8,1.8,0,0,0,.47-.07l.35-.11h0Zm3.8,0h-2.87v-.74h1v-5.79h-1v-.74H598v.74h-1v5.79h1Zm7.58-3.63a3.74,3.74,0,0,1-.43,1.8,3.23,3.23,0,0,1-1.15,1.25,3.58,3.58,0,0,1-1.11.44,7.68,7.68,0,0,1-1.61.14h-1.84V212.8h1.82a7.4,7.4,0,0,1,1.69.15,3.68,3.68,0,0,1,1.06.42,3.25,3.25,0,0,1,1.16,1.24A3.81,3.81,0,0,1,605.57,216.44Zm-1,0a3.16,3.16,0,0,0-.3-1.44,2.19,2.19,0,0,0-.89-.92,3,3,0,0,0-.91-.34,6.08,6.08,0,0,0-1.16-.1h-.91v5.61h.91a6.36,6.36,0,0,0,1.22-.1,2.73,2.73,0,0,0,1-.38,2.19,2.19,0,0,0,.81-.91A3.27,3.27,0,0,0,604.56,216.43Z" transform="translate(-1.5 -1.5)"/></g><g class="cls-59"><path class="cls-4" d="M556,229v18h95V229Z" transform="translate(-1.5 -1.5)"/></g><g class="cls-60"><path d="M572.7,240.05a1.94,1.94,0,0,1-.2.84,2,2,0,0,1-.55.7,3,3,0,0,1-.91.49,3.93,3.93,0,0,1-1.25.18,6.24,6.24,0,0,1-1.41-.15,7.18,7.18,0,0,1-1.28-.43v-1.21h.07a4,4,0,0,0,1.27.71,4.18,4.18,0,0,0,1.36.25,2.49,2.49,0,0,0,1.4-.34,1,1,0,0,0,.5-.9,1,1,0,0,0-.24-.71,1.61,1.61,0,0,0-.72-.36,7.18,7.18,0,0,0-.79-.16l-.91-.16a2.68,2.68,0,0,1-1.43-.7,1.91,1.91,0,0,1,.31-2.79,3.15,3.15,0,0,1,2-.58,6.3,6.3,0,0,1,1.41.15,6.45,6.45,0,0,1,1.13.36v1.14h-.07a3.36,3.36,0,0,0-1.09-.58,4.24,4.24,0,0,0-1.38-.23,2.17,2.17,0,0,0-1.25.32,1,1,0,0,0-.47.83,1,1,0,0,0,.23.71,1.59,1.59,0,0,0,.83.4l.89.17q.58.1,1,.2a2.53,2.53,0,0,1,1.22.65A1.7,1.7,0,0,1,572.7,240.05Zm4.48,2a5,5,0,0,1-.56.11,3.86,3.86,0,0,1-.54,0,1.69,1.69,0,0,1-1.27-.45,2,2,0,0,1-.43-1.44v-2.9h-.62v-.77h.62V235.1h.92v1.57h1.89v.77h-1.89v2.49q0,.43,0,.67a1.1,1.1,0,0,0,.14.45.66.66,0,0,0,.3.29,1.39,1.39,0,0,0,.57.09,1.8,1.8,0,0,0,.47-.07l.35-.11h0Zm5.41,0h-.91v-.58l-.33.23a2.35,2.35,0,0,1-.4.24,2.73,2.73,0,0,1-.53.19,2.86,2.86,0,0,1-.7.08,1.75,1.75,0,0,1-1.25-.49,1.64,1.64,0,0,1-.51-1.25,1.72,1.72,0,0,1,.27-1,1.78,1.78,0,0,1,.76-.6,4.1,4.1,0,0,1,1.2-.3q.7-.08,1.5-.12v-.14a1.09,1.09,0,0,0-.11-.52.8.8,0,0,0-.31-.32,1.3,1.3,0,0,0-.47-.15,4,4,0,0,0-.57,0,3.88,3.88,0,0,0-.81.1,6.26,6.26,0,0,0-.92.28h0v-.93q.27-.07.78-.16a5.86,5.86,0,0,1,1-.09,4.66,4.66,0,0,1,1,.1,2,2,0,0,1,.74.32,1.44,1.44,0,0,1,.47.58,2.14,2.14,0,0,1,.16.88Zm-.91-1.34v-1.52l-1,.07a5.12,5.12,0,0,0-.9.14,1.48,1.48,0,0,0-.64.35,1,1,0,0,0,0,1.36,1.33,1.33,0,0,0,.86.24,2.05,2.05,0,0,0,.88-.19A4,4,0,0,0,581.67,240.78Zm6.08-3.11h0l-.4-.07-.46,0a1.89,1.89,0,0,0-.82.19,3.78,3.78,0,0,0-.76.49v3.87h-.92v-5.45h.92v.81a4.5,4.5,0,0,1,1-.62,2.1,2.1,0,0,1,.85-.18h.35l.32,0Zm3.43,4.4a5,5,0,0,1-.56.11,3.86,3.86,0,0,1-.54,0,1.69,1.69,0,0,1-1.27-.45,2,2,0,0,1-.43-1.44v-2.9h-.62v-.77h.62V235.1h.92v1.57h1.89v.77h-1.89v2.49q0,.43,0,.67a1.1,1.1,0,0,0,.14.45.66.66,0,0,0,.3.29,1.39,1.39,0,0,0,.57.09,1.8,1.8,0,0,0,.47-.07l.35-.11h0Zm7.38-3.58a3.74,3.74,0,0,1-.43,1.8,3.23,3.23,0,0,1-1.15,1.25,3.58,3.58,0,0,1-1.11.44,7.68,7.68,0,0,1-1.61.14h-1.84v-7.27h1.82a7.4,7.4,0,0,1,1.69.15,3.68,3.68,0,0,1,1.06.42,3.25,3.25,0,0,1,1.16,1.24A3.81,3.81,0,0,1,598.56,238.5Zm-1,0a3.16,3.16,0,0,0-.3-1.44,2.19,2.19,0,0,0-.89-.92,3,3,0,0,0-.91-.34,6.08,6.08,0,0,0-1.16-.1h-.91v5.61h.91a6.36,6.36,0,0,0,1.22-.1,2.73,2.73,0,0,0,1-.38,2.19,2.19,0,0,0,.81-.91A3.27,3.27,0,0,0,597.55,238.48Zm7,3.64h-.91v-.58l-.33.23a2.35,2.35,0,0,1-.4.24,2.73,2.73,0,0,1-.53.19,2.86,2.86,0,0,1-.7.08,1.75,1.75,0,0,1-1.25-.49,1.64,1.64,0,0,1-.51-1.25,1.72,1.72,0,0,1,.27-1,1.78,1.78,0,0,1,.76-.6,4.1,4.1,0,0,1,1.2-.3q.7-.08,1.5-.12v-.14a1.09,1.09,0,0,0-.11-.52.8.8,0,0,0-.31-.32,1.3,1.3,0,0,0-.47-.15,4,4,0,0,0-.57,0,3.88,3.88,0,0,0-.81.1,6.26,6.26,0,0,0-.92.28h0v-.93q.27-.07.78-.16a5.86,5.86,0,0,1,1-.09,4.66,4.66,0,0,1,1,.1,2,2,0,0,1,.74.32,1.44,1.44,0,0,1,.47.58,2.14,2.14,0,0,1,.16.88Zm-.91-1.34v-1.52l-1,.07a5.12,5.12,0,0,0-.9.14,1.48,1.48,0,0,0-.64.35,1,1,0,0,0,0,1.36,1.33,1.33,0,0,0,.86.24,2.05,2.05,0,0,0,.88-.19A4,4,0,0,0,603.67,240.78Zm5.51,1.29a5,5,0,0,1-.56.11,3.86,3.86,0,0,1-.54,0,1.69,1.69,0,0,1-1.27-.45,2,2,0,0,1-.43-1.44v-2.9h-.62v-.77h.62V235.1h.92v1.57h1.89v.77h-1.89v2.49q0,.43,0,.67a1.1,1.1,0,0,0,.14.45.66.66,0,0,0,.3.29,1.39,1.39,0,0,0,.57.09,1.8,1.8,0,0,0,.47-.07l.35-.11h0Zm5.73-2.58h-4a2.33,2.33,0,0,0,.15.88,1.62,1.62,0,0,0,1,1,2.4,2.4,0,0,0,.77.12,3,3,0,0,0,1.12-.22,2.76,2.76,0,0,0,.8-.44h0v1a7.57,7.57,0,0,1-.95.33,3.84,3.84,0,0,1-1,.13,2.93,2.93,0,0,1-2.12-.73,2.77,2.77,0,0,1-.76-2.09,3,3,0,0,1,.73-2.12,2.5,2.5,0,0,1,1.92-.79,2.21,2.21,0,0,1,1.7.64,2.59,2.59,0,0,1,.6,1.83Zm-.89-.7a1.62,1.62,0,0,0-.36-1.12,1.4,1.4,0,0,0-1.09-.4,1.59,1.59,0,0,0-1.17.43,1.69,1.69,0,0,0-.5,1.08Zm7.59-3.08H619v6.41h-1v-6.41h-2.6v-.86h6.16Zm1.73,0h-1v-1h1Zm-.06,6.37h-.92v-5.45h.92Zm10,0h-.92V239q0-.35,0-.68a1.43,1.43,0,0,0-.13-.52.74.74,0,0,0-.32-.32,1.36,1.36,0,0,0-.61-.11,1.71,1.71,0,0,0-.77.19,4.72,4.72,0,0,0-.77.49q0,.11,0,.26t0,.3v3.49h-.92V239q0-.36,0-.69a1.43,1.43,0,0,0-.13-.52.73.73,0,0,0-.32-.31,1.39,1.39,0,0,0-.61-.1,1.7,1.7,0,0,0-.75.19,4.51,4.51,0,0,0-.75.47v4.07h-.92v-5.45h.92v.61a4,4,0,0,1,.86-.56,2.12,2.12,0,0,1,.91-.2,1.8,1.8,0,0,1,.94.23,1.45,1.45,0,0,1,.58.65,4.54,4.54,0,0,1,1-.68,2.35,2.35,0,0,1,1-.21,1.58,1.58,0,0,1,1.33.54,2.41,2.41,0,0,1,.43,1.52Zm6.61-2.63h-4a2.32,2.32,0,0,0,.15.88,1.62,1.62,0,0,0,1,1,2.41,2.41,0,0,0,.77.12,3,3,0,0,0,1.12-.22,2.76,2.76,0,0,0,.8-.44h0v1a7.57,7.57,0,0,1-.95.33,3.84,3.84,0,0,1-1,.13,2.93,2.93,0,0,1-2.12-.73,2.77,2.77,0,0,1-.76-2.09,3,3,0,0,1,.73-2.12,2.5,2.5,0,0,1,1.92-.79,2.21,2.21,0,0,1,1.7.64,2.59,2.59,0,0,1,.6,1.83Zm-.89-.7a1.62,1.62,0,0,0-.36-1.12,1.4,1.4,0,0,0-1.09-.4,1.59,1.59,0,0,0-1.17.43,1.69,1.69,0,0,0-.5,1.08Z" transform="translate(-1.5 -1.5)"/></g><g class="cls-61"><path class="cls-4" d="M556,251v18h88V251Z" transform="translate(-1.5 -1.5)"/></g><g class="cls-62"><path d="M572,264.22h-4.79V257H572v.86h-3.82v2H572v.86h-3.82v2.7H572Zm5.7,0h-.92v-3.11a5.35,5.35,0,0,0,0-.71,1.29,1.29,0,0,0-.16-.52.74.74,0,0,0-.35-.31,1.5,1.5,0,0,0-.6-.1,1.91,1.91,0,0,0-.79.19,4,4,0,0,0-.79.47v4.07h-.92v-5.45h.92v.61a3.73,3.73,0,0,1,.89-.56,2.34,2.34,0,0,1,.94-.2,1.69,1.69,0,0,1,1.35.53,2.27,2.27,0,0,1,.46,1.53Zm5.86,0h-.92v-.57a3.32,3.32,0,0,1-.83.53,2.28,2.28,0,0,1-.93.19,1.85,1.85,0,0,1-1.55-.75,3.37,3.37,0,0,1-.57-2.08,3.59,3.59,0,0,1,.2-1.24,2.85,2.85,0,0,1,.53-.92,2.26,2.26,0,0,1,1.69-.76,2.91,2.91,0,0,1,.76.09,3.53,3.53,0,0,1,.7.28v-2.36h.92Zm-.92-1.34v-3.13a3.45,3.45,0,0,0-.66-.23,3,3,0,0,0-.64-.06,1.45,1.45,0,0,0-1.2.54,2.38,2.38,0,0,0-.43,1.52,2.7,2.7,0,0,0,.33,1.48,1.18,1.18,0,0,0,1.06.51,2,2,0,0,0,.79-.17A3.36,3.36,0,0,0,582.69,262.88Zm8.71-2.29a3.74,3.74,0,0,1-.43,1.8,3.23,3.23,0,0,1-1.15,1.25,3.58,3.58,0,0,1-1.11.44,7.67,7.67,0,0,1-1.61.14h-1.84V257h1.82a7.4,7.4,0,0,1,1.69.15,3.68,3.68,0,0,1,1.06.42,3.25,3.25,0,0,1,1.16,1.24A3.81,3.81,0,0,1,591.4,260.6Zm-1,0a3.15,3.15,0,0,0-.3-1.44,2.19,2.19,0,0,0-.89-.92,3,3,0,0,0-.91-.34,6.08,6.08,0,0,0-1.16-.1h-.91v5.61h.91a6.36,6.36,0,0,0,1.22-.1,2.73,2.73,0,0,0,1-.38,2.19,2.19,0,0,0,.81-.91A3.27,3.27,0,0,0,590.39,260.58Zm7,3.64h-.91v-.58l-.33.23a2.36,2.36,0,0,1-.4.24,2.73,2.73,0,0,1-.53.19,2.86,2.86,0,0,1-.7.08,1.74,1.74,0,0,1-1.25-.49,1.64,1.64,0,0,1-.51-1.25,1.72,1.72,0,0,1,.27-1,1.78,1.78,0,0,1,.76-.6,4.1,4.1,0,0,1,1.2-.3q.7-.08,1.5-.12v-.14a1.09,1.09,0,0,0-.11-.52.8.8,0,0,0-.31-.32,1.3,1.3,0,0,0-.47-.15,4,4,0,0,0-.57,0,3.88,3.88,0,0,0-.81.1,6.26,6.26,0,0,0-.92.28h0v-.93q.27-.07.78-.16a5.86,5.86,0,0,1,1-.09,4.66,4.66,0,0,1,1,.1,2,2,0,0,1,.74.32,1.44,1.44,0,0,1,.47.58,2.14,2.14,0,0,1,.16.88Zm-.91-1.34v-1.52l-1,.07a5.12,5.12,0,0,0-.9.14,1.48,1.48,0,0,0-.64.35,1,1,0,0,0,0,1.36,1.33,1.33,0,0,0,.86.24,2.05,2.05,0,0,0,.88-.19A4,4,0,0,0,596.51,262.88Zm5.51,1.29a5,5,0,0,1-.56.11,3.86,3.86,0,0,1-.54,0,1.69,1.69,0,0,1-1.27-.45,2,2,0,0,1-.43-1.44v-2.9h-.62v-.77h.62V257.2h.92v1.57H602v.77h-1.89V262q0,.43,0,.67a1.1,1.1,0,0,0,.14.45.66.66,0,0,0,.3.29,1.39,1.39,0,0,0,.57.09,1.8,1.8,0,0,0,.47-.07l.35-.11h0Zm5.73-2.58h-4a2.32,2.32,0,0,0,.15.88,1.62,1.62,0,0,0,1,1,2.4,2.4,0,0,0,.77.12,3,3,0,0,0,1.12-.22,2.76,2.76,0,0,0,.8-.44h0v1a7.57,7.57,0,0,1-.95.33,3.84,3.84,0,0,1-1,.13,2.93,2.93,0,0,1-2.12-.73,2.77,2.77,0,0,1-.76-2.09,3,3,0,0,1,.73-2.12,2.5,2.5,0,0,1,1.92-.79,2.21,2.21,0,0,1,1.7.64,2.59,2.59,0,0,1,.6,1.83Zm-.89-.7a1.62,1.62,0,0,0-.36-1.12,1.4,1.4,0,0,0-1.09-.4,1.59,1.59,0,0,0-1.17.43,1.69,1.69,0,0,0-.5,1.08Zm7.59-3.08h-2.6v6.41h-1v-6.41h-2.6V257h6.16Zm1.73,0h-1v-1h1Zm-.06,6.37h-.92v-5.45h.92Zm10,0h-.92v-3.11q0-.35,0-.68a1.43,1.43,0,0,0-.13-.52.74.74,0,0,0-.32-.32,1.36,1.36,0,0,0-.61-.11,1.71,1.71,0,0,0-.77.19,4.72,4.72,0,0,0-.77.49q0,.11,0,.26t0,.3v3.49h-.92v-3.11q0-.36,0-.69a1.43,1.43,0,0,0-.13-.52.73.73,0,0,0-.32-.31,1.39,1.39,0,0,0-.61-.1,1.7,1.7,0,0,0-.75.19,4.51,4.51,0,0,0-.75.47v4.07h-.92v-5.45h.92v.61a4,4,0,0,1,.86-.56,2.12,2.12,0,0,1,.91-.2,1.8,1.8,0,0,1,.94.23,1.45,1.45,0,0,1,.58.65,4.54,4.54,0,0,1,1-.68,2.35,2.35,0,0,1,1-.21,1.58,1.58,0,0,1,1.33.54,2.41,2.41,0,0,1,.43,1.52Zm6.61-2.63h-4a2.32,2.32,0,0,0,.15.88,1.62,1.62,0,0,0,1,1,2.4,2.4,0,0,0,.77.12,3,3,0,0,0,1.12-.22,2.76,2.76,0,0,0,.8-.44h0v1a7.57,7.57,0,0,1-.95.33,3.84,3.84,0,0,1-1,.13,2.93,2.93,0,0,1-2.12-.73,2.77,2.77,0,0,1-.76-2.09,3,3,0,0,1,.73-2.12,2.5,2.5,0,0,1,1.92-.79,2.21,2.21,0,0,1,1.7.64,2.59,2.59,0,0,1,.6,1.83Zm-.89-.7a1.62,1.62,0,0,0-.36-1.12,1.4,1.4,0,0,0-1.09-.4,1.59,1.59,0,0,0-1.17.43,1.69,1.69,0,0,0-.5,1.08Z" transform="translate(-1.5 -1.5)"/></g><g class="cls-63"><path class="cls-64" d="M118,177.43l153,11.13" transform="translate(-1.5 -1.5)"/></g><g class="cls-63"><path class="cls-65" d="M265.6,191.17l5.4-2.62-5-3.37Z" transform="translate(-1.5 -1.5)"/></g><g class="cls-63"><path class="cls-66" d="M265.6,191.17l5.4-2.62-5-3.37Z" transform="translate(-1.5 -1.5)"/></g><g class="cls-67"><path class="cls-64" d="M758,177.59,611,191.42" transform="translate(-1.5 -1.5)"/></g><g class="cls-67"><path class="cls-65" d="M615.89,187.95,611,191.42l5.45,2.5Z" transform="translate(-1.5 -1.5)"/></g><g class="cls-67"><path class="cls-66" d="M615.89,187.95,611,191.42l5.45,2.5Z" transform="translate(-1.5 -1.5)"/></g><g class="cls-68"><path class="cls-64" d="M332,174,556,211" transform="translate(-1.5 -1.5)"/></g><g class="cls-68"><path class="cls-65" d="M550.38,213.08,556,211l-4.64-3.81Z" transform="translate(-1.5 -1.5)"/></g><g class="cls-68"><path class="cls-66" d="M550.38,213.08,556,211l-4.64-3.81Z" transform="translate(-1.5 -1.5)"/></g><g class="cls-69"><path class="cls-64" d="M336,259.35C497,271,495,169,332,169" transform="translate(-1.5 -1.5)"/></g><g class="cls-69"><path class="cls-65" d="M337.2,166l-5.2,3,5.2,3Z" transform="translate(-1.5 -1.5)"/></g><g class="cls-69"><path class="cls-66" d="M337.2,166l-5.2,3,5.2,3Z" transform="translate(-1.5 -1.5)"/></g></g></g></svg>