<svg xmlns="http://www.w3.org/2000/svg" viewBox="0 0 910.5 732.5"><defs><style>.cls-1{fill:none;stroke:#939393;}.cls-1,.cls-2{stroke-width:1.5px;}.cls-2{stroke:#000;}</style></defs><title>Tree_BW</title><g id="Layer_2" data-name="Layer 2"><g id="Layer_1-2" data-name="Layer 1"><path class="cls-1" d="M185.25,200.05c90,0,90-61.8,180-61.8"/><path class="cls-1" d="M185.25,200.05c90,0,90-42.8,180-42.8"/><path class="cls-1" d="M185.25,200.05c90,0,90-9.5,180-9.5"/><path class="cls-1" d="M185.25,200.05c90,0,90,23.8,180,23.8"/><path class="cls-1" d="M185.25,200.05c90,0,90,42.8,180,42.8"/><path class="cls-1" d="M185.25,200.05c90,0,90,61.8,180,61.8"/><path class="cls-1" d="M5.25,277.15c90,0,90-224.4,180-224.4"/><path class="cls-1" d="M5.25,277.15c90,0,90-77.2,180-77.2"/><path class="cls-1" d="M5.25,277.15c90,0,90,224.4,180,224.4"/><path class="cls-1" d="M365.25,223.75c90,0,90-28.5,180-28.5"/><path class="cls-1" d="M365.25,223.75c90,0,90-9.5,180-9.5"/><path class="cls-1" d="M365.25,223.75c90,0,90,9.5,180,9.5"/><path class="cls-1" d="M365.25,223.75c90,0,90,28.5,180,28.5"/><path class="cls-1" d="M365.25,157.25h180"/><path class="cls-1" d="M545.25,157.25h180"/><path class="cls-1" d="M185.25,501.65c90,0,90-201.9,180-201.9"/><path class="cls-1" d="M185.25,501.65c90,0,90-182.9,180-182.9"/><path class="cls-1" d="M185.25,501.65c90,0,90-163.9,180-163.9"/><path class="cls-1" d="M185.25,501.65c90,0,90-144.9,180-144.9"/><path class="cls-1" d="M185.25,501.65c90,0,90-116.4,180-116.4"/><path class="cls-1" d="M185.25,501.65c90,0,90-87.9,180-87.9"/><path class="cls-1" d="M185.25,501.65c90,0,90-59.4,180-59.4"/><path class="cls-1" d="M185.25,501.65c90,0,90-11.9,180-11.9"/><path class="cls-1" d="M185.25,501.65c90,0,90,125.9,180,125.9"/><path class="cls-1" d="M185.25,501.65c90,0,90,144.9,180,144.9"/><path class="cls-1" d="M185.25,501.65c90,0,90,163.9,180,163.9"/><path class="cls-1" d="M185.25,501.65c90,0,90,182.9,180,182.9"/><path class="cls-1" d="M185.25,501.65c90,0,90,201.9,180,201.9"/><path class="cls-1" d="M365.25,356.75c90,0,90-28.5,180-28.5"/><path class="cls-1" d="M365.25,356.75c90,0,90,28.5,180,28.5"/><path class="cls-1" d="M545.25,328.25h180"/><path class="cls-1" d="M545.25,385.25c90,0,90-19,180-19"/><path class="cls-1" d="M545.25,385.25h180"/><path class="cls-1" d="M545.25,385.25c90,0,90,19,180,19"/><path class="cls-1" d="M365.25,442.25h180"/><path class="cls-1" d="M365.25,489.75h180"/><path class="cls-1" d="M365.25,627.55c90,0,90-99.8,180-99.8"/><path class="cls-1" d="M365.25,627.55c90,0,90-80.8,180-80.8"/><path class="cls-1" d="M365.25,627.55c90,0,90-33.3,180-33.3"/><path class="cls-1" d="M365.25,627.55c90,0,90,4.8,180,4.8"/><path class="cls-1" d="M365.25,627.55c90,0,90,23.8,180,23.8"/><path class="cls-1" d="M365.25,627.55c90,0,90,42.8,180,42.8"/><path class="cls-1" d="M365.25,627.55c90,0,90,61.8,180,61.8"/><path class="cls-1" d="M365.25,627.55c90,0,90,80.8,180,80.8"/><path class="cls-1" d="M365.25,627.55c90,0,90,99.8,180,99.8"/><path class="cls-1" d="M725.25,157.25c90,0,90-19,180-19"/><path class="cls-1" d="M725.25,157.25h180"/><path class="cls-1" d="M725.25,157.25c90,0,90,19,180,19"/><path class="cls-1" d="M725.25,328.25h180"/><path class="cls-1" d="M545.25,489.75c90,0,90-9.5,180-9.5"/><path class="cls-1" d="M545.25,489.75c90,0,90,9.5,180,9.5"/><path class="cls-1" d="M545.25,442.25h180"/><path class="cls-1" d="M545.25,546.75c90,0,90-9.5,180-9.5"/><path class="cls-1" d="M545.25,546.75c90,0,90,9.5,180,9.5"/><path class="cls-1" d="M545.25,632.25h180"/><path class="cls-1" d="M545.25,594.25h180"/><path class="cls-1" d="M185.25,52.75c90,0,90-47.5,180-47.5"/><path class="cls-1" d="M185.25,52.75c90,0,90-28.5,180-28.5"/><path class="cls-1" d="M185.25,52.75c90,0,90-9.5,180-9.5"/><path class="cls-1" d="M185.25,52.75c90,0,90,9.5,180,9.5"/><path class="cls-1" d="M185.25,52.75c90,0,90,28.5,180,28.5"/><path class="cls-1" d="M185.25,52.75c90,0,90,47.5,180,47.5"/><path class="cls-1" d="M365.25,62.25h180"/><path class="cls-1" d="M545.25,62.25c90,0,90-47.5,180-47.5"/><path class="cls-1" d="M545.25,62.25c90,0,90-28.5,180-28.5"/><path class="cls-1" d="M545.25,62.25c90,0,90-9.5,180-9.5"/><path class="cls-1" d="M545.25,62.25c90,0,90,9.5,180,9.5"/><path class="cls-1" d="M545.25,62.25c90,0,90,28.5,180,28.5"/><path class="cls-1" d="M545.25,62.25c90,0,90,47.5,180,47.5"/><circle class="cls-2" cx="185.25" cy="501.65" r="4.5"/><circle class="cls-2" cx="365.25" cy="261.75" r="4.5"/><circle class="cls-2" cx="365.25" cy="242.75" r="4.5"/><circle class="cls-2" cx="365.25" cy="223.75" r="4.5"/><circle class="cls-2" cx="365.25" cy="190.55" r="4.5"/><circle class="cls-2" cx="365.25" cy="157.25" r="4.5"/><circle class="cls-2" cx="365.25" cy="138.25" r="4.5"/><circle class="cls-2" cx="185.25" cy="52.75" r="4.5"/><circle class="cls-2" cx="5.25" cy="277.15" r="4.5"/><circle class="cls-2" cx="545.25" cy="252.25" r="4.5"/><circle class="cls-2" cx="545.25" cy="233.25" r="4.5"/><circle class="cls-2" cx="545.25" cy="214.25" r="4.5"/><circle class="cls-2" cx="545.25" cy="195.25" r="4.5"/><circle class="cls-2" cx="545.25" cy="157.25" r="4.5"/><circle class="cls-2" cx="725.25" cy="157.25" r="4.5"/><circle class="cls-2" cx="365.25" cy="703.55" r="4.5"/><circle class="cls-2" cx="365.25" cy="684.55" r="4.5"/><circle class="cls-2" cx="365.25" cy="665.55" r="4.5"/><circle class="cls-2" cx="365.25" cy="646.55" r="4.5"/><circle class="cls-2" cx="365.25" cy="627.55" r="4.5"/><circle class="cls-2" cx="365.25" cy="489.75" r="4.5"/><circle class="cls-2" cx="365.25" cy="442.25" r="4.5"/><circle class="cls-2" cx="365.25" cy="413.75" r="4.5"/><circle class="cls-2" cx="365.25" cy="385.25" r="4.5"/><circle class="cls-2" cx="365.25" cy="356.75" r="4.5"/><circle class="cls-2" cx="365.25" cy="337.75" r="4.5"/><circle class="cls-2" cx="365.25" cy="318.75" r="4.5"/><circle class="cls-2" cx="365.25" cy="299.75" r="4.5"/><circle class="cls-2" cx="545.25" cy="385.25" r="4.5"/><circle class="cls-2" cx="545.25" cy="328.25" r="4.5"/><circle class="cls-2" cx="725.25" cy="328.25" r="4.5"/><circle class="cls-2" cx="725.25" cy="404.25" r="4.5"/><circle class="cls-2" cx="725.25" cy="385.25" r="4.5"/><circle class="cls-2" cx="725.25" cy="366.25" r="4.5"/><circle class="cls-2" cx="545.25" cy="442.25" r="4.5"/><circle class="cls-2" cx="545.25" cy="489.75" r="4.5"/><circle class="cls-2" cx="545.25" cy="727.25" r="4.5"/><circle class="cls-2" cx="545.25" cy="708.25" r="4.5"/><circle class="cls-2" cx="545.25" cy="689.25" r="4.5"/><circle class="cls-2" cx="545.25" cy="670.25" r="4.5"/><circle class="cls-2" cx="545.25" cy="651.25" r="4.5"/><circle class="cls-2" cx="545.25" cy="632.25" r="4.5"/><circle class="cls-2" cx="545.25" cy="594.25" r="4.5"/><circle class="cls-2" cx="545.25" cy="546.75" r="4.5"/><circle class="cls-2" cx="545.25" cy="527.75" r="4.5"/><circle class="cls-2" cx="905.25" cy="176.25" r="4.5"/><circle class="cls-2" cx="905.25" cy="157.25" r="4.5"/><circle class="cls-2" cx="905.25" cy="138.25" r="4.5"/><circle class="cls-2" cx="905.25" cy="328.25" r="4.5"/><circle class="cls-2" cx="725.25" cy="499.25" r="4.5"/><circle class="cls-2" cx="725.25" cy="480.25" r="4.5"/><circle class="cls-2" cx="725.25" cy="442.25" r="4.5"/><circle class="cls-2" cx="725.25" cy="556.25" r="4.5"/><circle class="cls-2" cx="725.25" cy="537.25" r="4.5"/><circle class="cls-2" cx="725.25" cy="632.25" r="4.5"/><circle class="cls-2" cx="725.25" cy="594.25" r="4.5"/><circle class="cls-2" cx="365.25" cy="100.25" r="4.5"/><circle class="cls-2" cx="365.25" cy="81.25" r="4.5"/><circle class="cls-2" cx="365.25" cy="62.25" r="4.5"/><circle class="cls-2" cx="365.25" cy="43.25" r="4.5"/><circle class="cls-2" cx="365.25" cy="24.25" r="4.5"/><circle class="cls-2" cx="365.25" cy="5.25" r="4.5"/><circle class="cls-2" cx="545.25" cy="62.25" r="4.5"/><circle class="cls-2" cx="725.25" cy="109.75" r="4.5"/><circle class="cls-2" cx="725.25" cy="90.75" r="4.5"/><circle class="cls-2" cx="725.25" cy="71.75" r="4.5"/><circle class="cls-2" cx="725.25" cy="52.75" r="4.5"/><circle class="cls-2" cx="725.25" cy="33.75" r="4.5"/><circle class="cls-2" cx="725.25" cy="14.75" r="4.5"/></g></g></svg>