<?xml version="1.0" encoding="utf-8"?>
<!-- Generator: Adobe Illustrator 20.1.0, SVG Export Plug-In . SVG Version: 6.00 Build 0)  -->
<svg version="1.1" id="Layer_1" xmlns="http://www.w3.org/2000/svg" xmlns:xlink="http://www.w3.org/1999/xlink" x="0px" y="0px"
	 viewBox="0 0 910.5 732.5" style="enable-background:new 0 0 910.5 732.5;" xml:space="preserve">
<style type="text/css">
	.st0{fill:none;stroke:#939393;stroke-width:1.5;}
	.st1{stroke:#000000;stroke-width:1.5;}
</style>
<title>Tree_BW</title>
<g id="Layer_2">
	<g id="Layer_1-2">
		<path class="st0" d="M185.3,200c90,0,90-61.8,180-61.8"/>
		<path class="st0" d="M185.3,200c90,0,90-42.8,180-42.8"/>
		<path class="st0" d="M185.3,200c90,0,90-9.5,180-9.5"/>
		<path class="st0" d="M185.3,200c90,0,90,23.8,180,23.8"/>
		<path class="st0" d="M185.3,200c90,0,90,42.8,180,42.8"/>
		<path class="st0" d="M185.3,200c90,0,90,61.8,180,61.8"/>
		<path class="st0" d="M5.3,277.1c90,0,90-224.4,180-224.4"/>
		<path class="st0" d="M5.3,277.1c90,0,90-77.2,180-77.2"/>
		<path class="st0" d="M5.3,277.1c90,0,90,224.4,180,224.4"/>
		<path class="st0" d="M365.3,223.7c90,0,90-28.5,180-28.5"/>
		<path class="st0" d="M365.3,223.7c90,0,90-9.5,180-9.5"/>
		<path class="st0" d="M365.3,223.7c90,0,90,9.5,180,9.5"/>
		<path class="st0" d="M365.3,223.7c90,0,90,28.5,180,28.5"/>
		<path class="st0" d="M365.3,157.2h180"/>
		<path class="st0" d="M545.3,157.2h180"/>
		<path class="st0" d="M185.3,501.6c90,0,90-201.9,180-201.9"/>
		<path class="st0" d="M185.3,501.6c90,0,90-182.9,180-182.9"/>
		<path class="st0" d="M185.3,501.6c90,0,90-163.9,180-163.9"/>
		<path class="st0" d="M185.3,501.6c90,0,90-144.9,180-144.9"/>
		<path class="st0" d="M185.3,501.6c90,0,90-116.4,180-116.4"/>
		<path class="st0" d="M185.3,501.6c90,0,90-87.9,180-87.9"/>
		<path class="st0" d="M185.3,501.6c90,0,90-59.4,180-59.4"/>
		<path class="st0" d="M185.3,501.6c90,0,90-11.9,180-11.9"/>
		<path class="st0" d="M185.3,501.6c90,0,90,125.9,180,125.9"/>
		<path class="st0" d="M185.3,501.6c90,0,90,144.9,180,144.9"/>
		<path class="st0" d="M185.3,501.6c90,0,90,163.9,180,163.9"/>
		<path class="st0" d="M185.3,501.6c90,0,90,182.9,180,182.9"/>
		<path class="st0" d="M185.3,501.6c90,0,90,201.9,180,201.9"/>
		<path class="st0" d="M365.3,356.7c90,0,90-28.5,180-28.5"/>
		<path class="st0" d="M365.3,356.7c90,0,90,28.5,180,28.5"/>
		<path class="st0" d="M545.3,328.2h180"/>
		<path class="st0" d="M545.3,385.2c90,0,90-19,180-19"/>
		<path class="st0" d="M545.3,385.2h180"/>
		<path class="st0" d="M545.3,385.2c90,0,90,19,180,19"/>
		<path class="st0" d="M365.3,442.2h180"/>
		<path class="st0" d="M365.3,489.7h180"/>
		<path class="st0" d="M365.3,627.5c90,0,90-99.8,180-99.8"/>
		<path class="st0" d="M365.3,627.5c90,0,90-80.8,180-80.8"/>
		<path class="st0" d="M365.3,627.5c90,0,90-33.3,180-33.3"/>
		<path class="st0" d="M365.3,627.5c90,0,90,4.8,180,4.8"/>
		<path class="st0" d="M365.3,627.5c90,0,90,23.8,180,23.8"/>
		<path class="st0" d="M365.3,627.5c90,0,90,42.8,180,42.8"/>
		<path class="st0" d="M365.3,627.5c90,0,90,61.8,180,61.8"/>
		<path class="st0" d="M365.3,627.5c90,0,90,80.8,180,80.8"/>
		<path class="st0" d="M365.3,627.5c90,0,90,99.8,180,99.8"/>
		<path class="st0" d="M725.3,157.2c90,0,90-19,180-19"/>
		<path class="st0" d="M725.3,157.2h180"/>
		<path class="st0" d="M725.3,157.2c90,0,90,19,180,19"/>
		<path class="st0" d="M725.3,328.2h180"/>
		<path class="st0" d="M545.3,489.7c90,0,90-9.5,180-9.5"/>
		<path class="st0" d="M545.3,489.7c90,0,90,9.5,180,9.5"/>
		<path class="st0" d="M545.3,442.2h180"/>
		<path class="st0" d="M545.3,546.8c90,0,90-9.5,180-9.5"/>
		<path class="st0" d="M545.3,546.8c90,0,90,9.5,180,9.5"/>
		<path class="st0" d="M545.3,632.3h180"/>
		<path class="st0" d="M545.3,594.3h180"/>
		<path class="st0" d="M185.3,52.7c90,0,90-47.5,180-47.5"/>
		<path class="st0" d="M185.3,52.7c90,0,90-28.5,180-28.5"/>
		<path class="st0" d="M185.3,52.7c90,0,90-9.5,180-9.5"/>
		<path class="st0" d="M185.3,52.7c90,0,90,9.5,180,9.5"/>
		<path class="st0" d="M185.3,52.7c90,0,90,28.5,180,28.5"/>
		<path class="st0" d="M185.3,52.7c90,0,90,47.5,180,47.5"/>
		<path class="st0" d="M365.3,62.2h180"/>
		<path class="st0" d="M545.3,62.2c90,0,90-47.5,180-47.5"/>
		<path class="st0" d="M545.3,62.2c90,0,90-28.5,180-28.5"/>
		<path class="st0" d="M545.3,62.2c90,0,90-9.5,180-9.5"/>
		<path class="st0" d="M545.3,62.2c90,0,90,9.5,180,9.5"/>
		<path class="st0" d="M545.3,62.2c90,0,90,28.5,180,28.5"/>
		<path class="st0" d="M545.3,62.2c90,0,90,47.5,180,47.5"/>
		<circle class="st1" cx="185.3" cy="501.6" r="4.5"/>
		<circle class="st1" cx="365.3" cy="261.7" r="4.5"/>
		<circle class="st1" cx="365.3" cy="242.7" r="4.5"/>
		<circle class="st1" cx="365.3" cy="223.7" r="4.5"/>
		<circle class="st1" cx="365.3" cy="190.5" r="4.5"/>
		<circle class="st1" cx="365.3" cy="157.2" r="4.5"/>
		<circle class="st1" cx="365.3" cy="138.2" r="4.5"/>
		<circle class="st1" cx="185.3" cy="52.7" r="4.5"/>
		<circle class="st1" cx="5.3" cy="277.1" r="4.5"/>
		<circle class="st1" cx="545.3" cy="252.2" r="4.5"/>
		<circle class="st1" cx="545.3" cy="233.2" r="4.5"/>
		<circle class="st1" cx="545.3" cy="214.2" r="4.5"/>
		<circle class="st1" cx="545.3" cy="195.2" r="4.5"/>
		<circle class="st1" cx="545.3" cy="157.2" r="4.5"/>
		<circle class="st1" cx="725.3" cy="157.2" r="4.5"/>
		<circle class="st1" cx="365.3" cy="703.5" r="4.5"/>
		<circle class="st1" cx="365.3" cy="684.5" r="4.5"/>
		<circle class="st1" cx="365.3" cy="665.5" r="4.5"/>
		<circle class="st1" cx="365.3" cy="646.5" r="4.5"/>
		<circle class="st1" cx="365.3" cy="627.5" r="4.5"/>
		<circle class="st1" cx="365.3" cy="489.7" r="4.5"/>
		<circle class="st1" cx="365.3" cy="442.2" r="4.5"/>
		<circle class="st1" cx="365.3" cy="413.7" r="4.5"/>
		<circle class="st1" cx="365.3" cy="385.2" r="4.5"/>
		<circle class="st1" cx="365.3" cy="356.7" r="4.5"/>
		<circle class="st1" cx="365.3" cy="337.7" r="4.5"/>
		<circle class="st1" cx="365.3" cy="318.7" r="4.5"/>
		<circle class="st1" cx="365.3" cy="299.7" r="4.5"/>
		<circle class="st1" cx="545.3" cy="385.2" r="4.5"/>
		<circle class="st1" cx="545.3" cy="328.2" r="4.5"/>
		<circle class="st1" cx="725.3" cy="328.2" r="4.5"/>
		<circle class="st1" cx="725.3" cy="404.2" r="4.5"/>
		<circle class="st1" cx="725.3" cy="385.2" r="4.5"/>
		<circle class="st1" cx="725.3" cy="366.2" r="4.5"/>
		<circle class="st1" cx="545.3" cy="442.2" r="4.5"/>
		<circle class="st1" cx="545.3" cy="489.7" r="4.5"/>
		<circle class="st1" cx="545.3" cy="727.3" r="4.5"/>
		<circle class="st1" cx="545.3" cy="708.3" r="4.5"/>
		<circle class="st1" cx="545.3" cy="689.3" r="4.5"/>
		<circle class="st1" cx="545.3" cy="670.3" r="4.5"/>
		<circle class="st1" cx="545.3" cy="651.3" r="4.5"/>
		<circle class="st1" cx="545.3" cy="632.3" r="4.5"/>
		<circle class="st1" cx="545.3" cy="594.3" r="4.5"/>
		<circle class="st1" cx="545.3" cy="546.8" r="4.5"/>
		<circle class="st1" cx="545.3" cy="527.8" r="4.5"/>
		<circle class="st1" cx="905.3" cy="176.2" r="4.5"/>
		<circle class="st1" cx="905.3" cy="157.2" r="4.5"/>
		<circle class="st1" cx="905.3" cy="138.2" r="4.5"/>
		<circle class="st1" cx="905.3" cy="328.2" r="4.5"/>
		<circle class="st1" cx="725.3" cy="499.2" r="4.5"/>
		<circle class="st1" cx="725.3" cy="480.2" r="4.5"/>
		<circle class="st1" cx="725.3" cy="442.2" r="4.5"/>
		<circle class="st1" cx="725.3" cy="556.3" r="4.5"/>
		<circle class="st1" cx="725.3" cy="537.3" r="4.5"/>
		<circle class="st1" cx="725.3" cy="632.3" r="4.5"/>
		<circle class="st1" cx="725.3" cy="594.3" r="4.5"/>
		<circle class="st1" cx="365.3" cy="100.2" r="4.5"/>
		<circle class="st1" cx="365.3" cy="81.2" r="4.5"/>
		<circle class="st1" cx="365.3" cy="62.2" r="4.5"/>
		<circle class="st1" cx="365.3" cy="43.2" r="4.5"/>
		<circle class="st1" cx="365.3" cy="24.2" r="4.5"/>
		<circle class="st1" cx="365.3" cy="5.2" r="4.5"/>
		<circle class="st1" cx="545.3" cy="62.2" r="4.5"/>
		<circle class="st1" cx="725.3" cy="109.7" r="4.5"/>
		<circle class="st1" cx="725.3" cy="90.7" r="4.5"/>
		<circle class="st1" cx="725.3" cy="71.7" r="4.5"/>
		<circle class="st1" cx="725.3" cy="52.7" r="4.5"/>
		<circle class="st1" cx="725.3" cy="33.7" r="4.5"/>
		<circle class="st1" cx="725.3" cy="14.7" r="4.5"/>
	</g>
</g>
</svg>
