<svg xmlns="http://www.w3.org/2000/svg" viewBox="0 0 441.42 449.01"><defs><style>.cls-1{fill:#0d0d0d;}.cls-1,.cls-10,.cls-11,.cls-12,.cls-13,.cls-14,.cls-15,.cls-16,.cls-17,.cls-18,.cls-2,.cls-3,.cls-4,.cls-5,.cls-6,.cls-7,.cls-8,.cls-9{stroke:#fff;}.cls-2{fill:#878787;}.cls-3{fill:#363636;}.cls-4{fill:#919191;}.cls-5{fill:#212121;}.cls-6{fill:#858585;}.cls-8{fill:#707070;}.cls-9{fill:#787878;}.cls-10{fill:#0f0f0f;}.cls-11{fill:#4f4f4f;}.cls-12{fill:#424242;}.cls-13{fill:#9c9c9c;}.cls-14{fill:#030303;}.cls-15{fill:#595959;}.cls-16{fill:#a8a8a8;}.cls-17{fill:#1f1f1f;}.cls-18{fill:#949494;}</style></defs><title>Asset 1</title><g id="Layer_2" data-name="Layer 2"><g id="sunburstGraphicMain"><path id="_0" data-name=" 0" class="cls-1" d="M251.65,110.28a72.5,72.5,0,1,1-72.5,72.5A72.5,72.5,0,0,1,251.65,110.28Z"/><path id="_1" data-name=" 1" class="cls-2" d="M251.65,80.25A102.53,102.53,0,0,1,341.82,134l-26.41,14.29a72.5,72.5,0,0,0-63.76-38Z"/><path id="_2" data-name=" 2" class="cls-3" d="M341.82,134a102.53,102.53,0,0,1,3.72,90L318,211.9a72.5,72.5,0,0,0-2.63-63.63Z"/><path id="_3" data-name=" 3" class="cls-4" d="M345.54,224A102.53,102.53,0,1,1,251.65,80.25v30A72.5,72.5,0,1,0,318,211.9Z"/><path id="_4" data-name=" 4" class="cls-2" d="M251.65,57.2q5.19,0,10.37.43l-1.9,23q-4.22-.35-8.47-.35Z"/><path id="_5" data-name=" 5" class="cls-2" d="M262,57.63q5.17.43,10.3,1.28l-3.79,22.73q-4.18-.7-8.41-1Z"/><path id="_6" data-name=" 6" class="cls-2" d="M272.32,58.91q5.12.85,10.16,2.13l-5.66,22.34q-4.11-1-8.29-1.74Z"/><path id="_7" data-name=" 7" class="cls-5" d="M282.47,61a125.57,125.57,0,0,1,68.27,44.6L332.56,119.8a102.53,102.53,0,0,0-55.74-36.42Z"/><path id="_8" data-name=" 8" class="cls-2" d="M350.74,105.65q3.19,4.1,6,8.45l-19.29,12.6q-2.32-3.55-4.92-6.9Z"/><path id="_9" data-name=" 9" class="cls-2" d="M356.77,114.09q2.84,4.35,5.31,8.92l-20.27,11q-2-3.73-4.34-7.28Z"/><path id="_11" data-name=" 11" class="cls-3" d="M362.09,123q2.47,4.57,4.56,9.32l-21.1,9.26q-1.7-3.88-3.72-7.61Z"/><path id="_12" data-name=" 12" class="cls-6" d="M366.64,132.33a125.57,125.57,0,0,1,8.86,29.77l-22.73,3.79a102.53,102.53,0,0,0-7.24-24.31Z"/><path id="_13" data-name=" 13" class="cls-3" d="M375.51,162.11q.85,5.12,1.28,10.3l-23,1.9q-.35-4.22-1-8.41Z"/><path id="_14" data-name=" 14" class="cls-7" d="M376.79,172.41a125.57,125.57,0,0,1-3.41,41.2L351,207.95a102.53,102.53,0,0,0,2.79-33.64Z"/><path id="_15" data-name=" 15" class="cls-3" d="M373.38,213.6q-1.27,5-3,9.95l-21.79-7.48q1.38-4,2.42-8.12Z"/><path id="_16" data-name=" 16" class="cls-3" d="M370.42,223.55q-1.69,4.91-3.77,9.67L345.54,224q1.7-3.88,3.08-7.89Z"/><path id="_18" data-name=" 18" class="cls-4" d="M366.64,233.22q-2.09,4.75-4.56,9.32l-20.27-11q2-3.73,3.72-7.61Z"/><path id="_19" data-name=" 19" class="cls-4" d="M362.09,242.54q-2.47,4.57-5.31,8.92l-19.29-12.6q2.32-3.55,4.34-7.28Z"/><path id="_20" data-name=" 20" class="cls-4" d="M356.77,251.46q-2.84,4.35-6,8.45l-18.18-14.15q2.6-3.35,4.92-6.9Z"/><path id="_21" data-name=" 21" class="cls-8" d="M350.74,259.9a125.57,125.57,0,0,1-129.92,44.6l5.66-22.34a102.53,102.53,0,0,0,106.08-36.42Z"/><path id="_22" data-name=" 22" class="cls-4" d="M220.82,304.51q-5-1.27-9.95-3l7.48-21.79q4,1.38,8.12,2.42Z"/><path id="_23" data-name=" 23" class="cls-4" d="M210.87,301.55q-4.91-1.69-9.67-3.77l9.26-21.1q3.88,1.7,7.89,3.08Z"/><path id="_27" data-name=" 27" class="cls-7" d="M201.2,297.77a125.57,125.57,0,0,1-34.61-22.61l15.61-17a102.53,102.53,0,0,0,28.26,18.46Z"/><path id="_28" data-name=" 28" class="cls-9" d="M166.6,275.16a125.57,125.57,0,0,1-20.08-23.71l19.29-12.6a102.53,102.53,0,0,0,16.39,19.36Z"/><path id="_29" data-name=" 29" class="cls-10" d="M146.52,251.46A125.57,125.57,0,0,1,210.87,64l7.48,21.79a102.53,102.53,0,0,0-52.54,153.05Z"/><path id="_37" data-name=" 37" class="cls-4" d="M210.87,64q4.91-1.69,9.95-3l5.66,22.34q-4.11,1-8.12,2.42Z"/><path id="_76" data-name=" 76" class="cls-4" d="M220.82,61q5-1.27,10.16-2.13l3.79,22.73q-4.18.7-8.29,1.74Z"/><path id="_77" data-name=" 77" class="cls-4" d="M231,58.91q5.12-.85,10.3-1.28l1.9,23q-4.22.35-8.41,1Z"/><path id="_78" data-name=" 78" class="cls-4" d="M241.28,57.63q5.17-.43,10.37-.43v23q-4.24,0-8.47.35Z"/><path id="_10" data-name=" 10" class="cls-11" d="M287.24,42.21a145,145,0,0,1,78.83,51.5l-15.33,11.93A125.57,125.57,0,0,0,282.47,61Z"/><path id="_48" data-name=" 48" class="cls-12" d="M384.43,124.53a145,145,0,0,1,10.24,34.38l-19.16,3.2a125.57,125.57,0,0,0-8.86-29.77Z"/><path id="_17" data-name=" 17" class="cls-7" d="M396.15,170.8q.5,6,.5,12H377.22q0-5.19-.43-10.37Z"/><path id="_70" data-name=" 70" class="cls-7" d="M396.65,182.78q0,6-.5,12l-19.36-1.6q.43-5.17.43-10.37Z"/><path id="_71" data-name=" 71" class="cls-7" d="M396.15,194.75q-.5,6-1.48,11.89l-19.16-3.2q.85-5.12,1.28-10.3Z"/><path id="_72" data-name=" 72" class="cls-7" d="M394.67,206.64q-1,5.91-2.46,11.73l-18.83-4.77q1.27-5,2.13-10.16Z"/><path id="_24" data-name=" 24" class="cls-13" d="M366.07,271.84a145,145,0,0,1-114.43,55.94V308.35a125.57,125.57,0,0,0,99.1-48.44Z"/><path id="_25" data-name=" 25" class="cls-14" d="M251.65,327.78a145,145,0,0,1-35.6-4.44l4.77-18.83a125.57,125.57,0,0,0,30.83,3.84Z"/><path id="_36" data-name=" 36" class="cls-4" d="M193.4,315.56a145,145,0,0,1-40-26.11l13.16-14.29a125.57,125.57,0,0,0,34.61,22.61Z"/><path id="_32" data-name=" 32" class="cls-15" d="M153.44,289.46a145,145,0,0,1-23.18-27.37l16.26-10.63a125.57,125.57,0,0,0,20.08,23.71Z"/><path id="_31" data-name=" 31" class="cls-10" d="M130.26,262.08q-3.28-5-6.13-10.3l17.08-9.25q2.47,4.57,5.31,8.92Z"/><path id="_33" data-name=" 33" class="cls-16" d="M124.12,251.79a145,145,0,0,1,13.1-158.07l15.33,11.93a125.57,125.57,0,0,0-11.34,136.9Z"/><path id="_34" data-name=" 34" class="cls-17" d="M137.22,93.71Q140.9,89,145,84.57l14.29,13.16q-3.52,3.82-6.71,7.92Z"/><path id="_35" data-name=" 35" class="cls-18" d="M145,84.57q4.06-4.41,8.47-8.47L166.6,90.39q-3.82,3.52-7.34,7.34Z"/><path id="_165" data-name=" 165" class="cls-10" d="M153.44,76.1q4.41-4.06,9.14-7.75l11.93,15.33q-4.1,3.19-7.92,6.71Z"/><path id="_166" data-name=" 166" class="cls-10" d="M162.59,68.35q4.73-3.68,9.75-7L183,77.65q-4.35,2.84-8.45,6Z"/><path id="_166-2" data-name=" 166" class="cls-10" d="M172.34,61.39q5-3.28,10.3-6.13l9.25,17.08q-4.57,2.47-8.92,5.31Z"/><path id="_166-3" data-name=" 166" class="cls-10" d="M182.63,55.25Q187.91,52.4,193.4,50l7.8,17.79q-4.75,2.09-9.32,4.56Z"/><path id="_166-4" data-name=" 166" class="cls-10" d="M193.4,50q5.49-2.41,11.16-4.36L210.87,64q-4.91,1.69-9.67,3.77Z"/><path id="_61" data-name=" 61" class="cls-1" d="M291.44,25.62q6.5,1.65,12.84,3.82l-5.56,16.19q-5.67-1.95-11.49-3.42Z"/><path id="_62" data-name=" 62" class="cls-2" d="M304.29,29.44q6.34,2.18,12.48,4.87L309.89,50q-5.49-2.41-11.16-4.36Z"/><path id="_66" data-name=" 66" class="cls-11" d="M316.77,34.32q6.14,2.69,12,5.88l-8.15,15.05Q315.39,52.4,309.89,50Z"/><path id="_129" data-name=" 129" class="cls-11" d="M328.81,40.2q5.89,3.19,11.51,6.86L331,61.39q-5-3.28-10.3-6.13Z"/><path id="_132" data-name=" 132" class="cls-3" d="M340.32,47.06A162.11,162.11,0,0,1,370.92,73L358.33,84.57A145,145,0,0,0,331,61.39Z"/><path id="_133" data-name=" 133" class="cls-4" d="M370.92,73q4.54,4.93,8.66,10.22L366.07,93.71q-3.68-4.73-7.75-9.14Z"/><path id="_83" data-name=" 83" class="cls-5" d="M400.11,117.65a162.12,162.12,0,0,1,11.44,38.44l-16.88,2.82a145,145,0,0,0-10.24-34.38Z"/><path id="_46" data-name=" 46" class="cls-6" d="M379.58,282.35a162.11,162.11,0,0,1-127.93,62.54V327.78a145,145,0,0,0,114.43-55.94Z"/><path id="_26" data-name=" 26" class="cls-14" d="M251.65,344.89q-6.7,0-13.39-.55l1.41-17.06q6,.5,12,.5Z"/><path id="_30" data-name=" 30" class="cls-14" d="M238.26,344.34q-6.68-.55-13.3-1.66l2.82-16.88q5.91,1,11.89,1.48Z"/><path id="_47" data-name=" 47" class="cls-14" d="M225,342.68q-6.61-1.1-13.11-2.75l4.2-16.59q5.81,1.47,11.73,2.46Z"/><path id="_44" data-name=" 44" class="cls-4" d="M186.53,331.24A162.11,162.11,0,0,1,141.85,302l11.59-12.59a145,145,0,0,0,40,26.11Z"/><path id="_42" data-name=" 42" class="cls-15" d="M141.85,302q-4.93-4.54-9.47-9.47L145,281q4.06,4.41,8.47,8.47Z"/><path id="_43" data-name=" 43" class="cls-7" d="M132.38,292.57a162.11,162.11,0,0,1-16.45-21.13l14.33-9.36A145,145,0,0,0,145,281Z"/><path id="_38" data-name=" 38" class="cls-8" d="M109.07,259.93q-3.19-5.89-5.88-12L118.86,241q2.41,5.49,5.26,10.77Z"/><path id="_39" data-name=" 39" class="cls-16" d="M103.19,247.9A162.11,162.11,0,0,1,123.72,83.2l13.51,10.51A145,145,0,0,0,118.86,241Z"/><path id="_40" data-name=" 40" class="cls-17" d="M123.72,83.2q4.12-5.29,8.66-10.22L145,84.57q-4.06,4.41-7.75,9.14Z"/><path id="_41" data-name=" 41" class="cls-18" d="M132.38,73q4.54-4.93,9.47-9.47L153.44,76.1Q149,80.16,145,84.57Z"/><path id="_67" data-name=" 67" class="cls-1" d="M295.24,10.62q7.12,1.8,14.07,4.19l-5,14.63q-6.34-2.18-12.84-3.82Z"/><path id="_68" data-name=" 68" class="cls-2" d="M309.31,14.81q6.94,2.38,13.67,5.34l-6.22,14.17q-6.14-2.69-12.48-4.87Z"/><path id="_137" data-name=" 137" class="cls-7" d="M348.78,34.11q6.15,4,11.95,8.53l-9.5,12.21q-5.29-4.12-10.9-7.79Z"/><path id="_141" data-name=" 141" class="cls-3" d="M360.72,42.63q5.79,4.51,11.2,9.49L361.44,63.5q-4.93-4.54-10.22-8.66Z"/><path id="_145" data-name=" 145" class="cls-3" d="M371.92,52.12q5.4,5,10.38,10.38L370.92,73q-4.54-4.93-9.47-9.47Z"/><path id="_142" data-name=" 142" class="cls-4" d="M382.3,62.5q5,5.4,9.49,11.2l-12.21,9.5q-4.12-5.29-8.66-10.22Z"/><path id="_90" data-name=" 90" class="cls-9" d="M414.28,111.44q2.95,6.72,5.34,13.67l-14.63,5q-2.18-6.34-4.87-12.48Z"/><path id="_91" data-name=" 91" class="cls-10" d="M419.61,125.11q2.38,6.94,4.19,14.07l-15,3.8q-1.65-6.5-3.82-12.84Z"/><path id="_92" data-name=" 92" class="cls-11" d="M423.8,139.18q1.8,7.12,3,14.37l-15.26,2.55q-1.1-6.61-2.75-13.11Z"/><path id="_69" data-name=" 69" class="cls-12" d="M391.79,291.85a177.59,177.59,0,0,1-140.14,68.51V344.89a162.11,162.11,0,0,0,127.93-62.54Z"/><path id="_55" data-name=" 55" class="cls-13" d="M180.31,345.41a177.59,177.59,0,0,1-48.94-32L141.85,302a162.11,162.11,0,0,0,44.68,29.19Z"/><path id="_53" data-name=" 53" class="cls-15" d="M131.37,313.43q-5.4-5-10.38-10.38l11.38-10.48q4.54,4.93,9.47,9.47Z"/><path id="_54" data-name=" 54" class="cls-14" d="M121,303.05a177.59,177.59,0,0,1-18-23.15l13-8.46a162.11,162.11,0,0,0,16.45,21.13Z"/><path id="_49" data-name=" 49" class="cls-8" d="M95.46,267.3Q92,260.84,89,254.11l14.17-6.22q2.69,6.14,5.88,12Z"/><path id="_45" data-name=" 45" class="cls-16" d="M89,254.11a177.59,177.59,0,0,1-9.52-27.74l15-3.8a162.12,162.12,0,0,0,8.69,25.32Z"/><path id="_50" data-name=" 50" class="cls-4" d="M79.49,226.37a177.59,177.59,0,0,1,32-152.67l12.21,9.5A162.11,162.11,0,0,0,94.49,222.57Z"/><path id="_51" data-name=" 51" class="cls-17" d="M111.51,73.7Q116,67.91,121,62.5L132.38,73q-4.54,4.93-8.66,10.22Z"/><path id="_52" data-name=" 52" class="cls-18" d="M121,62.5q5-5.4,10.38-10.38L141.85,63.5Q136.92,68,132.38,73Z"/><path id="_159" data-name=" 159" class="cls-15" d="M356.56,22.19q6.64,4.34,12.9,9.21l-8.74,11.23q-5.79-4.51-11.95-8.53Z"/><path id="_96" data-name=" 96" class="cls-9" d="M427.31,105.72q3.19,7.26,5.76,14.77l-13.46,4.62q-2.38-6.94-5.34-13.67Z"/><path id="_97" data-name=" 97" class="cls-10" d="M433.07,120.49q2.57,7.5,4.52,15.19l-13.79,3.49q-1.8-7.12-4.19-14.07Z"/><path id="_98" data-name=" 98" class="cls-11" d="M437.59,135.69q1.95,7.69,3.25,15.52l-14,2.34q-1.21-7.24-3-14.37Z"/><path id="_74" data-name=" 74" class="cls-16" d="M403,300.59A191.82,191.82,0,0,1,283.22,372l-2.34-14a177.59,177.59,0,0,0,110.91-66.09Z"/><path id="_146" data-name=" 146" class="cls-12" d="M283.22,372q-7.82,1.31-15.73,2l-1.18-14.18q7.32-.61,14.56-1.82Z"/><path id="_147" data-name=" 147" class="cls-12" d="M267.49,373.94q-7.9.65-15.84.66V360.36q7.34,0,14.67-.61Z"/><path id="_59" data-name=" 59" class="cls-17" d="M174.6,358.44a191.82,191.82,0,0,1-40.76-24.29l8.74-11.23a177.59,177.59,0,0,0,37.74,22.49Z"/><path id="_65" data-name=" 65" class="cls-13" d="M133.83,334.15q-6.26-4.87-12.1-10.25l9.64-10.47q5.4,5,11.2,9.49Z"/><path id="_58" data-name=" 58" class="cls-17" d="M110.52,312.69q-5.37-5.83-10.25-12.1l11.23-8.74q4.51,5.79,9.49,11.2Z"/><path id="_64" data-name=" 64" class="cls-14" d="M100.28,300.59q-4.87-6.26-9.21-12.9L103,279.91q4,6.15,8.53,11.95Z"/><path id="_56" data-name=" 56" class="cls-4" d="M76,259.83a191.82,191.82,0,0,1-10.29-30l13.79-3.49A177.59,177.59,0,0,0,89,254.11Z"/><path id="_57" data-name=" 57" class="cls-4" d="M65.7,229.86q-1.95-7.69-3.25-15.52l14-2.34q1.21,7.24,3,14.37Z"/><path id="_63" data-name=" 63" class="cls-18" d="M62.45,214.35A191.82,191.82,0,0,1,82.95,91.48l12.51,6.77A177.59,177.59,0,0,0,76.48,212Z"/><path id="_79" data-name=" 79" class="cls-4" d="M82.95,91.48q3.77-7,8.12-13.62L103,85.64q-4,6.15-7.51,12.61Z"/><path id="_80" data-name=" 80" class="cls-4" d="M91.06,77.86q4.34-6.64,9.21-12.9l11.23,8.74Q107,79.49,103,85.64Z"/><path id="_160" data-name=" 160" class="cls-1" d="M363.81,11.11q7.1,4.64,13.79,9.85l-8.13,10.45q-6.26-4.87-12.9-9.21Z"/><path id="_75" data-name=" 75" class="cls-2" d="M413.47,308.73A205.06,205.06,0,0,1,285.4,385L283.22,372A191.82,191.82,0,0,0,403,300.59Z"/><path id="_105" data-name=" 105" class="cls-3" d="M169.28,370.57a205.06,205.06,0,0,1-43.58-26l8.13-10.45a191.82,191.82,0,0,0,40.76,24.29Z"/><path id="_104" data-name=" 104" class="cls-17" d="M100.78,321.66q-5.74-6.24-11-12.93l10.45-8.13q4.87,6.26,10.25,12.1Z"/><path id="_60" data-name=" 60" class="cls-4" d="M63.86,265.15q-3.41-7.76-6.16-15.79l12.53-4.3q2.57,7.5,5.76,14.77Z"/><path id="_106" data-name=" 106" class="cls-4" d="M57.7,249.36q-2.75-8-4.84-16.24l12.84-3.25q1.95,7.69,4.52,15.19Z"/><path id="_87" data-name=" 87" class="cls-4" d="M49.38,216.53A205.06,205.06,0,0,1,57.7,116.19l12.53,4.3a191.82,191.82,0,0,0-7.78,93.85Z"/><path id="_88" data-name=" 88" class="cls-5" d="M57.7,116.19a205.06,205.06,0,0,1,13.6-31l11.65,6.3a191.82,191.82,0,0,0-12.73,29Z"/><path id="_163" data-name=" 163" class="cls-1" d="M370.61.69q7.53,4.92,14.63,10.45L377.6,21q-6.69-5.21-13.79-9.85Z"/><path id="_81" data-name=" 81" class="cls-6" d="M423.29,316.37A217.5,217.5,0,0,1,399,342.8l-8.42-9.15a205.06,205.06,0,0,0,22.94-24.92Z"/><path id="_82" data-name=" 82" class="cls-2" d="M399,342.8q-6.62,6.09-13.72,11.62l-7.64-9.82q6.69-5.21,12.93-11Z"/><path id="_84" data-name=" 84" class="cls-7" d="M385.24,354.41a217.5,217.5,0,0,1-97.79,42.9l-2-12.27a205.06,205.06,0,0,0,92.2-40.44Z"/><path id="_107" data-name=" 107" class="cls-3" d="M164.28,382q-8.23-3.61-16.15-7.9L154,363.12q7.46,4,15.23,7.44Z"/><path id="_108" data-name=" 108" class="cls-8" d="M148.13,374.06a217.5,217.5,0,0,1-30.07-19.65l7.64-9.82A205.06,205.06,0,0,0,154,363.12Z"/><path id="_93" data-name=" 93" class="cls-4" d="M37.11,218.58q-1.48-8.87-2.22-17.84l12.4-1q.7,8.45,2.1,16.82Z"/><path id="_94" data-name=" 94" class="cls-7" d="M34.89,200.74a217.5,217.5,0,0,1,0-35.92l12.4,1a205.06,205.06,0,0,0,0,33.87Z"/><path id="_95" data-name=" 95" class="cls-4" d="M34.89,164.81q.74-9,2.22-17.84l12.27,2q-1.4,8.36-2.1,16.82Z"/><path id="_100" data-name=" 100" class="cls-4" d="M37.11,147q1.48-8.87,3.69-17.59l12.06,3.05q-2.08,8.22-3.48,16.59Z"/><path id="_109" data-name=" 109" class="cls-9" d="M40.8,129.38q2.21-8.72,5.13-17.23l11.77,4q-2.75,8-4.84,16.24Z"/><path id="_138" data-name=" 138" class="cls-10" d="M45.93,112.15a217.5,217.5,0,0,1,14.43-32.9L71.3,85.18a205.06,205.06,0,0,0-13.6,31Z"/><path id="_111" data-name=" 111" class="cls-6" d="M432.57,323.59q-5.82,7.48-12.25,14.46l-8.66-8q6.09-6.62,11.62-13.72Z"/><path id="_112" data-name=" 112" class="cls-6" d="M420.32,338.05q-6.42,7-13.4,13.4l-8-8.66q6.62-6.09,12.71-12.71Z"/><path id="_85" data-name=" 85" class="cls-11" d="M392.46,363.7a229.26,229.26,0,0,1-66.38,35.92l-3.82-11.13a217.5,217.5,0,0,0,63-34.08Z"/><path id="_124" data-name=" 124" class="cls-7" d="M326.09,399.62q-9,3.08-18.16,5.41L305,393.62q8.72-2.21,17.23-5.13Z"/><path id="_154" data-name=" 154" class="cls-7" d="M307.93,405q-9.19,2.33-18.55,3.89l-1.94-11.6q8.87-1.48,17.59-3.69Z"/><path id="_113" data-name=" 113" class="cls-12" d="M142.53,384.41a229.27,229.27,0,0,1-31.7-20.71l7.23-9.28a217.5,217.5,0,0,0,30.07,19.65Z"/><path id="_155" data-name=" 155" class="cls-7" d="M23.17,201.71q-.78-9.45-.78-18.93H34.15q0,9,.74,18Z"/><path id="_156" data-name=" 156" class="cls-13" d="M22.38,182.78q0-9.48.78-18.93l11.72,1q-.74,9-.74,18Z"/><path id="_119" data-name=" 119" class="cls-3" d="M29.4,126.49q2.33-9.19,5.41-18.16l11.13,3.82q-2.92,8.5-5.13,17.23Z"/><path id="_139" data-name=" 139" class="cls-10" d="M34.8,108.33q3.08-9,6.89-17.65l10.77,4.73q-3.61,8.23-6.53,16.75Z"/><path id="_140" data-name=" 140" class="cls-10" d="M41.69,90.68Q45.5,82,50,73.66l10.35,5.6q-4.28,7.91-7.9,16.15Z"/><path id="_86" data-name=" 86" class="cls-11" d="M399.34,372.53q-7.84,6.11-16.17,11.55L377,374.71q7.94-5.18,15.42-11Z"/><path id="_89" data-name=" 89" class="cls-14" d="M383.16,384.08A240.46,240.46,0,0,1,348.24,403l-4.5-10.25a229.27,229.27,0,0,0,33.3-18Z"/><path id="_121" data-name=" 121" class="cls-11" d="M348.24,403q-9.1,4-18.51,7.22l-3.63-10.58q9-3.08,17.65-6.89Z"/><path id="_114" data-name=" 114" class="cls-12" d="M137.2,394.25A240.45,240.45,0,0,1,104,372.53l6.87-8.83a229.27,229.27,0,0,0,31.7,20.71Z"/><path id="_158" data-name=" 158" class="cls-4" d="M11.19,182.78q0-9.94.82-19.86l11.15.92q-.78,9.45-.78,18.93Z"/><path id="_120" data-name=" 120" class="cls-15" d="M18.55,123.75q2.44-9.64,5.67-19l10.58,3.63q-3.08,9-5.41,18.16Z"/><path id="_101" data-name=" 101" class="cls-16" d="M389,393a251.15,251.15,0,0,1-36.48,19.74L348.24,403a240.45,240.45,0,0,0,34.93-18.9Z"/><path id="_115" data-name=" 115" class="cls-12" d="M132.11,403.65A251.15,251.15,0,0,1,97.39,381l6.57-8.44a240.45,240.45,0,0,0,33.25,21.72Z"/><path id="_164" data-name=" 164" class="cls-4" d="M.5,182.78q0-10.38.86-20.74l10.66.88q-.82,9.91-.82,19.86Z"/><path id="_121-2" data-name=" 121" class="cls-15" d="M8.19,121.12q2.55-10.07,5.92-19.89l10.11,3.47q-3.23,9.4-5.67,19Z"/><path id="_130" data-name=" 130" class="cls-16" d="M394.62,401.61q-9,5.91-18.56,11.06l-4.88-9Q380.31,398.71,389,393Z"/><path id="_131" data-name=" 131" class="cls-17" d="M376.06,412.67q-9.5,5.14-19.41,9.49l-4.12-9.39q9.51-4.17,18.65-9.12Z"/><path id="_117" data-name=" 117" class="cls-12" d="M127.23,412.67q-9.5-5.14-18.56-11.06l5.61-8.59q8.69,5.68,17.83,10.63Z"/><path id="_135" data-name=" 135" class="cls-12" d="M108.67,401.61q-9-5.91-17.58-12.55l6.3-8.09q8.19,6.38,16.89,12.06Z"/><path id="_148" data-name=" 148" class="cls-18" d="M380.76,421.35q-9.86,5.34-20.14,9.85l-4-9q9.9-4.34,19.41-9.49Z"/><path id="_150" data-name=" 150" class="cls-18" d="M385.29,429.72q-10.21,5.53-20.85,10.19l-3.82-8.72q10.27-4.51,20.14-9.85Z"/><path id="_152" data-name=" 152" class="cls-18" d="M389.67,437.82q-10.54,5.71-21.53,10.53l-3.7-8.43q10.63-4.66,20.85-10.19Z"/></g></g></svg>